%TF.GenerationSoftware,KiCad,Pcbnew,9.0.0-250-g02b756189b*%
%TF.CreationDate,2025-03-17T22:21:07-05:00*%
%TF.ProjectId,USB-Breakout,5553422d-4272-4656-916b-6f75742e6b69,rev?*%
%TF.SameCoordinates,Original*%
%TF.FileFunction,Copper,L3,Inr*%
%TF.FilePolarity,Positive*%
%FSLAX46Y46*%
G04 Gerber Fmt 4.6, Leading zero omitted, Abs format (unit mm)*
G04 Created by KiCad (PCBNEW 9.0.0-250-g02b756189b) date 2025-03-17 22:21:07*
%MOMM*%
%LPD*%
G01*
G04 APERTURE LIST*
%TA.AperFunction,ComponentPad*%
%ADD10C,1.600000*%
%TD*%
%TA.AperFunction,ComponentPad*%
%ADD11O,1.750000X1.250000*%
%TD*%
%TA.AperFunction,ComponentPad*%
%ADD12O,1.400000X1.000000*%
%TD*%
%TA.AperFunction,ComponentPad*%
%ADD13R,1.700000X1.700000*%
%TD*%
%TA.AperFunction,ComponentPad*%
%ADD14O,1.700000X1.700000*%
%TD*%
%TA.AperFunction,ComponentPad*%
%ADD15R,2.000000X1.905000*%
%TD*%
%TA.AperFunction,ComponentPad*%
%ADD16O,2.000000X1.905000*%
%TD*%
%TA.AperFunction,ViaPad*%
%ADD17C,0.600000*%
%TD*%
%TA.AperFunction,Conductor*%
%ADD18C,0.200000*%
%TD*%
G04 APERTURE END LIST*
D10*
%TO.N,/CC1*%
%TO.C,C5*%
X161049000Y-63246000D03*
%TO.N,GND*%
X168549000Y-63246000D03*
%TD*%
%TO.N,/CC2*%
%TO.C,C2*%
X145600000Y-63754000D03*
%TO.N,GND*%
X138100000Y-63754000D03*
%TD*%
D11*
%TO.N,GND*%
%TO.C,J2*%
X148716000Y-60303000D03*
X156916000Y-60303000D03*
D12*
X149041000Y-63373000D03*
X156591000Y-63373000D03*
D11*
X148716000Y-66443000D03*
X156916000Y-66443000D03*
%TD*%
D13*
%TO.N,+5V*%
%TO.C,J1*%
X145537000Y-82047000D03*
D14*
%TO.N,+12V*%
X145537000Y-79507000D03*
%TO.N,+5V*%
X148077000Y-82047000D03*
%TO.N,+12V*%
X148077000Y-79507000D03*
%TO.N,GND*%
X150617000Y-82047000D03*
X150617000Y-79507000D03*
%TO.N,/5_EN*%
X153157000Y-82047000D03*
%TO.N,/12_EN*%
X153157000Y-79507000D03*
%TO.N,/INT*%
X155697000Y-82047000D03*
%TO.N,/SDA*%
X155697000Y-79507000D03*
%TO.N,/D+*%
X158237000Y-82047000D03*
%TO.N,/SCL*%
X158237000Y-79507000D03*
%TO.N,/D-*%
X160777000Y-82047000D03*
%TO.N,+3.3V*%
X160777000Y-79507000D03*
%TD*%
D15*
%TO.N,/5_EN*%
%TO.C,Q2*%
X162123000Y-69469000D03*
D16*
%TO.N,+5V*%
X162123000Y-72009000D03*
%TO.N,VBUS*%
X162123000Y-74549000D03*
%TD*%
D15*
%TO.N,/12_EN*%
%TO.C,Q1*%
X144018000Y-74930000D03*
D16*
%TO.N,VBUS*%
X144018000Y-72390000D03*
%TO.N,+12V*%
X144018000Y-69850000D03*
%TD*%
D17*
%TO.N,+3.3V*%
X152146000Y-71882000D03*
X151511000Y-75565000D03*
%TO.N,GND*%
X153924000Y-69977000D03*
X146812000Y-68453000D03*
X148971000Y-73533000D03*
X149098000Y-68453000D03*
X148717000Y-76073000D03*
X149860000Y-77089000D03*
X155194000Y-73914000D03*
X146558000Y-73406000D03*
%TO.N,/CC1*%
X152015000Y-62434500D03*
%TO.N,+5V*%
X164338000Y-79248000D03*
%TO.N,/D+*%
X152861000Y-64181500D03*
%TO.N,/D-*%
X153463000Y-63580500D03*
X152068000Y-63899400D03*
%TO.N,/SDA*%
X155736000Y-75347200D03*
%TO.N,VBUS*%
X154221500Y-63246000D03*
X150876000Y-63373000D03*
X150368000Y-73533000D03*
%TD*%
D18*
%TO.N,+12V*%
X148077000Y-79507000D02*
X145537000Y-79507000D01*
%TD*%
%TA.AperFunction,Conductor*%
%TO.N,GND*%
G36*
X150867000Y-81613988D02*
G01*
X150809993Y-81581075D01*
X150682826Y-81547000D01*
X150551174Y-81547000D01*
X150424007Y-81581075D01*
X150367000Y-81613988D01*
X150367000Y-79940012D01*
X150424007Y-79972925D01*
X150551174Y-80007000D01*
X150682826Y-80007000D01*
X150809993Y-79972925D01*
X150867000Y-79940012D01*
X150867000Y-81613988D01*
G37*
%TD.AperFunction*%
%TA.AperFunction,Conductor*%
G36*
X147257775Y-59941766D02*
G01*
X147276467Y-59942033D01*
X147290605Y-59951406D01*
X147306879Y-59956185D01*
X147319118Y-59970310D01*
X147334701Y-59980641D01*
X147341527Y-59996171D01*
X147352634Y-60008989D01*
X147355294Y-60027489D01*
X147362817Y-60044604D01*
X147362760Y-60048537D01*
X147366572Y-60053000D01*
X148119590Y-60053000D01*
X148069963Y-60138956D01*
X148041000Y-60247048D01*
X148041000Y-60358952D01*
X148069963Y-60467044D01*
X148119590Y-60553000D01*
X147366573Y-60553000D01*
X147368700Y-60566433D01*
X147368703Y-60566446D01*
X147423419Y-60734847D01*
X147423421Y-60734850D01*
X147503813Y-60892629D01*
X147607899Y-61035889D01*
X147733110Y-61161100D01*
X147876370Y-61265186D01*
X148034149Y-61345578D01*
X148034152Y-61345580D01*
X148202560Y-61400298D01*
X148377456Y-61428000D01*
X148466000Y-61428000D01*
X148466000Y-60728000D01*
X148966000Y-60728000D01*
X148966000Y-61428000D01*
X149054544Y-61428000D01*
X149229439Y-61400298D01*
X149397847Y-61345580D01*
X149397850Y-61345578D01*
X149555629Y-61265186D01*
X149698889Y-61161100D01*
X149824100Y-61035889D01*
X149928186Y-60892629D01*
X150008578Y-60734850D01*
X150008580Y-60734847D01*
X150063296Y-60566446D01*
X150063299Y-60566433D01*
X150065427Y-60553000D01*
X149312410Y-60553000D01*
X149362037Y-60467044D01*
X149391000Y-60358952D01*
X149391000Y-60247048D01*
X149362037Y-60138956D01*
X149312410Y-60053000D01*
X150065428Y-60053000D01*
X150074541Y-60042328D01*
X150078643Y-60010601D01*
X150123641Y-59957151D01*
X150190393Y-59936513D01*
X150192160Y-59936500D01*
X155439840Y-59936500D01*
X155506879Y-59956185D01*
X155552634Y-60008989D01*
X155557421Y-60042286D01*
X155566572Y-60053000D01*
X156319590Y-60053000D01*
X156269963Y-60138956D01*
X156241000Y-60247048D01*
X156241000Y-60358952D01*
X156269963Y-60467044D01*
X156319590Y-60553000D01*
X155566573Y-60553000D01*
X155568700Y-60566433D01*
X155568703Y-60566446D01*
X155623419Y-60734847D01*
X155623421Y-60734850D01*
X155703813Y-60892629D01*
X155807899Y-61035889D01*
X155933110Y-61161100D01*
X156076370Y-61265186D01*
X156234149Y-61345578D01*
X156234152Y-61345580D01*
X156402560Y-61400298D01*
X156577456Y-61428000D01*
X156666000Y-61428000D01*
X156666000Y-60728000D01*
X157166000Y-60728000D01*
X157166000Y-61428000D01*
X157254544Y-61428000D01*
X157429439Y-61400298D01*
X157597847Y-61345580D01*
X157597850Y-61345578D01*
X157755629Y-61265186D01*
X157898889Y-61161100D01*
X158024100Y-61035889D01*
X158128186Y-60892629D01*
X158208578Y-60734850D01*
X158208580Y-60734847D01*
X158263296Y-60566446D01*
X158263299Y-60566433D01*
X158265427Y-60553000D01*
X157512410Y-60553000D01*
X157562037Y-60467044D01*
X157591000Y-60358952D01*
X157591000Y-60247048D01*
X157562037Y-60138956D01*
X157512410Y-60053000D01*
X158265428Y-60053000D01*
X158274541Y-60042328D01*
X158278643Y-60010601D01*
X158323641Y-59957151D01*
X158390393Y-59936513D01*
X158392160Y-59936500D01*
X169028500Y-59936500D01*
X169095539Y-59956185D01*
X169141294Y-60008989D01*
X169152500Y-60060500D01*
X169152500Y-61904516D01*
X169132815Y-61971555D01*
X169080011Y-62017310D01*
X169010853Y-62027254D01*
X168990182Y-62022447D01*
X168853419Y-61978010D01*
X168651317Y-61946000D01*
X168446683Y-61946000D01*
X168244582Y-61978009D01*
X168049968Y-62041244D01*
X167867644Y-62134143D01*
X167823077Y-62166523D01*
X167823077Y-62166524D01*
X168502553Y-62846000D01*
X168496339Y-62846000D01*
X168394606Y-62873259D01*
X168303394Y-62925920D01*
X168228920Y-63000394D01*
X168176259Y-63091606D01*
X168149000Y-63193339D01*
X168149000Y-63199553D01*
X167469524Y-62520077D01*
X167469523Y-62520077D01*
X167437143Y-62564644D01*
X167344244Y-62746968D01*
X167281009Y-62941582D01*
X167249000Y-63143682D01*
X167249000Y-63348317D01*
X167281009Y-63550417D01*
X167344244Y-63745031D01*
X167437141Y-63927350D01*
X167437147Y-63927359D01*
X167469523Y-63971921D01*
X167469524Y-63971922D01*
X168149000Y-63292446D01*
X168149000Y-63298661D01*
X168176259Y-63400394D01*
X168228920Y-63491606D01*
X168303394Y-63566080D01*
X168394606Y-63618741D01*
X168496339Y-63646000D01*
X168502552Y-63646000D01*
X167823076Y-64325474D01*
X167867650Y-64357859D01*
X168049968Y-64450755D01*
X168244582Y-64513990D01*
X168446683Y-64546000D01*
X168651317Y-64546000D01*
X168853417Y-64513990D01*
X168990181Y-64469552D01*
X169060022Y-64467557D01*
X169119855Y-64503637D01*
X169150684Y-64566337D01*
X169152500Y-64587483D01*
X169152500Y-83811500D01*
X169132815Y-83878539D01*
X169080011Y-83924294D01*
X169028500Y-83935500D01*
X137657500Y-83935500D01*
X137590461Y-83915815D01*
X137544706Y-83863011D01*
X137533500Y-83811500D01*
X137533500Y-79400713D01*
X144186500Y-79400713D01*
X144186500Y-79613286D01*
X144209466Y-79758292D01*
X144219754Y-79823243D01*
X144282949Y-80017737D01*
X144285444Y-80025414D01*
X144381951Y-80214820D01*
X144506890Y-80386786D01*
X144620430Y-80500326D01*
X144653915Y-80561649D01*
X144648931Y-80631341D01*
X144607059Y-80687274D01*
X144576083Y-80704189D01*
X144444669Y-80753203D01*
X144444664Y-80753206D01*
X144329455Y-80839452D01*
X144329452Y-80839455D01*
X144243206Y-80954664D01*
X144243202Y-80954671D01*
X144192908Y-81089517D01*
X144186501Y-81149116D01*
X144186500Y-81149135D01*
X144186500Y-82944870D01*
X144186501Y-82944876D01*
X144192908Y-83004483D01*
X144243202Y-83139328D01*
X144243206Y-83139335D01*
X144329452Y-83254544D01*
X144329455Y-83254547D01*
X144444664Y-83340793D01*
X144444671Y-83340797D01*
X144579517Y-83391091D01*
X144579516Y-83391091D01*
X144586444Y-83391835D01*
X144639127Y-83397500D01*
X146434872Y-83397499D01*
X146494483Y-83391091D01*
X146629331Y-83340796D01*
X146744546Y-83254546D01*
X146830796Y-83139331D01*
X146879810Y-83007916D01*
X146921681Y-82951984D01*
X146987145Y-82927566D01*
X147055418Y-82942417D01*
X147083673Y-82963569D01*
X147197213Y-83077109D01*
X147369179Y-83202048D01*
X147369181Y-83202049D01*
X147369184Y-83202051D01*
X147558588Y-83298557D01*
X147760757Y-83364246D01*
X147970713Y-83397500D01*
X147970714Y-83397500D01*
X148183286Y-83397500D01*
X148183287Y-83397500D01*
X148393243Y-83364246D01*
X148595412Y-83298557D01*
X148784816Y-83202051D01*
X148871138Y-83139335D01*
X148956786Y-83077109D01*
X148956788Y-83077106D01*
X148956792Y-83077104D01*
X149107104Y-82926792D01*
X149107106Y-82926788D01*
X149107109Y-82926786D01*
X149232048Y-82754820D01*
X149232051Y-82754816D01*
X149236793Y-82745508D01*
X149284763Y-82694711D01*
X149352583Y-82677911D01*
X149418719Y-82700445D01*
X149457763Y-82745500D01*
X149462377Y-82754555D01*
X149587272Y-82926459D01*
X149587276Y-82926464D01*
X149737535Y-83076723D01*
X149737540Y-83076727D01*
X149909442Y-83201620D01*
X150098782Y-83298095D01*
X150300871Y-83363757D01*
X150367000Y-83374231D01*
X150367000Y-82480012D01*
X150424007Y-82512925D01*
X150551174Y-82547000D01*
X150682826Y-82547000D01*
X150809993Y-82512925D01*
X150867000Y-82480012D01*
X150867000Y-83374230D01*
X150933126Y-83363757D01*
X150933129Y-83363757D01*
X151135217Y-83298095D01*
X151324557Y-83201620D01*
X151496459Y-83076727D01*
X151496464Y-83076723D01*
X151646723Y-82926464D01*
X151646727Y-82926459D01*
X151771620Y-82754558D01*
X151776232Y-82745507D01*
X151824205Y-82694709D01*
X151892025Y-82677912D01*
X151958161Y-82700447D01*
X151997204Y-82745504D01*
X152001949Y-82754817D01*
X152126890Y-82926786D01*
X152277213Y-83077109D01*
X152449179Y-83202048D01*
X152449181Y-83202049D01*
X152449184Y-83202051D01*
X152638588Y-83298557D01*
X152840757Y-83364246D01*
X153050713Y-83397500D01*
X153050714Y-83397500D01*
X153263286Y-83397500D01*
X153263287Y-83397500D01*
X153473243Y-83364246D01*
X153675412Y-83298557D01*
X153864816Y-83202051D01*
X153951138Y-83139335D01*
X154036786Y-83077109D01*
X154036788Y-83077106D01*
X154036792Y-83077104D01*
X154187104Y-82926792D01*
X154187106Y-82926788D01*
X154187109Y-82926786D01*
X154312048Y-82754820D01*
X154312047Y-82754820D01*
X154312051Y-82754816D01*
X154316514Y-82746054D01*
X154364488Y-82695259D01*
X154432308Y-82678463D01*
X154498444Y-82700999D01*
X154537486Y-82746056D01*
X154541951Y-82754820D01*
X154666890Y-82926786D01*
X154817213Y-83077109D01*
X154989179Y-83202048D01*
X154989181Y-83202049D01*
X154989184Y-83202051D01*
X155178588Y-83298557D01*
X155380757Y-83364246D01*
X155590713Y-83397500D01*
X155590714Y-83397500D01*
X155803286Y-83397500D01*
X155803287Y-83397500D01*
X156013243Y-83364246D01*
X156215412Y-83298557D01*
X156404816Y-83202051D01*
X156491138Y-83139335D01*
X156576786Y-83077109D01*
X156576788Y-83077106D01*
X156576792Y-83077104D01*
X156727104Y-82926792D01*
X156727106Y-82926788D01*
X156727109Y-82926786D01*
X156852048Y-82754820D01*
X156852047Y-82754820D01*
X156852051Y-82754816D01*
X156856514Y-82746054D01*
X156904488Y-82695259D01*
X156972308Y-82678463D01*
X157038444Y-82700999D01*
X157077486Y-82746056D01*
X157081951Y-82754820D01*
X157206890Y-82926786D01*
X157357213Y-83077109D01*
X157529179Y-83202048D01*
X157529181Y-83202049D01*
X157529184Y-83202051D01*
X157718588Y-83298557D01*
X157920757Y-83364246D01*
X158130713Y-83397500D01*
X158130714Y-83397500D01*
X158343286Y-83397500D01*
X158343287Y-83397500D01*
X158553243Y-83364246D01*
X158755412Y-83298557D01*
X158944816Y-83202051D01*
X159031138Y-83139335D01*
X159116786Y-83077109D01*
X159116788Y-83077106D01*
X159116792Y-83077104D01*
X159267104Y-82926792D01*
X159267106Y-82926788D01*
X159267109Y-82926786D01*
X159392048Y-82754820D01*
X159392047Y-82754820D01*
X159392051Y-82754816D01*
X159396514Y-82746054D01*
X159444488Y-82695259D01*
X159512308Y-82678463D01*
X159578444Y-82700999D01*
X159617486Y-82746056D01*
X159621951Y-82754820D01*
X159746890Y-82926786D01*
X159897213Y-83077109D01*
X160069179Y-83202048D01*
X160069181Y-83202049D01*
X160069184Y-83202051D01*
X160258588Y-83298557D01*
X160460757Y-83364246D01*
X160670713Y-83397500D01*
X160670714Y-83397500D01*
X160883286Y-83397500D01*
X160883287Y-83397500D01*
X161093243Y-83364246D01*
X161295412Y-83298557D01*
X161484816Y-83202051D01*
X161571138Y-83139335D01*
X161656786Y-83077109D01*
X161656788Y-83077106D01*
X161656792Y-83077104D01*
X161807104Y-82926792D01*
X161807106Y-82926788D01*
X161807109Y-82926786D01*
X161932048Y-82754820D01*
X161932047Y-82754820D01*
X161932051Y-82754816D01*
X162028557Y-82565412D01*
X162094246Y-82363243D01*
X162127500Y-82153287D01*
X162127500Y-81940713D01*
X162094246Y-81730757D01*
X162028557Y-81528588D01*
X161932051Y-81339184D01*
X161932049Y-81339181D01*
X161932048Y-81339179D01*
X161807109Y-81167213D01*
X161656786Y-81016890D01*
X161484820Y-80891951D01*
X161484115Y-80891591D01*
X161476054Y-80887485D01*
X161425259Y-80839512D01*
X161408463Y-80771692D01*
X161430999Y-80705556D01*
X161476054Y-80666515D01*
X161484816Y-80662051D01*
X161574554Y-80596853D01*
X161656786Y-80537109D01*
X161656788Y-80537106D01*
X161656792Y-80537104D01*
X161807104Y-80386792D01*
X161807106Y-80386788D01*
X161807109Y-80386786D01*
X161932048Y-80214820D01*
X161932047Y-80214820D01*
X161932051Y-80214816D01*
X162028557Y-80025412D01*
X162094246Y-79823243D01*
X162127500Y-79613287D01*
X162127500Y-79400713D01*
X162094246Y-79190757D01*
X162087226Y-79169153D01*
X163537500Y-79169153D01*
X163537500Y-79326846D01*
X163568261Y-79481489D01*
X163568264Y-79481501D01*
X163628602Y-79627172D01*
X163628609Y-79627185D01*
X163716210Y-79758288D01*
X163716213Y-79758292D01*
X163827707Y-79869786D01*
X163827711Y-79869789D01*
X163958814Y-79957390D01*
X163958827Y-79957397D01*
X164078581Y-80007000D01*
X164104503Y-80017737D01*
X164259153Y-80048499D01*
X164259156Y-80048500D01*
X164259158Y-80048500D01*
X164416844Y-80048500D01*
X164416845Y-80048499D01*
X164571497Y-80017737D01*
X164717179Y-79957394D01*
X164848289Y-79869789D01*
X164959789Y-79758289D01*
X165047394Y-79627179D01*
X165107737Y-79481497D01*
X165138500Y-79326842D01*
X165138500Y-79169158D01*
X165138500Y-79169155D01*
X165138499Y-79169153D01*
X165126116Y-79106901D01*
X165107737Y-79014503D01*
X165097003Y-78988588D01*
X165047397Y-78868827D01*
X165047390Y-78868814D01*
X164959789Y-78737711D01*
X164959786Y-78737707D01*
X164848292Y-78626213D01*
X164848288Y-78626210D01*
X164717185Y-78538609D01*
X164717172Y-78538602D01*
X164571501Y-78478264D01*
X164571489Y-78478261D01*
X164416845Y-78447500D01*
X164416842Y-78447500D01*
X164259158Y-78447500D01*
X164259155Y-78447500D01*
X164104510Y-78478261D01*
X164104498Y-78478264D01*
X163958827Y-78538602D01*
X163958814Y-78538609D01*
X163827711Y-78626210D01*
X163827707Y-78626213D01*
X163716213Y-78737707D01*
X163716210Y-78737711D01*
X163628609Y-78868814D01*
X163628602Y-78868827D01*
X163568264Y-79014498D01*
X163568261Y-79014510D01*
X163537500Y-79169153D01*
X162087226Y-79169153D01*
X162028557Y-78988588D01*
X161932051Y-78799184D01*
X161932049Y-78799181D01*
X161932048Y-78799179D01*
X161807109Y-78627213D01*
X161656786Y-78476890D01*
X161484820Y-78351951D01*
X161295414Y-78255444D01*
X161295413Y-78255443D01*
X161295412Y-78255443D01*
X161093243Y-78189754D01*
X161093241Y-78189753D01*
X161093240Y-78189753D01*
X160931957Y-78164208D01*
X160883287Y-78156500D01*
X160670713Y-78156500D01*
X160622042Y-78164208D01*
X160460760Y-78189753D01*
X160258585Y-78255444D01*
X160069179Y-78351951D01*
X159897213Y-78476890D01*
X159746890Y-78627213D01*
X159621949Y-78799182D01*
X159617484Y-78807946D01*
X159569509Y-78858742D01*
X159501688Y-78875536D01*
X159435553Y-78852998D01*
X159396516Y-78807946D01*
X159392050Y-78799182D01*
X159267109Y-78627213D01*
X159116786Y-78476890D01*
X158944820Y-78351951D01*
X158755414Y-78255444D01*
X158755413Y-78255443D01*
X158755412Y-78255443D01*
X158553243Y-78189754D01*
X158553241Y-78189753D01*
X158553240Y-78189753D01*
X158391957Y-78164208D01*
X158343287Y-78156500D01*
X158130713Y-78156500D01*
X158082042Y-78164208D01*
X157920760Y-78189753D01*
X157718585Y-78255444D01*
X157529179Y-78351951D01*
X157357213Y-78476890D01*
X157206890Y-78627213D01*
X157081949Y-78799182D01*
X157077484Y-78807946D01*
X157029509Y-78858742D01*
X156961688Y-78875536D01*
X156895553Y-78852998D01*
X156856516Y-78807946D01*
X156852050Y-78799182D01*
X156727109Y-78627213D01*
X156576786Y-78476890D01*
X156404820Y-78351951D01*
X156215414Y-78255444D01*
X156215413Y-78255443D01*
X156215412Y-78255443D01*
X156013243Y-78189754D01*
X156013241Y-78189753D01*
X156013240Y-78189753D01*
X155851957Y-78164208D01*
X155803287Y-78156500D01*
X155590713Y-78156500D01*
X155542042Y-78164208D01*
X155380760Y-78189753D01*
X155178585Y-78255444D01*
X154989179Y-78351951D01*
X154817213Y-78476890D01*
X154666890Y-78627213D01*
X154541949Y-78799182D01*
X154537484Y-78807946D01*
X154489509Y-78858742D01*
X154421688Y-78875536D01*
X154355553Y-78852998D01*
X154316516Y-78807946D01*
X154312050Y-78799182D01*
X154187109Y-78627213D01*
X154036786Y-78476890D01*
X153864820Y-78351951D01*
X153675414Y-78255444D01*
X153675413Y-78255443D01*
X153675412Y-78255443D01*
X153473243Y-78189754D01*
X153473241Y-78189753D01*
X153473240Y-78189753D01*
X153311957Y-78164208D01*
X153263287Y-78156500D01*
X153050713Y-78156500D01*
X153002042Y-78164208D01*
X152840760Y-78189753D01*
X152638585Y-78255444D01*
X152449179Y-78351951D01*
X152277213Y-78476890D01*
X152126890Y-78627213D01*
X152001949Y-78799182D01*
X151997202Y-78808499D01*
X151949227Y-78859293D01*
X151881405Y-78876087D01*
X151815271Y-78853548D01*
X151776234Y-78808495D01*
X151771622Y-78799444D01*
X151646727Y-78627540D01*
X151646723Y-78627535D01*
X151496464Y-78477276D01*
X151496459Y-78477272D01*
X151324557Y-78352379D01*
X151135215Y-78255903D01*
X150933124Y-78190241D01*
X150867000Y-78179768D01*
X150867000Y-79073988D01*
X150809993Y-79041075D01*
X150682826Y-79007000D01*
X150551174Y-79007000D01*
X150424007Y-79041075D01*
X150367000Y-79073988D01*
X150367000Y-78179768D01*
X150366999Y-78179768D01*
X150300875Y-78190241D01*
X150098784Y-78255903D01*
X149909442Y-78352379D01*
X149737540Y-78477272D01*
X149737535Y-78477276D01*
X149587276Y-78627535D01*
X149587272Y-78627540D01*
X149462378Y-78799443D01*
X149457762Y-78808502D01*
X149409784Y-78859295D01*
X149341963Y-78876087D01*
X149275829Y-78853546D01*
X149236794Y-78808493D01*
X149232051Y-78799184D01*
X149232049Y-78799181D01*
X149232048Y-78799179D01*
X149107109Y-78627213D01*
X148956786Y-78476890D01*
X148784820Y-78351951D01*
X148595414Y-78255444D01*
X148595413Y-78255443D01*
X148595412Y-78255443D01*
X148393243Y-78189754D01*
X148393241Y-78189753D01*
X148393240Y-78189753D01*
X148231957Y-78164208D01*
X148183287Y-78156500D01*
X147970713Y-78156500D01*
X147922042Y-78164208D01*
X147760760Y-78189753D01*
X147558585Y-78255444D01*
X147369179Y-78351951D01*
X147197213Y-78476890D01*
X147046890Y-78627213D01*
X146921949Y-78799182D01*
X146917484Y-78807946D01*
X146869509Y-78858742D01*
X146801688Y-78875536D01*
X146735553Y-78852998D01*
X146696516Y-78807946D01*
X146692050Y-78799182D01*
X146567109Y-78627213D01*
X146416786Y-78476890D01*
X146244820Y-78351951D01*
X146055414Y-78255444D01*
X146055413Y-78255443D01*
X146055412Y-78255443D01*
X145853243Y-78189754D01*
X145853241Y-78189753D01*
X145853240Y-78189753D01*
X145691957Y-78164208D01*
X145643287Y-78156500D01*
X145430713Y-78156500D01*
X145382042Y-78164208D01*
X145220760Y-78189753D01*
X145018585Y-78255444D01*
X144829179Y-78351951D01*
X144657213Y-78476890D01*
X144506890Y-78627213D01*
X144381951Y-78799179D01*
X144285444Y-78988585D01*
X144219753Y-79190760D01*
X144186500Y-79400713D01*
X137533500Y-79400713D01*
X137533500Y-69735646D01*
X142517500Y-69735646D01*
X142517500Y-69964353D01*
X142553278Y-70190246D01*
X142553278Y-70190249D01*
X142623950Y-70407755D01*
X142685719Y-70528983D01*
X142727783Y-70611538D01*
X142862214Y-70796566D01*
X143023934Y-70958286D01*
X143057983Y-70983024D01*
X143108438Y-71019682D01*
X143151103Y-71075013D01*
X143157082Y-71144626D01*
X143124476Y-71206421D01*
X143108438Y-71220318D01*
X143023932Y-71281715D01*
X142862216Y-71443431D01*
X142862216Y-71443432D01*
X142862214Y-71443434D01*
X142804480Y-71522896D01*
X142727783Y-71628461D01*
X142623950Y-71832244D01*
X142553278Y-72049750D01*
X142553278Y-72049753D01*
X142542865Y-72115497D01*
X142517500Y-72275646D01*
X142517500Y-72504354D01*
X142527384Y-72566758D01*
X142553278Y-72730246D01*
X142553278Y-72730249D01*
X142623950Y-72947755D01*
X142627931Y-72955568D01*
X142727783Y-73151538D01*
X142860525Y-73334242D01*
X142884005Y-73400046D01*
X142868180Y-73468100D01*
X142818074Y-73516795D01*
X142803541Y-73523308D01*
X142775670Y-73533703D01*
X142775664Y-73533706D01*
X142660455Y-73619952D01*
X142660452Y-73619955D01*
X142574206Y-73735164D01*
X142574202Y-73735171D01*
X142523908Y-73870017D01*
X142519376Y-73912179D01*
X142517501Y-73929623D01*
X142517500Y-73929635D01*
X142517500Y-75930370D01*
X142517501Y-75930376D01*
X142523908Y-75989983D01*
X142574202Y-76124828D01*
X142574206Y-76124835D01*
X142660452Y-76240044D01*
X142660455Y-76240047D01*
X142775664Y-76326293D01*
X142775671Y-76326297D01*
X142910517Y-76376591D01*
X142910516Y-76376591D01*
X142917444Y-76377335D01*
X142970127Y-76383000D01*
X145065872Y-76382999D01*
X145125483Y-76376591D01*
X145260331Y-76326296D01*
X145375546Y-76240046D01*
X145461796Y-76124831D01*
X145512091Y-75989983D01*
X145518500Y-75930373D01*
X145518500Y-75486153D01*
X150710500Y-75486153D01*
X150710500Y-75643846D01*
X150741261Y-75798489D01*
X150741264Y-75798501D01*
X150801602Y-75944172D01*
X150801609Y-75944185D01*
X150889210Y-76075288D01*
X150889213Y-76075292D01*
X151000707Y-76186786D01*
X151000711Y-76186789D01*
X151131814Y-76274390D01*
X151131827Y-76274397D01*
X151257117Y-76326293D01*
X151277503Y-76334737D01*
X151432153Y-76365499D01*
X151432156Y-76365500D01*
X151432158Y-76365500D01*
X151589844Y-76365500D01*
X151589845Y-76365499D01*
X151744497Y-76334737D01*
X151890179Y-76274394D01*
X152021289Y-76186789D01*
X152132789Y-76075289D01*
X152220394Y-75944179D01*
X152226109Y-75930383D01*
X152240537Y-75895548D01*
X152280737Y-75798497D01*
X152311500Y-75643842D01*
X152311500Y-75486158D01*
X152311500Y-75486155D01*
X152311499Y-75486153D01*
X152299543Y-75426046D01*
X152280737Y-75331503D01*
X152254580Y-75268353D01*
X154935500Y-75268353D01*
X154935500Y-75426046D01*
X154966261Y-75580689D01*
X154966264Y-75580701D01*
X155026602Y-75726372D01*
X155026609Y-75726385D01*
X155114210Y-75857488D01*
X155114213Y-75857492D01*
X155225707Y-75968986D01*
X155225711Y-75968989D01*
X155356814Y-76056590D01*
X155356827Y-76056597D01*
X155502498Y-76116935D01*
X155502503Y-76116937D01*
X155657153Y-76147699D01*
X155657156Y-76147700D01*
X155657158Y-76147700D01*
X155814844Y-76147700D01*
X155814845Y-76147699D01*
X155969497Y-76116937D01*
X156115179Y-76056594D01*
X156246289Y-75968989D01*
X156357789Y-75857489D01*
X156445394Y-75726379D01*
X156505737Y-75580697D01*
X156536500Y-75426042D01*
X156536500Y-75268358D01*
X156536500Y-75268355D01*
X156536499Y-75268353D01*
X156505738Y-75113710D01*
X156505737Y-75113703D01*
X156481300Y-75054707D01*
X156445397Y-74968027D01*
X156445390Y-74968014D01*
X156357789Y-74836911D01*
X156357786Y-74836907D01*
X156246292Y-74725413D01*
X156246288Y-74725410D01*
X156115185Y-74637809D01*
X156115172Y-74637802D01*
X155969501Y-74577464D01*
X155969489Y-74577461D01*
X155814845Y-74546700D01*
X155814842Y-74546700D01*
X155657158Y-74546700D01*
X155657155Y-74546700D01*
X155502510Y-74577461D01*
X155502498Y-74577464D01*
X155356827Y-74637802D01*
X155356814Y-74637809D01*
X155225711Y-74725410D01*
X155225707Y-74725413D01*
X155114213Y-74836907D01*
X155114210Y-74836911D01*
X155026609Y-74968014D01*
X155026602Y-74968027D01*
X154966264Y-75113698D01*
X154966261Y-75113710D01*
X154935500Y-75268353D01*
X152254580Y-75268353D01*
X152220397Y-75185827D01*
X152220390Y-75185814D01*
X152132789Y-75054711D01*
X152132786Y-75054707D01*
X152021292Y-74943213D01*
X152021288Y-74943210D01*
X151890185Y-74855609D01*
X151890172Y-74855602D01*
X151744501Y-74795264D01*
X151744489Y-74795261D01*
X151589845Y-74764500D01*
X151589842Y-74764500D01*
X151432158Y-74764500D01*
X151432155Y-74764500D01*
X151277510Y-74795261D01*
X151277498Y-74795264D01*
X151131827Y-74855602D01*
X151131814Y-74855609D01*
X151000711Y-74943210D01*
X151000707Y-74943213D01*
X150889213Y-75054707D01*
X150889210Y-75054711D01*
X150801609Y-75185814D01*
X150801602Y-75185827D01*
X150741264Y-75331498D01*
X150741261Y-75331510D01*
X150710500Y-75486153D01*
X145518500Y-75486153D01*
X145518499Y-74889249D01*
X145518499Y-73929629D01*
X145518498Y-73929623D01*
X145518497Y-73929616D01*
X145512091Y-73870017D01*
X145461796Y-73735169D01*
X145461795Y-73735168D01*
X145461793Y-73735164D01*
X145375547Y-73619955D01*
X145375544Y-73619952D01*
X145286210Y-73553076D01*
X145286205Y-73553073D01*
X145260331Y-73533704D01*
X145224817Y-73520458D01*
X145217612Y-73516630D01*
X145198227Y-73497682D01*
X145176525Y-73481437D01*
X145173609Y-73473621D01*
X145167646Y-73467792D01*
X145164515Y-73454153D01*
X149567500Y-73454153D01*
X149567500Y-73611846D01*
X149598261Y-73766489D01*
X149598264Y-73766501D01*
X149658602Y-73912172D01*
X149658609Y-73912185D01*
X149746210Y-74043288D01*
X149746213Y-74043292D01*
X149857707Y-74154786D01*
X149857711Y-74154789D01*
X149988814Y-74242390D01*
X149988827Y-74242397D01*
X150134498Y-74302735D01*
X150134503Y-74302737D01*
X150289153Y-74333499D01*
X150289156Y-74333500D01*
X150289158Y-74333500D01*
X150446844Y-74333500D01*
X150446845Y-74333499D01*
X150601497Y-74302737D01*
X150747179Y-74242394D01*
X150878289Y-74154789D01*
X150989789Y-74043289D01*
X151077394Y-73912179D01*
X151137737Y-73766497D01*
X151168500Y-73611842D01*
X151168500Y-73454158D01*
X151168500Y-73454155D01*
X151168499Y-73454153D01*
X151145109Y-73336566D01*
X151137737Y-73299503D01*
X151137735Y-73299498D01*
X151077397Y-73153827D01*
X151077390Y-73153814D01*
X150989789Y-73022711D01*
X150989786Y-73022707D01*
X150878292Y-72911213D01*
X150878288Y-72911210D01*
X150747185Y-72823609D01*
X150747172Y-72823602D01*
X150601501Y-72763264D01*
X150601489Y-72763261D01*
X150446845Y-72732500D01*
X150446842Y-72732500D01*
X150289158Y-72732500D01*
X150289155Y-72732500D01*
X150134510Y-72763261D01*
X150134498Y-72763264D01*
X149988827Y-72823602D01*
X149988814Y-72823609D01*
X149857711Y-72911210D01*
X149857707Y-72911213D01*
X149746213Y-73022707D01*
X149746210Y-73022711D01*
X149658609Y-73153814D01*
X149658602Y-73153827D01*
X149598264Y-73299498D01*
X149598261Y-73299510D01*
X149567500Y-73454153D01*
X145164515Y-73454153D01*
X145161581Y-73441373D01*
X145152108Y-73415973D01*
X145153880Y-73407823D01*
X145152015Y-73399694D01*
X145161198Y-73374184D01*
X145166960Y-73347700D01*
X145175460Y-73334260D01*
X145308217Y-73151538D01*
X145412048Y-72947758D01*
X145471994Y-72763263D01*
X145482721Y-72730249D01*
X145482721Y-72730248D01*
X145482722Y-72730245D01*
X145518500Y-72504354D01*
X145518500Y-72275646D01*
X145482722Y-72049755D01*
X145482721Y-72049751D01*
X145482721Y-72049750D01*
X145413070Y-71835384D01*
X145413069Y-71835383D01*
X145412050Y-71832246D01*
X145397226Y-71803153D01*
X151345500Y-71803153D01*
X151345500Y-71960846D01*
X151376261Y-72115489D01*
X151376264Y-72115501D01*
X151436602Y-72261172D01*
X151436609Y-72261185D01*
X151524210Y-72392288D01*
X151524213Y-72392292D01*
X151635707Y-72503786D01*
X151635711Y-72503789D01*
X151766814Y-72591390D01*
X151766827Y-72591397D01*
X151912498Y-72651735D01*
X151912503Y-72651737D01*
X152067153Y-72682499D01*
X152067156Y-72682500D01*
X152067158Y-72682500D01*
X152224844Y-72682500D01*
X152224845Y-72682499D01*
X152379497Y-72651737D01*
X152525179Y-72591394D01*
X152656289Y-72503789D01*
X152767789Y-72392289D01*
X152855394Y-72261179D01*
X152915737Y-72115497D01*
X152946500Y-71960842D01*
X152946500Y-71803158D01*
X152946500Y-71803155D01*
X152946499Y-71803153D01*
X152915738Y-71648510D01*
X152915737Y-71648503D01*
X152907436Y-71628462D01*
X152855397Y-71502827D01*
X152855390Y-71502814D01*
X152767789Y-71371711D01*
X152767786Y-71371707D01*
X152656292Y-71260213D01*
X152656288Y-71260210D01*
X152525185Y-71172609D01*
X152525172Y-71172602D01*
X152379501Y-71112264D01*
X152379489Y-71112261D01*
X152224845Y-71081500D01*
X152224842Y-71081500D01*
X152067158Y-71081500D01*
X152067155Y-71081500D01*
X151912510Y-71112261D01*
X151912498Y-71112264D01*
X151766827Y-71172602D01*
X151766814Y-71172609D01*
X151635711Y-71260210D01*
X151635707Y-71260213D01*
X151524213Y-71371707D01*
X151524210Y-71371711D01*
X151436609Y-71502814D01*
X151436602Y-71502827D01*
X151376264Y-71648498D01*
X151376261Y-71648510D01*
X151345500Y-71803153D01*
X145397226Y-71803153D01*
X145328746Y-71668753D01*
X145308217Y-71628462D01*
X145173786Y-71443434D01*
X145012066Y-71281714D01*
X144927559Y-71220316D01*
X144884896Y-71164988D01*
X144878917Y-71095375D01*
X144911523Y-71033580D01*
X144927556Y-71019685D01*
X145012066Y-70958286D01*
X145173786Y-70796566D01*
X145308217Y-70611538D01*
X145412048Y-70407758D01*
X145482722Y-70190245D01*
X145518500Y-69964354D01*
X145518500Y-69735646D01*
X145482722Y-69509755D01*
X145482721Y-69509751D01*
X145482721Y-69509750D01*
X145412049Y-69292244D01*
X145308216Y-69088461D01*
X145173786Y-68903434D01*
X145012066Y-68741714D01*
X144827038Y-68607283D01*
X144721432Y-68553474D01*
X144623255Y-68503450D01*
X144516105Y-68468635D01*
X160622500Y-68468635D01*
X160622500Y-70469370D01*
X160622501Y-70469376D01*
X160628908Y-70528983D01*
X160679202Y-70663828D01*
X160679206Y-70663835D01*
X160765452Y-70779044D01*
X160765455Y-70779047D01*
X160880664Y-70865293D01*
X160880669Y-70865296D01*
X160908539Y-70875690D01*
X160964473Y-70917561D01*
X160988891Y-70983024D01*
X160974040Y-71051298D01*
X160965525Y-71064759D01*
X160832783Y-71247461D01*
X160728950Y-71451244D01*
X160658278Y-71668750D01*
X160658278Y-71668753D01*
X160622500Y-71894646D01*
X160622500Y-72123353D01*
X160658278Y-72349246D01*
X160658278Y-72349249D01*
X160728950Y-72566755D01*
X160741506Y-72591397D01*
X160832783Y-72770538D01*
X160967214Y-72955566D01*
X161128934Y-73117286D01*
X161179220Y-73153821D01*
X161213438Y-73178682D01*
X161256103Y-73234013D01*
X161262082Y-73303626D01*
X161229476Y-73365421D01*
X161213438Y-73379318D01*
X161128932Y-73440715D01*
X160967216Y-73602431D01*
X160967216Y-73602432D01*
X160967214Y-73602434D01*
X160909480Y-73681896D01*
X160832783Y-73787461D01*
X160728950Y-73991244D01*
X160658278Y-74208750D01*
X160658278Y-74208753D01*
X160622500Y-74434646D01*
X160622500Y-74663353D01*
X160658278Y-74889246D01*
X160658278Y-74889249D01*
X160728950Y-75106755D01*
X160811289Y-75268353D01*
X160832783Y-75310538D01*
X160967214Y-75495566D01*
X161128934Y-75657286D01*
X161313962Y-75791717D01*
X161443045Y-75857488D01*
X161517744Y-75895549D01*
X161735251Y-75966221D01*
X161735252Y-75966221D01*
X161735255Y-75966222D01*
X161961146Y-76002000D01*
X161961147Y-76002000D01*
X162284853Y-76002000D01*
X162284854Y-76002000D01*
X162510745Y-75966222D01*
X162510748Y-75966221D01*
X162510749Y-75966221D01*
X162728255Y-75895549D01*
X162728255Y-75895548D01*
X162728258Y-75895548D01*
X162932038Y-75791717D01*
X163117066Y-75657286D01*
X163278786Y-75495566D01*
X163413217Y-75310538D01*
X163517048Y-75106758D01*
X163562126Y-74968021D01*
X163587721Y-74889249D01*
X163587721Y-74889248D01*
X163587722Y-74889245D01*
X163623500Y-74663354D01*
X163623500Y-74434646D01*
X163587722Y-74208755D01*
X163587721Y-74208751D01*
X163587721Y-74208750D01*
X163517049Y-73991244D01*
X163485658Y-73929635D01*
X163413217Y-73787462D01*
X163278786Y-73602434D01*
X163117066Y-73440714D01*
X163032559Y-73379316D01*
X162989896Y-73323988D01*
X162983917Y-73254375D01*
X163016523Y-73192580D01*
X163032556Y-73178685D01*
X163117066Y-73117286D01*
X163278786Y-72955566D01*
X163413217Y-72770538D01*
X163517048Y-72566758D01*
X163587722Y-72349245D01*
X163623500Y-72123354D01*
X163623500Y-71894646D01*
X163587722Y-71668755D01*
X163587721Y-71668751D01*
X163587721Y-71668750D01*
X163517049Y-71451244D01*
X163430670Y-71281716D01*
X163413217Y-71247462D01*
X163280472Y-71064755D01*
X163256994Y-70998953D01*
X163272819Y-70930899D01*
X163322925Y-70882204D01*
X163337455Y-70875692D01*
X163365331Y-70865296D01*
X163480546Y-70779046D01*
X163566796Y-70663831D01*
X163617091Y-70528983D01*
X163623500Y-70469373D01*
X163623499Y-68468628D01*
X163617091Y-68409017D01*
X163566796Y-68274169D01*
X163566795Y-68274168D01*
X163566793Y-68274164D01*
X163480547Y-68158955D01*
X163480544Y-68158952D01*
X163365335Y-68072706D01*
X163365328Y-68072702D01*
X163230482Y-68022408D01*
X163230483Y-68022408D01*
X163170883Y-68016001D01*
X163170881Y-68016000D01*
X163170873Y-68016000D01*
X163170864Y-68016000D01*
X161075129Y-68016000D01*
X161075123Y-68016001D01*
X161015516Y-68022408D01*
X160880671Y-68072702D01*
X160880664Y-68072706D01*
X160765455Y-68158952D01*
X160765452Y-68158955D01*
X160679206Y-68274164D01*
X160679202Y-68274171D01*
X160628908Y-68409017D01*
X160626354Y-68432778D01*
X160622501Y-68468623D01*
X160622500Y-68468635D01*
X144516105Y-68468635D01*
X144405748Y-68432778D01*
X144236326Y-68405944D01*
X144179854Y-68397000D01*
X143856146Y-68397000D01*
X143780849Y-68408926D01*
X143630253Y-68432778D01*
X143630250Y-68432778D01*
X143412744Y-68503450D01*
X143208961Y-68607283D01*
X143103396Y-68683980D01*
X143023934Y-68741714D01*
X143023932Y-68741716D01*
X143023931Y-68741716D01*
X142862216Y-68903431D01*
X142862216Y-68903432D01*
X142862214Y-68903434D01*
X142804480Y-68982896D01*
X142727783Y-69088461D01*
X142623950Y-69292244D01*
X142553278Y-69509750D01*
X142553278Y-69509753D01*
X142517500Y-69735646D01*
X137533500Y-69735646D01*
X137533500Y-66193000D01*
X147366573Y-66193000D01*
X148119590Y-66193000D01*
X148069963Y-66278956D01*
X148041000Y-66387048D01*
X148041000Y-66498952D01*
X148069963Y-66607044D01*
X148119590Y-66693000D01*
X147366573Y-66693000D01*
X147368700Y-66706433D01*
X147368703Y-66706446D01*
X147423419Y-66874847D01*
X147423421Y-66874850D01*
X147503813Y-67032629D01*
X147607899Y-67175889D01*
X147733110Y-67301100D01*
X147876370Y-67405186D01*
X148034149Y-67485578D01*
X148034152Y-67485580D01*
X148202560Y-67540298D01*
X148377456Y-67568000D01*
X148466000Y-67568000D01*
X148466000Y-66868000D01*
X148966000Y-66868000D01*
X148966000Y-67568000D01*
X149054544Y-67568000D01*
X149229439Y-67540298D01*
X149397847Y-67485580D01*
X149397850Y-67485578D01*
X149555629Y-67405186D01*
X149698889Y-67301100D01*
X149824100Y-67175889D01*
X149928186Y-67032629D01*
X150008578Y-66874850D01*
X150008580Y-66874847D01*
X150063296Y-66706446D01*
X150063299Y-66706433D01*
X150065427Y-66693000D01*
X149312410Y-66693000D01*
X149362037Y-66607044D01*
X149391000Y-66498952D01*
X149391000Y-66387048D01*
X149362037Y-66278956D01*
X149312410Y-66193000D01*
X150065427Y-66193000D01*
X155566573Y-66193000D01*
X156319590Y-66193000D01*
X156269963Y-66278956D01*
X156241000Y-66387048D01*
X156241000Y-66498952D01*
X156269963Y-66607044D01*
X156319590Y-66693000D01*
X155566573Y-66693000D01*
X155568700Y-66706433D01*
X155568703Y-66706446D01*
X155623419Y-66874847D01*
X155623421Y-66874850D01*
X155703813Y-67032629D01*
X155807899Y-67175889D01*
X155933110Y-67301100D01*
X156076370Y-67405186D01*
X156234149Y-67485578D01*
X156234152Y-67485580D01*
X156402560Y-67540298D01*
X156577456Y-67568000D01*
X156666000Y-67568000D01*
X156666000Y-66868000D01*
X157166000Y-66868000D01*
X157166000Y-67568000D01*
X157254544Y-67568000D01*
X157429439Y-67540298D01*
X157597847Y-67485580D01*
X157597850Y-67485578D01*
X157755629Y-67405186D01*
X157898889Y-67301100D01*
X158024100Y-67175889D01*
X158128186Y-67032629D01*
X158208578Y-66874850D01*
X158208580Y-66874847D01*
X158263296Y-66706446D01*
X158263299Y-66706433D01*
X158265427Y-66693000D01*
X157512410Y-66693000D01*
X157562037Y-66607044D01*
X157591000Y-66498952D01*
X157591000Y-66387048D01*
X157562037Y-66278956D01*
X157512410Y-66193000D01*
X158265427Y-66193000D01*
X158263299Y-66179566D01*
X158263296Y-66179553D01*
X158208580Y-66011152D01*
X158208578Y-66011149D01*
X158128186Y-65853370D01*
X158024100Y-65710110D01*
X157898889Y-65584899D01*
X157755629Y-65480813D01*
X157597850Y-65400421D01*
X157597847Y-65400419D01*
X157429439Y-65345701D01*
X157254544Y-65318000D01*
X157166000Y-65318000D01*
X157166000Y-66018000D01*
X156666000Y-66018000D01*
X156666000Y-65318000D01*
X156577456Y-65318000D01*
X156402560Y-65345701D01*
X156234152Y-65400419D01*
X156234149Y-65400421D01*
X156076370Y-65480813D01*
X155933110Y-65584899D01*
X155807899Y-65710110D01*
X155703813Y-65853370D01*
X155623421Y-66011149D01*
X155623419Y-66011152D01*
X155568703Y-66179553D01*
X155568700Y-66179566D01*
X155566573Y-66193000D01*
X150065427Y-66193000D01*
X150063299Y-66179566D01*
X150063296Y-66179553D01*
X150008580Y-66011152D01*
X150008578Y-66011149D01*
X149928186Y-65853370D01*
X149824100Y-65710110D01*
X149698889Y-65584899D01*
X149555629Y-65480813D01*
X149397850Y-65400421D01*
X149397847Y-65400419D01*
X149229439Y-65345701D01*
X149054544Y-65318000D01*
X148966000Y-65318000D01*
X148966000Y-66018000D01*
X148466000Y-66018000D01*
X148466000Y-65318000D01*
X148377456Y-65318000D01*
X148202560Y-65345701D01*
X148034152Y-65400419D01*
X148034149Y-65400421D01*
X147876370Y-65480813D01*
X147733110Y-65584899D01*
X147607899Y-65710110D01*
X147503813Y-65853370D01*
X147423421Y-66011149D01*
X147423419Y-66011152D01*
X147368703Y-66179553D01*
X147368700Y-66179566D01*
X147366573Y-66193000D01*
X137533500Y-66193000D01*
X137533500Y-65107505D01*
X137553185Y-65040466D01*
X137605989Y-64994711D01*
X137675147Y-64984767D01*
X137695819Y-64989574D01*
X137795582Y-65021990D01*
X137997683Y-65054000D01*
X138202317Y-65054000D01*
X138404417Y-65021990D01*
X138599031Y-64958755D01*
X138781349Y-64865859D01*
X138825921Y-64833474D01*
X138146447Y-64154000D01*
X138152661Y-64154000D01*
X138254394Y-64126741D01*
X138345606Y-64074080D01*
X138420080Y-63999606D01*
X138472741Y-63908394D01*
X138500000Y-63806661D01*
X138500000Y-63800447D01*
X139179474Y-64479921D01*
X139211859Y-64435349D01*
X139304755Y-64253031D01*
X139367990Y-64058417D01*
X139400000Y-63856317D01*
X139400000Y-63651682D01*
X139399995Y-63651648D01*
X144299500Y-63651648D01*
X144299500Y-63856352D01*
X144302185Y-63873306D01*
X144331522Y-64058534D01*
X144394781Y-64253223D01*
X144436230Y-64334569D01*
X144478311Y-64417158D01*
X144487715Y-64435613D01*
X144608028Y-64601213D01*
X144752786Y-64745971D01*
X144873226Y-64833474D01*
X144918390Y-64866287D01*
X145034607Y-64925503D01*
X145100776Y-64959218D01*
X145100778Y-64959218D01*
X145100781Y-64959220D01*
X145170888Y-64981999D01*
X145295465Y-65022477D01*
X145396557Y-65038488D01*
X145497648Y-65054500D01*
X145497649Y-65054500D01*
X145702351Y-65054500D01*
X145702352Y-65054500D01*
X145904534Y-65022477D01*
X146099219Y-64959220D01*
X146281610Y-64866287D01*
X146374590Y-64798732D01*
X146447213Y-64745971D01*
X146447215Y-64745968D01*
X146447219Y-64745966D01*
X146591966Y-64601219D01*
X146591968Y-64601215D01*
X146591971Y-64601213D01*
X146680093Y-64479921D01*
X146712287Y-64435610D01*
X146805220Y-64253219D01*
X146868477Y-64058534D01*
X146900500Y-63856352D01*
X146900500Y-63651648D01*
X146900500Y-63651647D01*
X146893756Y-63609066D01*
X146868477Y-63449465D01*
X146830799Y-63333504D01*
X146805220Y-63254781D01*
X146805218Y-63254778D01*
X146805218Y-63254776D01*
X146783741Y-63212626D01*
X146760574Y-63167158D01*
X146738074Y-63123000D01*
X147871138Y-63123000D01*
X148674012Y-63123000D01*
X148656795Y-63132940D01*
X148600940Y-63188795D01*
X148561444Y-63257204D01*
X148541000Y-63333504D01*
X148541000Y-63412496D01*
X148561444Y-63488796D01*
X148600940Y-63557205D01*
X148656795Y-63613060D01*
X148674012Y-63623000D01*
X147871138Y-63623000D01*
X147879430Y-63664690D01*
X147879430Y-63664692D01*
X147954807Y-63846671D01*
X147954814Y-63846684D01*
X148064248Y-64010462D01*
X148064251Y-64010466D01*
X148203533Y-64149748D01*
X148203537Y-64149751D01*
X148367315Y-64259185D01*
X148367328Y-64259192D01*
X148549306Y-64334569D01*
X148549318Y-64334572D01*
X148742504Y-64372999D01*
X148742508Y-64373000D01*
X148791000Y-64373000D01*
X148791000Y-63670185D01*
X148801504Y-63673000D01*
X149280496Y-63673000D01*
X149291000Y-63670185D01*
X149291000Y-64373000D01*
X149339492Y-64373000D01*
X149339495Y-64372999D01*
X149532681Y-64334572D01*
X149532693Y-64334569D01*
X149714671Y-64259192D01*
X149714684Y-64259185D01*
X149878462Y-64149751D01*
X149878466Y-64149748D01*
X150017749Y-64010465D01*
X150079457Y-63918111D01*
X150133069Y-63873306D01*
X150202394Y-63864597D01*
X150265421Y-63894751D01*
X150270241Y-63899320D01*
X150365707Y-63994786D01*
X150365711Y-63994789D01*
X150496814Y-64082390D01*
X150496827Y-64082397D01*
X150618747Y-64132897D01*
X150642503Y-64142737D01*
X150797153Y-64173499D01*
X150797156Y-64173500D01*
X150797158Y-64173500D01*
X150954844Y-64173500D01*
X150954845Y-64173499D01*
X151109497Y-64142737D01*
X151159537Y-64122009D01*
X151229006Y-64114541D01*
X151291485Y-64145816D01*
X151321550Y-64189118D01*
X151358604Y-64278576D01*
X151358609Y-64278585D01*
X151446210Y-64409688D01*
X151446213Y-64409692D01*
X151557707Y-64521186D01*
X151557711Y-64521189D01*
X151688814Y-64608790D01*
X151688827Y-64608797D01*
X151834498Y-64669135D01*
X151834503Y-64669137D01*
X151948382Y-64691789D01*
X151989153Y-64699899D01*
X151989156Y-64699900D01*
X151989158Y-64699900D01*
X152146842Y-64699900D01*
X152165643Y-64696160D01*
X152235234Y-64702386D01*
X152277517Y-64730096D01*
X152350707Y-64803286D01*
X152350711Y-64803289D01*
X152481814Y-64890890D01*
X152481827Y-64890897D01*
X152627498Y-64951235D01*
X152627503Y-64951237D01*
X152782153Y-64981999D01*
X152782156Y-64982000D01*
X152782158Y-64982000D01*
X152939844Y-64982000D01*
X152939845Y-64981999D01*
X153094497Y-64951237D01*
X153240179Y-64890894D01*
X153371289Y-64803289D01*
X153482789Y-64691789D01*
X153570394Y-64560679D01*
X153629843Y-64417153D01*
X153673681Y-64362754D01*
X153696936Y-64350055D01*
X153842179Y-64289894D01*
X153973289Y-64202289D01*
X154029762Y-64145816D01*
X154089097Y-64086482D01*
X154090188Y-64087573D01*
X154141674Y-64052502D01*
X154179784Y-64046500D01*
X154300344Y-64046500D01*
X154300345Y-64046499D01*
X154454997Y-64015737D01*
X154600679Y-63955394D01*
X154731789Y-63867789D01*
X154843289Y-63756289D01*
X154930894Y-63625179D01*
X154941487Y-63599606D01*
X154965258Y-63542217D01*
X154991235Y-63479501D01*
X154991237Y-63479497D01*
X155022000Y-63324842D01*
X155022000Y-63167158D01*
X155021999Y-63167150D01*
X155013217Y-63123000D01*
X155421138Y-63123000D01*
X156224012Y-63123000D01*
X156206795Y-63132940D01*
X156150940Y-63188795D01*
X156111444Y-63257204D01*
X156091000Y-63333504D01*
X156091000Y-63412496D01*
X156111444Y-63488796D01*
X156150940Y-63557205D01*
X156206795Y-63613060D01*
X156224012Y-63623000D01*
X155421138Y-63623000D01*
X155429430Y-63664690D01*
X155429430Y-63664692D01*
X155504807Y-63846671D01*
X155504814Y-63846684D01*
X155614248Y-64010462D01*
X155614251Y-64010466D01*
X155753533Y-64149748D01*
X155753537Y-64149751D01*
X155917315Y-64259185D01*
X155917328Y-64259192D01*
X156099306Y-64334569D01*
X156099318Y-64334572D01*
X156292504Y-64372999D01*
X156292508Y-64373000D01*
X156341000Y-64373000D01*
X156341000Y-63670185D01*
X156351504Y-63673000D01*
X156830496Y-63673000D01*
X156841000Y-63670185D01*
X156841000Y-64373000D01*
X156889492Y-64373000D01*
X156889495Y-64372999D01*
X157082681Y-64334572D01*
X157082693Y-64334569D01*
X157264671Y-64259192D01*
X157264684Y-64259185D01*
X157428462Y-64149751D01*
X157428466Y-64149748D01*
X157567748Y-64010466D01*
X157567751Y-64010462D01*
X157677185Y-63846684D01*
X157677192Y-63846671D01*
X157752569Y-63664692D01*
X157752569Y-63664690D01*
X157760862Y-63623000D01*
X156957988Y-63623000D01*
X156975205Y-63613060D01*
X157031060Y-63557205D01*
X157070556Y-63488796D01*
X157091000Y-63412496D01*
X157091000Y-63333504D01*
X157070556Y-63257204D01*
X157031060Y-63188795D01*
X156985913Y-63143648D01*
X159748500Y-63143648D01*
X159748500Y-63348351D01*
X159780522Y-63550534D01*
X159843781Y-63745223D01*
X159875086Y-63806661D01*
X159936585Y-63927359D01*
X159936715Y-63927613D01*
X160057028Y-64093213D01*
X160201786Y-64237971D01*
X160334749Y-64334572D01*
X160367390Y-64358287D01*
X160482931Y-64417158D01*
X160549776Y-64451218D01*
X160549778Y-64451218D01*
X160549781Y-64451220D01*
X160638114Y-64479921D01*
X160744465Y-64514477D01*
X160786824Y-64521186D01*
X160946648Y-64546500D01*
X160946649Y-64546500D01*
X161151351Y-64546500D01*
X161151352Y-64546500D01*
X161353534Y-64514477D01*
X161548219Y-64451220D01*
X161730610Y-64358287D01*
X161867004Y-64259192D01*
X161896213Y-64237971D01*
X161896215Y-64237968D01*
X161896219Y-64237966D01*
X162040966Y-64093219D01*
X162040968Y-64093215D01*
X162040971Y-64093213D01*
X162097259Y-64015738D01*
X162161287Y-63927610D01*
X162254220Y-63745219D01*
X162317477Y-63550534D01*
X162349500Y-63348352D01*
X162349500Y-63143648D01*
X162337869Y-63070211D01*
X162317477Y-62941465D01*
X162266626Y-62784964D01*
X162254220Y-62746781D01*
X162254218Y-62746778D01*
X162254218Y-62746776D01*
X162217403Y-62674523D01*
X162161287Y-62564390D01*
X162150283Y-62549244D01*
X162040971Y-62398786D01*
X161896213Y-62254028D01*
X161730613Y-62133715D01*
X161730612Y-62133714D01*
X161730610Y-62133713D01*
X161673653Y-62104691D01*
X161548223Y-62040781D01*
X161353534Y-61977522D01*
X161178995Y-61949878D01*
X161151352Y-61945500D01*
X160946648Y-61945500D01*
X160922329Y-61949351D01*
X160744465Y-61977522D01*
X160549776Y-62040781D01*
X160367386Y-62133715D01*
X160201786Y-62254028D01*
X160057028Y-62398786D01*
X159936715Y-62564386D01*
X159843781Y-62746776D01*
X159780522Y-62941465D01*
X159748500Y-63143648D01*
X156985913Y-63143648D01*
X156975205Y-63132940D01*
X156957988Y-63123000D01*
X157760863Y-63123000D01*
X157752570Y-63081311D01*
X157752569Y-63081307D01*
X157677192Y-62899328D01*
X157677185Y-62899315D01*
X157567751Y-62735537D01*
X157567748Y-62735533D01*
X157428466Y-62596251D01*
X157428462Y-62596248D01*
X157264684Y-62486814D01*
X157264671Y-62486807D01*
X157082693Y-62411430D01*
X157082681Y-62411427D01*
X156889495Y-62373000D01*
X156841000Y-62373000D01*
X156841000Y-63075814D01*
X156830496Y-63073000D01*
X156351504Y-63073000D01*
X156341000Y-63075814D01*
X156341000Y-62373000D01*
X156292504Y-62373000D01*
X156099318Y-62411427D01*
X156099306Y-62411430D01*
X155917328Y-62486807D01*
X155917315Y-62486814D01*
X155753537Y-62596248D01*
X155753533Y-62596251D01*
X155614251Y-62735533D01*
X155614248Y-62735537D01*
X155504814Y-62899315D01*
X155504807Y-62899328D01*
X155429430Y-63081307D01*
X155429430Y-63081309D01*
X155421138Y-63123000D01*
X155013217Y-63123000D01*
X154994335Y-63028077D01*
X154991237Y-63012503D01*
X154978413Y-62981542D01*
X154930897Y-62866827D01*
X154930890Y-62866814D01*
X154843289Y-62735711D01*
X154843286Y-62735707D01*
X154731792Y-62624213D01*
X154731788Y-62624210D01*
X154600685Y-62536609D01*
X154600672Y-62536602D01*
X154455001Y-62476264D01*
X154454989Y-62476261D01*
X154300345Y-62445500D01*
X154300342Y-62445500D01*
X154142658Y-62445500D01*
X154142655Y-62445500D01*
X153988010Y-62476261D01*
X153987998Y-62476264D01*
X153842327Y-62536602D01*
X153842314Y-62536609D01*
X153711212Y-62624209D01*
X153676687Y-62658735D01*
X153599711Y-62735711D01*
X153599709Y-62735713D01*
X153595405Y-62740018D01*
X153594312Y-62738925D01*
X153542827Y-62773998D01*
X153504717Y-62780000D01*
X153384155Y-62780000D01*
X153229510Y-62810761D01*
X153229498Y-62810764D01*
X153083827Y-62871102D01*
X153083814Y-62871109D01*
X152952711Y-62958710D01*
X152862836Y-63048585D01*
X152801512Y-63082069D01*
X152731821Y-63077085D01*
X152675887Y-63035213D01*
X152651471Y-62969748D01*
X152666323Y-62901476D01*
X152672041Y-62892029D01*
X152724394Y-62813679D01*
X152725602Y-62810764D01*
X152784735Y-62668001D01*
X152784737Y-62667997D01*
X152815500Y-62513342D01*
X152815500Y-62355658D01*
X152815500Y-62355655D01*
X152815499Y-62355653D01*
X152784737Y-62201003D01*
X152784735Y-62200998D01*
X152724397Y-62055327D01*
X152724390Y-62055314D01*
X152636789Y-61924211D01*
X152636786Y-61924207D01*
X152525292Y-61812713D01*
X152525288Y-61812710D01*
X152394185Y-61725109D01*
X152394172Y-61725102D01*
X152248501Y-61664764D01*
X152248489Y-61664761D01*
X152093845Y-61634000D01*
X152093842Y-61634000D01*
X151936158Y-61634000D01*
X151936155Y-61634000D01*
X151781510Y-61664761D01*
X151781498Y-61664764D01*
X151635827Y-61725102D01*
X151635814Y-61725109D01*
X151504711Y-61812710D01*
X151504707Y-61812713D01*
X151393213Y-61924207D01*
X151393210Y-61924211D01*
X151305609Y-62055314D01*
X151305602Y-62055327D01*
X151245264Y-62200998D01*
X151245261Y-62201010D01*
X151214500Y-62355653D01*
X151214500Y-62473054D01*
X151194815Y-62540093D01*
X151142011Y-62585848D01*
X151072853Y-62595792D01*
X151066309Y-62594671D01*
X150954846Y-62572500D01*
X150954842Y-62572500D01*
X150797158Y-62572500D01*
X150797155Y-62572500D01*
X150642510Y-62603261D01*
X150642498Y-62603264D01*
X150496827Y-62663602D01*
X150496814Y-62663609D01*
X150365711Y-62751210D01*
X150270242Y-62846679D01*
X150208918Y-62880163D01*
X150139227Y-62875179D01*
X150083294Y-62833307D01*
X150079459Y-62827888D01*
X150017751Y-62735537D01*
X150017748Y-62735533D01*
X149878466Y-62596251D01*
X149878462Y-62596248D01*
X149714684Y-62486814D01*
X149714671Y-62486807D01*
X149532693Y-62411430D01*
X149532681Y-62411427D01*
X149339495Y-62373000D01*
X149291000Y-62373000D01*
X149291000Y-63075814D01*
X149280496Y-63073000D01*
X148801504Y-63073000D01*
X148791000Y-63075814D01*
X148791000Y-62373000D01*
X148742504Y-62373000D01*
X148549318Y-62411427D01*
X148549306Y-62411430D01*
X148367328Y-62486807D01*
X148367315Y-62486814D01*
X148203537Y-62596248D01*
X148203533Y-62596251D01*
X148064251Y-62735533D01*
X148064248Y-62735537D01*
X147954814Y-62899315D01*
X147954807Y-62899328D01*
X147879430Y-63081307D01*
X147879430Y-63081309D01*
X147871138Y-63123000D01*
X146738074Y-63123000D01*
X146712287Y-63072390D01*
X146680092Y-63028077D01*
X146591971Y-62906786D01*
X146447213Y-62762028D01*
X146281613Y-62641715D01*
X146281612Y-62641714D01*
X146281610Y-62641713D01*
X146192386Y-62596251D01*
X146099223Y-62548781D01*
X145904534Y-62485522D01*
X145729995Y-62457878D01*
X145702352Y-62453500D01*
X145497648Y-62453500D01*
X145473329Y-62457351D01*
X145295465Y-62485522D01*
X145100776Y-62548781D01*
X144918386Y-62641715D01*
X144752786Y-62762028D01*
X144608028Y-62906786D01*
X144487715Y-63072386D01*
X144394781Y-63254776D01*
X144331522Y-63449465D01*
X144307113Y-63603581D01*
X144299500Y-63651648D01*
X139399995Y-63651648D01*
X139367990Y-63449582D01*
X139304755Y-63254968D01*
X139211859Y-63072650D01*
X139179474Y-63028077D01*
X139179474Y-63028076D01*
X138500000Y-63707551D01*
X138500000Y-63701339D01*
X138472741Y-63599606D01*
X138420080Y-63508394D01*
X138345606Y-63433920D01*
X138254394Y-63381259D01*
X138152661Y-63354000D01*
X138146446Y-63354000D01*
X138825922Y-62674524D01*
X138825921Y-62674523D01*
X138781359Y-62642147D01*
X138781350Y-62642141D01*
X138599031Y-62549244D01*
X138404417Y-62486009D01*
X138202317Y-62454000D01*
X137997683Y-62454000D01*
X137795581Y-62486010D01*
X137795578Y-62486010D01*
X137695818Y-62518425D01*
X137625977Y-62520420D01*
X137566144Y-62484340D01*
X137535316Y-62421639D01*
X137533500Y-62400494D01*
X137533500Y-60060500D01*
X137553185Y-59993461D01*
X137605989Y-59947706D01*
X137657500Y-59936500D01*
X147239840Y-59936500D01*
X147257775Y-59941766D01*
G37*
%TD.AperFunction*%
%TD*%
M02*
