%TF.GenerationSoftware,KiCad,Pcbnew,9.0.0-250-g02b756189b*%
%TF.CreationDate,2025-03-17T22:21:07-05:00*%
%TF.ProjectId,USB-Breakout,5553422d-4272-4656-916b-6f75742e6b69,rev?*%
%TF.SameCoordinates,Original*%
%TF.FileFunction,Paste,Top*%
%TF.FilePolarity,Positive*%
%FSLAX46Y46*%
G04 Gerber Fmt 4.6, Leading zero omitted, Abs format (unit mm)*
G04 Created by KiCad (PCBNEW 9.0.0-250-g02b756189b) date 2025-03-17 22:21:07*
%MOMM*%
%LPD*%
G01*
G04 APERTURE LIST*
G04 Aperture macros list*
%AMRoundRect*
0 Rectangle with rounded corners*
0 $1 Rounding radius*
0 $2 $3 $4 $5 $6 $7 $8 $9 X,Y pos of 4 corners*
0 Add a 4 corners polygon primitive as box body*
4,1,4,$2,$3,$4,$5,$6,$7,$8,$9,$2,$3,0*
0 Add four circle primitives for the rounded corners*
1,1,$1+$1,$2,$3*
1,1,$1+$1,$4,$5*
1,1,$1+$1,$6,$7*
1,1,$1+$1,$8,$9*
0 Add four rect primitives between the rounded corners*
20,1,$1+$1,$2,$3,$4,$5,0*
20,1,$1+$1,$4,$5,$6,$7,0*
20,1,$1+$1,$6,$7,$8,$9,0*
20,1,$1+$1,$8,$9,$2,$3,0*%
G04 Aperture macros list end*
%ADD10RoundRect,0.237500X0.250000X0.237500X-0.250000X0.237500X-0.250000X-0.237500X0.250000X-0.237500X0*%
%ADD11RoundRect,0.155000X-0.212500X-0.155000X0.212500X-0.155000X0.212500X0.155000X-0.212500X0.155000X0*%
%ADD12R,0.250000X1.400000*%
%ADD13RoundRect,0.250000X-0.412500X-0.650000X0.412500X-0.650000X0.412500X0.650000X-0.412500X0.650000X0*%
%ADD14RoundRect,0.090000X-0.090000X0.139000X-0.090000X-0.139000X0.090000X-0.139000X0.090000X0.139000X0*%
%ADD15RoundRect,0.237500X-0.250000X-0.237500X0.250000X-0.237500X0.250000X0.237500X-0.250000X0.237500X0*%
%ADD16RoundRect,0.155000X-0.155000X0.212500X-0.155000X-0.212500X0.155000X-0.212500X0.155000X0.212500X0*%
%ADD17RoundRect,0.145000X-0.145000X-0.145000X0.145000X-0.145000X0.145000X0.145000X-0.145000X0.145000X0*%
%ADD18RoundRect,0.062500X-0.275000X-0.062500X0.275000X-0.062500X0.275000X0.062500X-0.275000X0.062500X0*%
%ADD19RoundRect,0.062500X-0.062500X-0.275000X0.062500X-0.275000X0.062500X0.275000X-0.062500X0.275000X0*%
G04 APERTURE END LIST*
D10*
%TO.C,R5*%
X150137500Y-68453000D03*
X148312500Y-68453000D03*
%TD*%
%TO.C,R2*%
X159789500Y-69342000D03*
X157964500Y-69342000D03*
%TD*%
D11*
%TO.C,C3*%
X153102500Y-71828000D03*
X154237500Y-71828000D03*
%TD*%
D10*
%TO.C,R4*%
X150137500Y-70963000D03*
X148312500Y-70963000D03*
%TD*%
D12*
%TO.C,J2*%
X150066000Y-61073000D03*
X150566000Y-61073000D03*
X151066000Y-61073000D03*
X151566000Y-61073000D03*
X152066000Y-61073000D03*
X152566000Y-61073000D03*
X153066000Y-61073000D03*
X153566000Y-61073000D03*
X154066000Y-61073000D03*
X154566000Y-61073000D03*
X155066000Y-61073000D03*
X155566000Y-61073000D03*
X155566000Y-65673000D03*
X155066000Y-65673000D03*
X154566000Y-65673000D03*
X154066000Y-65673000D03*
X153566000Y-65673000D03*
X153066000Y-65673000D03*
X152566000Y-65673000D03*
X152066000Y-65673000D03*
X151566000Y-65673000D03*
X151066000Y-65673000D03*
X150566000Y-65673000D03*
X150066000Y-65673000D03*
%TD*%
D13*
%TO.C,C1*%
X152361500Y-70104000D03*
X155486500Y-70104000D03*
%TD*%
D14*
%TO.C,C4*%
X150749000Y-74624500D03*
X150749000Y-75489500D03*
%TD*%
D15*
%TO.C,R1*%
X146280500Y-74930000D03*
X148105500Y-74930000D03*
%TD*%
D10*
%TO.C,R3*%
X152931500Y-76835000D03*
X151106500Y-76835000D03*
%TD*%
D16*
%TO.C,C6*%
X149860000Y-74870500D03*
X149860000Y-76005500D03*
%TD*%
D17*
%TO.C,U1*%
X152602000Y-73808000D03*
X152602000Y-74528000D03*
X153322000Y-73808000D03*
X153322000Y-74528000D03*
D18*
X151699500Y-73668000D03*
X151699500Y-74168000D03*
X151699500Y-74668000D03*
D19*
X152212000Y-75430500D03*
X152712000Y-75430500D03*
X153212000Y-75430500D03*
X153712000Y-75430500D03*
D18*
X154224500Y-74668000D03*
X154224500Y-74168000D03*
X154224500Y-73668000D03*
D19*
X153712000Y-72905500D03*
X153212000Y-72905500D03*
X152712000Y-72905500D03*
X152212000Y-72905500D03*
%TD*%
M02*
