M48
; DRILL file {KiCad 9.0.0-250-g02b756189b} date 2025-03-17T22:21:04-0500
; FORMAT={-:-/ absolute / inch / decimal}
; #@! TF.CreationDate,2025-03-17T22:21:04-05:00
; #@! TF.GenerationSoftware,Kicad,Pcbnew,9.0.0-250-g02b756189b
; #@! TF.FileFunction,Plated,1,4,PTH
FMAT,2
INCH
; #@! TA.AperFunction,Plated,PTH,ViaDrill
T1C0.0118
; #@! TA.AperFunction,Plated,PTH,ComponentDrill
T2C0.0236
; #@! TA.AperFunction,Plated,PTH,ComponentDrill
T3C0.0315
; #@! TA.AperFunction,Plated,PTH,ComponentDrill
T4C0.0335
; #@! TA.AperFunction,Plated,PTH,ComponentDrill
T5C0.0394
; #@! TA.AperFunction,Plated,PTH,ComponentDrill
T6C0.0433
%
G90
G05
T1
X5.77Y-2.89
X5.78Y-2.695
X5.855Y-2.995
X5.865Y-2.895
X5.87Y-2.695
X5.9Y-3.035
X5.92Y-2.895
X5.94Y-2.495
X5.965Y-2.975
X5.9848Y-2.4581
X5.9869Y-2.5157
X5.99Y-2.83
X6.0181Y-2.5268
X6.0419Y-2.5032
X6.06Y-2.755
X6.0717Y-2.49
X6.11Y-2.91
X6.1313Y-2.9664
X6.47Y-3.12
T3
X5.437Y-2.51
X5.7323Y-2.51
X6.3405Y-2.49
X6.6358Y-2.49
T5
X5.7298Y-3.1302
X5.7298Y-3.2302
X5.8298Y-3.1302
X5.8298Y-3.2302
X5.9298Y-3.1302
X5.9298Y-3.2302
X6.0298Y-3.1302
X6.0298Y-3.2302
X6.1298Y-3.1302
X6.1298Y-3.2302
X6.2298Y-3.1302
X6.2298Y-3.2302
X6.3298Y-3.1302
X6.3298Y-3.2302
T6
X5.67Y-2.75
X5.67Y-2.85
X5.67Y-2.95
X6.3828Y-2.735
X6.3828Y-2.835
X6.3828Y-2.935
T2
G00X5.8599Y-2.495
M15
G01X5.8756Y-2.495
M16
G05
G00X6.1571Y-2.495
M15
G01X6.1729Y-2.495
M16
G05
T4
G00X5.8451Y-2.3741
M15
G01X5.8648Y-2.3741
M16
G05
G00X5.8451Y-2.6159
M15
G01X5.8648Y-2.6159
M16
G05
G00X6.168Y-2.3741
M15
G01X6.1876Y-2.3741
M16
G05
G00X6.168Y-2.6159
M15
G01X6.1876Y-2.6159
M16
G05
M30
