%TF.GenerationSoftware,KiCad,Pcbnew,9.0.0-250-g02b756189b*%
%TF.CreationDate,2025-03-17T22:21:07-05:00*%
%TF.ProjectId,USB-Breakout,5553422d-4272-4656-916b-6f75742e6b69,rev?*%
%TF.SameCoordinates,Original*%
%TF.FileFunction,Copper,L1,Top*%
%TF.FilePolarity,Positive*%
%FSLAX46Y46*%
G04 Gerber Fmt 4.6, Leading zero omitted, Abs format (unit mm)*
G04 Created by KiCad (PCBNEW 9.0.0-250-g02b756189b) date 2025-03-17 22:21:07*
%MOMM*%
%LPD*%
G01*
G04 APERTURE LIST*
G04 Aperture macros list*
%AMRoundRect*
0 Rectangle with rounded corners*
0 $1 Rounding radius*
0 $2 $3 $4 $5 $6 $7 $8 $9 X,Y pos of 4 corners*
0 Add a 4 corners polygon primitive as box body*
4,1,4,$2,$3,$4,$5,$6,$7,$8,$9,$2,$3,0*
0 Add four circle primitives for the rounded corners*
1,1,$1+$1,$2,$3*
1,1,$1+$1,$4,$5*
1,1,$1+$1,$6,$7*
1,1,$1+$1,$8,$9*
0 Add four rect primitives between the rounded corners*
20,1,$1+$1,$2,$3,$4,$5,0*
20,1,$1+$1,$4,$5,$6,$7,0*
20,1,$1+$1,$6,$7,$8,$9,0*
20,1,$1+$1,$8,$9,$2,$3,0*%
G04 Aperture macros list end*
%TA.AperFunction,ComponentPad*%
%ADD10C,1.600000*%
%TD*%
%TA.AperFunction,SMDPad,CuDef*%
%ADD11RoundRect,0.237500X0.250000X0.237500X-0.250000X0.237500X-0.250000X-0.237500X0.250000X-0.237500X0*%
%TD*%
%TA.AperFunction,SMDPad,CuDef*%
%ADD12RoundRect,0.155000X-0.212500X-0.155000X0.212500X-0.155000X0.212500X0.155000X-0.212500X0.155000X0*%
%TD*%
%TA.AperFunction,SMDPad,CuDef*%
%ADD13R,0.250000X1.400000*%
%TD*%
%TA.AperFunction,ComponentPad*%
%ADD14O,1.750000X1.250000*%
%TD*%
%TA.AperFunction,ComponentPad*%
%ADD15O,1.400000X1.000000*%
%TD*%
%TA.AperFunction,SMDPad,CuDef*%
%ADD16RoundRect,0.250000X-0.412500X-0.650000X0.412500X-0.650000X0.412500X0.650000X-0.412500X0.650000X0*%
%TD*%
%TA.AperFunction,ComponentPad*%
%ADD17R,1.700000X1.700000*%
%TD*%
%TA.AperFunction,ComponentPad*%
%ADD18O,1.700000X1.700000*%
%TD*%
%TA.AperFunction,SMDPad,CuDef*%
%ADD19RoundRect,0.100000X-0.100000X0.217500X-0.100000X-0.217500X0.100000X-0.217500X0.100000X0.217500X0*%
%TD*%
%TA.AperFunction,SMDPad,CuDef*%
%ADD20RoundRect,0.237500X-0.250000X-0.237500X0.250000X-0.237500X0.250000X0.237500X-0.250000X0.237500X0*%
%TD*%
%TA.AperFunction,ComponentPad*%
%ADD21R,2.000000X1.905000*%
%TD*%
%TA.AperFunction,ComponentPad*%
%ADD22O,2.000000X1.905000*%
%TD*%
%TA.AperFunction,SMDPad,CuDef*%
%ADD23RoundRect,0.155000X-0.155000X0.212500X-0.155000X-0.212500X0.155000X-0.212500X0.155000X0.212500X0*%
%TD*%
%TA.AperFunction,SMDPad,CuDef*%
%ADD24RoundRect,0.062500X-0.275000X-0.062500X0.275000X-0.062500X0.275000X0.062500X-0.275000X0.062500X0*%
%TD*%
%TA.AperFunction,SMDPad,CuDef*%
%ADD25RoundRect,0.062500X-0.062500X-0.275000X0.062500X-0.275000X0.062500X0.275000X-0.062500X0.275000X0*%
%TD*%
%TA.AperFunction,HeatsinkPad*%
%ADD26R,1.450000X1.450000*%
%TD*%
%TA.AperFunction,ViaPad*%
%ADD27C,0.600000*%
%TD*%
%TA.AperFunction,Conductor*%
%ADD28C,0.200000*%
%TD*%
%TA.AperFunction,Conductor*%
%ADD29C,0.150000*%
%TD*%
G04 APERTURE END LIST*
D10*
%TO.P,C5,1*%
%TO.N,/CC1*%
X161049000Y-63246000D03*
%TO.P,C5,2*%
%TO.N,GND*%
X168549000Y-63246000D03*
%TD*%
%TO.P,C2,1*%
%TO.N,/CC2*%
X145600000Y-63754000D03*
%TO.P,C2,2*%
%TO.N,GND*%
X138100000Y-63754000D03*
%TD*%
D11*
%TO.P,R5,1*%
%TO.N,/CC1*%
X150137500Y-68453000D03*
%TO.P,R5,2*%
%TO.N,GND*%
X148312500Y-68453000D03*
%TD*%
%TO.P,R2,1*%
%TO.N,/5_EN*%
X159789500Y-69342000D03*
%TO.P,R2,2*%
%TO.N,GND*%
X157964500Y-69342000D03*
%TD*%
D12*
%TO.P,C3,1*%
%TO.N,+3.3V*%
X153102500Y-71828000D03*
%TO.P,C3,2*%
%TO.N,GND*%
X154237500Y-71828000D03*
%TD*%
D11*
%TO.P,R4,1*%
%TO.N,/CC2*%
X150137500Y-70963000D03*
%TO.P,R4,2*%
%TO.N,GND*%
X148312500Y-70963000D03*
%TD*%
D13*
%TO.P,J2,A1,GND_A*%
%TO.N,GND*%
X150066000Y-61073000D03*
%TO.P,J2,A2,TX1+*%
%TO.N,unconnected-(J2-TX1+-PadA2)*%
X150566000Y-61073000D03*
%TO.P,J2,A3,TX1-*%
%TO.N,unconnected-(J2-TX1--PadA3)*%
X151066000Y-61073000D03*
%TO.P,J2,A4,VBUS_A*%
%TO.N,VBUS*%
X151566000Y-61073000D03*
%TO.P,J2,A5,CC1*%
%TO.N,/CC1*%
X152066000Y-61073000D03*
%TO.P,J2,A6,D1+*%
%TO.N,/D+*%
X152566000Y-61073000D03*
%TO.P,J2,A7,D1-*%
%TO.N,/D-*%
X153066000Y-61073000D03*
%TO.P,J2,A8,SBU1*%
%TO.N,unconnected-(J2-SBU1-PadA8)*%
X153566000Y-61073000D03*
%TO.P,J2,A9,VBUS_A__1*%
%TO.N,VBUS*%
X154066000Y-61073000D03*
%TO.P,J2,A10,RX2-*%
%TO.N,unconnected-(J2-RX2--PadA10)*%
X154566000Y-61073000D03*
%TO.P,J2,A11,RX2+*%
%TO.N,unconnected-(J2-RX2+-PadA11)*%
X155066000Y-61073000D03*
%TO.P,J2,A12,GND_A__1*%
%TO.N,GND*%
X155566000Y-61073000D03*
%TO.P,J2,B1,GND_B*%
X155566000Y-65673000D03*
%TO.P,J2,B2,TX2+*%
%TO.N,unconnected-(J2-TX2+-PadB2)*%
X155066000Y-65673000D03*
%TO.P,J2,B3,TX2-*%
%TO.N,unconnected-(J2-TX2--PadB3)*%
X154566000Y-65673000D03*
%TO.P,J2,B4,VBUS_B*%
%TO.N,VBUS*%
X154066000Y-65673000D03*
%TO.P,J2,B5,CC2*%
%TO.N,/CC2*%
X153566000Y-65673000D03*
%TO.P,J2,B6,D2+*%
%TO.N,/D+*%
X153066000Y-65673000D03*
%TO.P,J2,B7,D2-*%
%TO.N,/D-*%
X152566000Y-65673000D03*
%TO.P,J2,B8,SBU2*%
%TO.N,unconnected-(J2-SBU2-PadB8)*%
X152066000Y-65673000D03*
%TO.P,J2,B9,VBUS_B__1*%
%TO.N,VBUS*%
X151566000Y-65673000D03*
%TO.P,J2,B10,RX1-*%
%TO.N,unconnected-(J2-RX1--PadB10)*%
X151066000Y-65673000D03*
%TO.P,J2,B11,RX1+*%
%TO.N,unconnected-(J2-RX1+-PadB11)*%
X150566000Y-65673000D03*
%TO.P,J2,B12,GND_B__1*%
%TO.N,GND*%
X150066000Y-65673000D03*
D14*
%TO.P,J2,SH1,SHIELD*%
X148716000Y-60303000D03*
%TO.P,J2,SH2,SHIELD__1*%
X156916000Y-60303000D03*
D15*
%TO.P,J2,SH3,SHIELD__2*%
X149041000Y-63373000D03*
%TO.P,J2,SH4,SHIELD__3*%
X156591000Y-63373000D03*
D14*
%TO.P,J2,SH5,SHIELD__4*%
X148716000Y-66443000D03*
%TO.P,J2,SH6,SHIELD__5*%
X156916000Y-66443000D03*
%TD*%
D16*
%TO.P,C1,1*%
%TO.N,+3.3V*%
X152361500Y-70104000D03*
%TO.P,C1,2*%
%TO.N,GND*%
X155486500Y-70104000D03*
%TD*%
D17*
%TO.P,J1,1,Pin_1*%
%TO.N,+5V*%
X145537000Y-82047000D03*
D18*
%TO.P,J1,2,Pin_2*%
%TO.N,+12V*%
X145537000Y-79507000D03*
%TO.P,J1,3,Pin_3*%
%TO.N,+5V*%
X148077000Y-82047000D03*
%TO.P,J1,4,Pin_4*%
%TO.N,+12V*%
X148077000Y-79507000D03*
%TO.P,J1,5,Pin_5*%
%TO.N,GND*%
X150617000Y-82047000D03*
%TO.P,J1,6,Pin_6*%
X150617000Y-79507000D03*
%TO.P,J1,7,Pin_7*%
%TO.N,/5_EN*%
X153157000Y-82047000D03*
%TO.P,J1,8,Pin_8*%
%TO.N,/12_EN*%
X153157000Y-79507000D03*
%TO.P,J1,9,Pin_9*%
%TO.N,/INT*%
X155697000Y-82047000D03*
%TO.P,J1,10,Pin_10*%
%TO.N,/SDA*%
X155697000Y-79507000D03*
%TO.P,J1,11,Pin_11*%
%TO.N,/D+*%
X158237000Y-82047000D03*
%TO.P,J1,12,Pin_12*%
%TO.N,/SCL*%
X158237000Y-79507000D03*
%TO.P,J1,13,Pin_13*%
%TO.N,/D-*%
X160777000Y-82047000D03*
%TO.P,J1,14,Pin_14*%
%TO.N,+3.3V*%
X160777000Y-79507000D03*
%TD*%
D19*
%TO.P,C4,1*%
%TO.N,+3.3V*%
X150749000Y-74649500D03*
%TO.P,C4,2*%
%TO.N,GND*%
X150749000Y-75464500D03*
%TD*%
D20*
%TO.P,R1,1*%
%TO.N,/12_EN*%
X146280500Y-74930000D03*
%TO.P,R1,2*%
%TO.N,GND*%
X148105500Y-74930000D03*
%TD*%
D21*
%TO.P,Q2,1,G*%
%TO.N,/5_EN*%
X162123000Y-69469000D03*
D22*
%TO.P,Q2,2,D*%
%TO.N,+5V*%
X162123000Y-72009000D03*
%TO.P,Q2,3,S*%
%TO.N,VBUS*%
X162123000Y-74549000D03*
%TD*%
D11*
%TO.P,R3,1*%
%TO.N,/INT*%
X152931500Y-76835000D03*
%TO.P,R3,2*%
%TO.N,+3.3V*%
X151106500Y-76835000D03*
%TD*%
D23*
%TO.P,C6,1*%
%TO.N,+3.3V*%
X149860000Y-74870500D03*
%TO.P,C6,2*%
%TO.N,GND*%
X149860000Y-76005500D03*
%TD*%
D21*
%TO.P,Q1,1,G*%
%TO.N,/12_EN*%
X144018000Y-74930000D03*
D22*
%TO.P,Q1,2,D*%
%TO.N,VBUS*%
X144018000Y-72390000D03*
%TO.P,Q1,3,S*%
%TO.N,+12V*%
X144018000Y-69850000D03*
%TD*%
D24*
%TO.P,U1,1,CC2*%
%TO.N,/CC2*%
X151699500Y-73668000D03*
%TO.P,U1,2,VBUS*%
%TO.N,VBUS*%
X151699500Y-74168000D03*
%TO.P,U1,3,VDD*%
%TO.N,+3.3V*%
X151699500Y-74668000D03*
D25*
%TO.P,U1,4,VDD*%
X152212000Y-75430500D03*
%TO.P,U1,5,INT_N*%
%TO.N,/INT*%
X152712000Y-75430500D03*
%TO.P,U1,6,SCL*%
%TO.N,/SCL*%
X153212000Y-75430500D03*
%TO.P,U1,7,SDA*%
%TO.N,/SDA*%
X153712000Y-75430500D03*
D24*
%TO.P,U1,8,GND*%
%TO.N,GND*%
X154224500Y-74668000D03*
%TO.P,U1,9,GND*%
X154224500Y-74168000D03*
%TO.P,U1,10,CC1*%
%TO.N,/CC1*%
X154224500Y-73668000D03*
D25*
%TO.P,U1,11,CC1*%
X153712000Y-72905500D03*
%TO.P,U1,12,VCONN*%
%TO.N,+3.3V*%
X153212000Y-72905500D03*
%TO.P,U1,13,VCONN*%
X152712000Y-72905500D03*
%TO.P,U1,14,CC2*%
%TO.N,/CC2*%
X152212000Y-72905500D03*
D26*
%TO.P,U1,15,GND*%
%TO.N,GND*%
X152962000Y-74168000D03*
%TD*%
D27*
%TO.N,+3.3V*%
X152146000Y-71882000D03*
X151511000Y-75565000D03*
%TO.N,GND*%
X153924000Y-69977000D03*
X146812000Y-68453000D03*
X148971000Y-73533000D03*
X149098000Y-68453000D03*
X148717000Y-76073000D03*
X149860000Y-77089000D03*
X155194000Y-73914000D03*
X146558000Y-73406000D03*
%TO.N,/CC1*%
X152015000Y-62434500D03*
%TO.N,+5V*%
X164338000Y-79248000D03*
%TO.N,/D+*%
X152861000Y-64181500D03*
%TO.N,/D-*%
X153463000Y-63580500D03*
X152068000Y-63899400D03*
%TO.N,/SDA*%
X155736000Y-75347200D03*
%TO.N,VBUS*%
X154221500Y-63246000D03*
X150876000Y-63373000D03*
X150368000Y-73533000D03*
%TD*%
D28*
%TO.N,+3.3V*%
X152146000Y-71882000D02*
X153048000Y-71882000D01*
X151511000Y-74856500D02*
X151700000Y-74668000D01*
X151511000Y-76194100D02*
X151511000Y-76430500D01*
X153102500Y-71828000D02*
X153102000Y-71828000D01*
X151178000Y-76763200D02*
X151106000Y-76835000D01*
X153102000Y-72905500D02*
X153212000Y-72905500D01*
X152917000Y-71642700D02*
X153102000Y-71828000D01*
X151511000Y-76430500D02*
X151511000Y-76194100D01*
X152362000Y-70595000D02*
X152362000Y-70349500D01*
X151106500Y-76835000D02*
X151511000Y-76430500D01*
X153048000Y-71882000D02*
X153102000Y-71828000D01*
X151511000Y-75565000D02*
X152078000Y-75565000D01*
X152362000Y-70349500D02*
X152361500Y-70349000D01*
X152362000Y-71087000D02*
X152732000Y-71457500D01*
X152362000Y-70349500D02*
X152362000Y-70595000D01*
X149860000Y-74870500D02*
X150081000Y-74649500D01*
X152712000Y-72905500D02*
X153102000Y-72905500D01*
X151700000Y-74668000D02*
X151699500Y-74668000D01*
X152732000Y-71457500D02*
X152917000Y-71642700D01*
X152362000Y-70595500D02*
X152362000Y-71087000D01*
X151699500Y-74668000D02*
X150768000Y-74668000D01*
X151511000Y-75565000D02*
X151511000Y-76194100D01*
X151511000Y-76430500D02*
X151178000Y-76763200D01*
X152917000Y-71642700D02*
X153102000Y-71828000D01*
X151106000Y-76835000D02*
X151178000Y-76763600D01*
X150768000Y-74668000D02*
X150749000Y-74649500D01*
X151178000Y-76763600D02*
X151178000Y-76763200D01*
X152362000Y-70595000D02*
X152362000Y-70595500D01*
X151511000Y-75565000D02*
X151511000Y-74856500D01*
X152732000Y-71457500D02*
X152917000Y-71642700D01*
X152362000Y-70595500D02*
X152362000Y-70595000D01*
X152361500Y-70349000D02*
X152361500Y-70104000D01*
X152078000Y-75565000D02*
X152212000Y-75430500D01*
X150081000Y-74649500D02*
X150749000Y-74649500D01*
X153102000Y-72905500D02*
X153102000Y-71828000D01*
%TO.N,GND*%
X155566000Y-61073000D02*
X156146000Y-61073000D01*
X154224500Y-74168000D02*
X152962000Y-74168000D01*
X150066000Y-62348000D02*
X149041000Y-63373000D01*
X155566000Y-61073000D02*
X155566000Y-62348000D01*
X150749000Y-75464500D02*
X150401000Y-75464500D01*
X155566000Y-64398000D02*
X156591000Y-63373000D01*
X150066000Y-65673000D02*
X149486000Y-65673000D01*
X150401000Y-75464500D02*
X149860000Y-76005500D01*
X156146000Y-65673000D02*
X156916000Y-66443000D01*
X150066000Y-61073000D02*
X150066000Y-62348000D01*
X149486000Y-61073000D02*
X148716000Y-60303000D01*
X156146000Y-61073000D02*
X156916000Y-60303000D01*
X155566000Y-65673000D02*
X155566000Y-64398000D01*
X155566000Y-62348000D02*
X156591000Y-63373000D01*
X150066000Y-61073000D02*
X149486000Y-61073000D01*
X149486000Y-65673000D02*
X148716000Y-66443000D01*
X150066000Y-64398000D02*
X149041000Y-63373000D01*
X150066000Y-65673000D02*
X150066000Y-64398000D01*
X155566000Y-65673000D02*
X156146000Y-65673000D01*
X154224500Y-74168000D02*
X154224500Y-74668000D01*
%TO.N,/CC2*%
X151457000Y-72282100D02*
X151589000Y-72282100D01*
X145600000Y-65758500D02*
X145600000Y-63754000D01*
X150138000Y-70963000D02*
X150137500Y-70963000D01*
X151700000Y-73668000D02*
X151700000Y-73543000D01*
X147517000Y-67675300D02*
X147517000Y-68936700D01*
X150138000Y-70963000D02*
X151457000Y-72282100D01*
X153247000Y-67103400D02*
X153247000Y-67241500D01*
X151700000Y-73543000D02*
X151700000Y-73418000D01*
X147517000Y-68936700D02*
X148288000Y-69708000D01*
X151700000Y-73418000D02*
X152212000Y-72905500D01*
X150138000Y-70963000D02*
X150270000Y-70963000D01*
X151589000Y-72282100D02*
X151589000Y-72282000D01*
X151700000Y-73543000D02*
X151699500Y-73543500D01*
X153566000Y-65673000D02*
X153566000Y-66784300D01*
X151589000Y-72282000D02*
X152212000Y-72905500D01*
X150270000Y-70963000D02*
X151589000Y-72282000D01*
X147517000Y-67675300D02*
X145600000Y-65758500D01*
X151699500Y-73543500D02*
X151699500Y-73668000D01*
X152813000Y-67675300D02*
X147517000Y-67675300D01*
X148288000Y-69708000D02*
X148882000Y-69708000D01*
X148882000Y-69708000D02*
X150138000Y-70963000D01*
X153566000Y-66784300D02*
X153247000Y-67103400D01*
X153247000Y-67241500D02*
X152813000Y-67675300D01*
%TO.N,/CC1*%
X150138000Y-68453000D02*
X154122000Y-68453000D01*
X156994000Y-70648000D02*
X154224000Y-73418000D01*
X156994000Y-68802900D02*
X156994000Y-70648000D01*
X153712000Y-72905500D02*
X153968000Y-73161700D01*
X161049000Y-64747700D02*
X161049000Y-63246000D01*
X154224000Y-73418000D02*
X154224000Y-73543000D01*
X154224500Y-73668000D02*
X154224500Y-73418400D01*
X153968000Y-73161700D02*
X154138700Y-73332600D01*
X154224500Y-73418400D02*
X154138700Y-73332600D01*
X154122000Y-68453000D02*
X154472000Y-68802900D01*
X150138000Y-68453000D02*
X150137500Y-68453000D01*
X152015000Y-62434500D02*
X152015000Y-61124000D01*
X156994000Y-68802900D02*
X161049000Y-64747700D01*
X154472000Y-68802900D02*
X156994000Y-68802900D01*
X152015000Y-61124000D02*
X152066000Y-61073000D01*
X154138700Y-73332600D02*
X154224000Y-73418000D01*
%TO.N,/SCL*%
X157085000Y-79219000D02*
X156222000Y-78355300D01*
X158237000Y-79507000D02*
X157085000Y-79507000D01*
X155744000Y-78355300D02*
X153212000Y-75823800D01*
X156222000Y-78355300D02*
X155744000Y-78355300D01*
X157085000Y-79507000D02*
X157085000Y-79219000D01*
X153212000Y-75823800D02*
X153212000Y-75430500D01*
%TO.N,+5V*%
X164338000Y-74224000D02*
X162123000Y-72009000D01*
X164338000Y-79248000D02*
X164338000Y-74224000D01*
%TO.N,/12_EN*%
X149578000Y-78227000D02*
X150994000Y-78227000D01*
X145149000Y-74930000D02*
X145714500Y-74930000D01*
X144018000Y-74930000D02*
X145149000Y-74930000D01*
X152005000Y-79507000D02*
X153157000Y-79507000D01*
X146280000Y-74930000D02*
X149578000Y-78227000D01*
X146280000Y-74930000D02*
X146280500Y-74930000D01*
X150994000Y-78227000D02*
X152005000Y-79238500D01*
X145149000Y-74930000D02*
X145714500Y-74930000D01*
X152005000Y-79238500D02*
X152005000Y-79507000D01*
X145714500Y-74930000D02*
X146280000Y-74930000D01*
X145714500Y-74930000D02*
X146280000Y-74930000D01*
%TO.N,/5_EN*%
X162123000Y-69469000D02*
X159916000Y-69469000D01*
X159789500Y-69342000D02*
X159853000Y-69405500D01*
X159916000Y-69469000D02*
X159853000Y-69405500D01*
%TO.N,/D+*%
X153066000Y-65673000D02*
X153066000Y-64386000D01*
X153066000Y-64386000D02*
X152861000Y-64181500D01*
X152615000Y-62172000D02*
X152566000Y-62123000D01*
X152861000Y-64181500D02*
X152861000Y-63898700D01*
X152615000Y-63652200D02*
X152615000Y-62172000D01*
X152566000Y-62123000D02*
X152566000Y-61073000D01*
X152861000Y-63898700D02*
X152615000Y-63652200D01*
%TO.N,/INT*%
X153738000Y-77641900D02*
X153335000Y-77238400D01*
X153738000Y-77641900D02*
X153335000Y-77238400D01*
X155409000Y-80895300D02*
X154545000Y-80031600D01*
X153335000Y-77238400D02*
X152932000Y-76835000D01*
X154545000Y-78448800D02*
X153738000Y-77641900D01*
X152932000Y-76835000D02*
X152712000Y-76615500D01*
X153335000Y-77238400D02*
X152932000Y-76835000D01*
X155697000Y-82047000D02*
X155697000Y-80895300D01*
X152931500Y-76835000D02*
X152932000Y-76835000D01*
X155697000Y-80895300D02*
X155409000Y-80895300D01*
X154545000Y-80031600D02*
X154545000Y-78448800D01*
X152712000Y-76615500D02*
X152712000Y-75430500D01*
%TO.N,/D-*%
X153066000Y-62123000D02*
X153066000Y-61073000D01*
X153180000Y-63580500D02*
X153065000Y-63465800D01*
X152566000Y-64809000D02*
X152566000Y-65673000D01*
X153065000Y-62124000D02*
X153066000Y-62123000D01*
X153065000Y-63465800D02*
X153065000Y-62124000D01*
X152068000Y-63899400D02*
X152068000Y-64311300D01*
X152068000Y-64311300D02*
X152566000Y-64809000D01*
X153463000Y-63580500D02*
X153180000Y-63580500D01*
%TO.N,/SDA*%
X153712000Y-75430500D02*
X155249000Y-75430500D01*
X155451000Y-75632400D02*
X155736000Y-75347200D01*
X155249000Y-75430500D02*
X155451000Y-75632400D01*
D29*
%TO.N,VBUS*%
X151566000Y-65673000D02*
X151492000Y-65599000D01*
X150876000Y-62049000D02*
X151467000Y-62049000D01*
X151492000Y-63989000D02*
X150876000Y-63373000D01*
X151492000Y-65599000D02*
X151492000Y-63989000D01*
D28*
X154066000Y-64393100D02*
X154221500Y-64237600D01*
X154221500Y-64237600D02*
X154221500Y-63246000D01*
X154221500Y-62882900D02*
X154066000Y-62727400D01*
X154066000Y-62727400D02*
X154066000Y-61073000D01*
X151154870Y-74168000D02*
X150519870Y-73533000D01*
X154066000Y-64393100D02*
X154066000Y-65673000D01*
X154221500Y-63246000D02*
X154221500Y-62882900D01*
X150519870Y-73533000D02*
X150368000Y-73533000D01*
X151699500Y-74168000D02*
X151154870Y-74168000D01*
D29*
X151467000Y-61172000D02*
X151566000Y-61073000D01*
X150876000Y-63373000D02*
X150876000Y-62049000D01*
X151467000Y-62049000D02*
X151467000Y-61172000D01*
%TD*%
%TA.AperFunction,Conductor*%
%TO.N,GND*%
G36*
X147306879Y-59956185D02*
G01*
X147352634Y-60008989D01*
X147357421Y-60042286D01*
X147366572Y-60053000D01*
X148119590Y-60053000D01*
X148069963Y-60138956D01*
X148041000Y-60247048D01*
X148041000Y-60358952D01*
X148069963Y-60467044D01*
X148119590Y-60553000D01*
X147366573Y-60553000D01*
X147368700Y-60566433D01*
X147368703Y-60566446D01*
X147423419Y-60734847D01*
X147423421Y-60734850D01*
X147503813Y-60892629D01*
X147607899Y-61035889D01*
X147733110Y-61161100D01*
X147876370Y-61265186D01*
X148034149Y-61345578D01*
X148034152Y-61345580D01*
X148202560Y-61400298D01*
X148377456Y-61428000D01*
X148466000Y-61428000D01*
X148466000Y-60728000D01*
X148966000Y-60728000D01*
X148966000Y-61428000D01*
X149054544Y-61428000D01*
X149229439Y-61400298D01*
X149278682Y-61384299D01*
X149348523Y-61382304D01*
X149408356Y-61418384D01*
X149439184Y-61481085D01*
X149441000Y-61502230D01*
X149441000Y-61820844D01*
X149447401Y-61880372D01*
X149447403Y-61880379D01*
X149497645Y-62015086D01*
X149497649Y-62015093D01*
X149583809Y-62130186D01*
X149685436Y-62206265D01*
X149808198Y-62257114D01*
X149833619Y-62266596D01*
X149833627Y-62266598D01*
X149893155Y-62272999D01*
X149893172Y-62273000D01*
X149941000Y-62273000D01*
X149941000Y-62271626D01*
X149952318Y-62233078D01*
X149953703Y-62222728D01*
X149956232Y-62219749D01*
X149960685Y-62204587D01*
X149992599Y-62176932D01*
X149998934Y-62169475D01*
X150002436Y-62168408D01*
X150013489Y-62158832D01*
X150052172Y-62153269D01*
X150065776Y-62149129D01*
X150070895Y-62150577D01*
X150082647Y-62148888D01*
X150120853Y-62164712D01*
X150133006Y-62168151D01*
X150136671Y-62171264D01*
X150139301Y-62172353D01*
X150141307Y-62173854D01*
X150144075Y-62177553D01*
X150159907Y-62190999D01*
X150269407Y-62314876D01*
X150299058Y-62378142D01*
X150300500Y-62397000D01*
X150300500Y-62749926D01*
X150280815Y-62816965D01*
X150228011Y-62862720D01*
X150158853Y-62872664D01*
X150095297Y-62843639D01*
X150073398Y-62818817D01*
X150017751Y-62735537D01*
X150017748Y-62735533D01*
X149878466Y-62596251D01*
X149878462Y-62596248D01*
X149714684Y-62486814D01*
X149714668Y-62486805D01*
X149576141Y-62429426D01*
X149576141Y-62429427D01*
X149532688Y-62411429D01*
X149532681Y-62411427D01*
X149339495Y-62373000D01*
X149291000Y-62373000D01*
X149291000Y-63075814D01*
X149280496Y-63073000D01*
X148801504Y-63073000D01*
X148791000Y-63075814D01*
X148791000Y-62373000D01*
X148742504Y-62373000D01*
X148549318Y-62411427D01*
X148549306Y-62411430D01*
X148367328Y-62486807D01*
X148367315Y-62486814D01*
X148203537Y-62596248D01*
X148203533Y-62596251D01*
X148064251Y-62735533D01*
X148064248Y-62735537D01*
X147954814Y-62899315D01*
X147954807Y-62899328D01*
X147879430Y-63081307D01*
X147879430Y-63081309D01*
X147871138Y-63123000D01*
X148674012Y-63123000D01*
X148656795Y-63132940D01*
X148600940Y-63188795D01*
X148561444Y-63257204D01*
X148541000Y-63333504D01*
X148541000Y-63412496D01*
X148561444Y-63488796D01*
X148600940Y-63557205D01*
X148656795Y-63613060D01*
X148674012Y-63623000D01*
X147871138Y-63623000D01*
X147879430Y-63664690D01*
X147879430Y-63664692D01*
X147954807Y-63846671D01*
X147954814Y-63846684D01*
X148064248Y-64010462D01*
X148064251Y-64010466D01*
X148203533Y-64149748D01*
X148203537Y-64149751D01*
X148367315Y-64259185D01*
X148367328Y-64259192D01*
X148549306Y-64334569D01*
X148549318Y-64334572D01*
X148742504Y-64372999D01*
X148742508Y-64373000D01*
X148791000Y-64373000D01*
X148791000Y-63670185D01*
X148801504Y-63673000D01*
X149280496Y-63673000D01*
X149291000Y-63670185D01*
X149291000Y-64373000D01*
X149339492Y-64373000D01*
X149339495Y-64372999D01*
X149532681Y-64334572D01*
X149532689Y-64334570D01*
X149576139Y-64316573D01*
X149576140Y-64316573D01*
X149714676Y-64259189D01*
X149714684Y-64259185D01*
X149878462Y-64149751D01*
X149878466Y-64149748D01*
X150017749Y-64010465D01*
X150079457Y-63918111D01*
X150133069Y-63873306D01*
X150202394Y-63864597D01*
X150265421Y-63894751D01*
X150270241Y-63899320D01*
X150365707Y-63994786D01*
X150365711Y-63994789D01*
X150496814Y-64082390D01*
X150496827Y-64082397D01*
X150642498Y-64142735D01*
X150642503Y-64142737D01*
X150797158Y-64173500D01*
X150797163Y-64173500D01*
X150803218Y-64174097D01*
X150803052Y-64175782D01*
X150810147Y-64174762D01*
X150834187Y-64185740D01*
X150859539Y-64193185D01*
X150865466Y-64200025D01*
X150873703Y-64203787D01*
X150887992Y-64226021D01*
X150905294Y-64245989D01*
X150907581Y-64256503D01*
X150911477Y-64262565D01*
X150916500Y-64297500D01*
X150916500Y-64353551D01*
X150896815Y-64420590D01*
X150844011Y-64466345D01*
X150779247Y-64476840D01*
X150738873Y-64472500D01*
X150738865Y-64472500D01*
X150393130Y-64472500D01*
X150393125Y-64472501D01*
X150348857Y-64477260D01*
X150333517Y-64478909D01*
X150333516Y-64478909D01*
X150326904Y-64479620D01*
X150300393Y-64479619D01*
X150238842Y-64473000D01*
X150191000Y-64473000D01*
X150190948Y-64473051D01*
X150189712Y-64477260D01*
X150190684Y-64481728D01*
X150179957Y-64510482D01*
X150171315Y-64539914D01*
X150167415Y-64544102D01*
X150166263Y-64547191D01*
X150141305Y-64572146D01*
X150139305Y-64573643D01*
X150073839Y-64598057D01*
X150005567Y-64583201D01*
X149956164Y-64533793D01*
X149941000Y-64474372D01*
X149941000Y-64473000D01*
X149893155Y-64473000D01*
X149833627Y-64479401D01*
X149833623Y-64479402D01*
X149808175Y-64488893D01*
X149685436Y-64539733D01*
X149583809Y-64615812D01*
X149497649Y-64730906D01*
X149497645Y-64730913D01*
X149447403Y-64865620D01*
X149447401Y-64865627D01*
X149441000Y-64925155D01*
X149441000Y-65243769D01*
X149421315Y-65310808D01*
X149368511Y-65356563D01*
X149299353Y-65366507D01*
X149278684Y-65361701D01*
X149229437Y-65345700D01*
X149054544Y-65318000D01*
X148966000Y-65318000D01*
X148966000Y-66018000D01*
X148466000Y-66018000D01*
X148466000Y-65318000D01*
X148377456Y-65318000D01*
X148202560Y-65345701D01*
X148034152Y-65400419D01*
X148034149Y-65400421D01*
X147876370Y-65480813D01*
X147733110Y-65584899D01*
X147607899Y-65710110D01*
X147503813Y-65853370D01*
X147423421Y-66011149D01*
X147423419Y-66011152D01*
X147368703Y-66179553D01*
X147368700Y-66179566D01*
X147366573Y-66193000D01*
X148119590Y-66193000D01*
X148069963Y-66278956D01*
X148041000Y-66387048D01*
X148041000Y-66498952D01*
X148069963Y-66607044D01*
X148119590Y-66693000D01*
X147435236Y-66693000D01*
X147368197Y-66673315D01*
X147347562Y-66656688D01*
X146236823Y-65546064D01*
X146203335Y-65484742D01*
X146200500Y-65458378D01*
X146200500Y-64983601D01*
X146220185Y-64916562D01*
X146268206Y-64873116D01*
X146281610Y-64866287D01*
X146447219Y-64745966D01*
X146591966Y-64601219D01*
X146591968Y-64601215D01*
X146591971Y-64601213D01*
X146650856Y-64520163D01*
X146712287Y-64435610D01*
X146805220Y-64253219D01*
X146868477Y-64058534D01*
X146900500Y-63856352D01*
X146900500Y-63651648D01*
X146900500Y-63651647D01*
X146893756Y-63609066D01*
X146868477Y-63449465D01*
X146830799Y-63333504D01*
X146805220Y-63254781D01*
X146805218Y-63254778D01*
X146805218Y-63254776D01*
X146783741Y-63212626D01*
X146755349Y-63156904D01*
X146712287Y-63072390D01*
X146680092Y-63028077D01*
X146591971Y-62906786D01*
X146447213Y-62762028D01*
X146281613Y-62641715D01*
X146281612Y-62641714D01*
X146281610Y-62641713D01*
X146192386Y-62596251D01*
X146099223Y-62548781D01*
X145904534Y-62485522D01*
X145718363Y-62456036D01*
X145702352Y-62453500D01*
X145497648Y-62453500D01*
X145481637Y-62456036D01*
X145295465Y-62485522D01*
X145100776Y-62548781D01*
X144918386Y-62641715D01*
X144752786Y-62762028D01*
X144608028Y-62906786D01*
X144487715Y-63072386D01*
X144394781Y-63254776D01*
X144331522Y-63449465D01*
X144299500Y-63651648D01*
X144299500Y-63856351D01*
X144331522Y-64058534D01*
X144394781Y-64253223D01*
X144436230Y-64334569D01*
X144475775Y-64412181D01*
X144487715Y-64435613D01*
X144608028Y-64601213D01*
X144608034Y-64601219D01*
X144752781Y-64745966D01*
X144918390Y-64866287D01*
X144931793Y-64873116D01*
X144982589Y-64921088D01*
X144999500Y-64983601D01*
X144999500Y-65679455D01*
X144999495Y-65679474D01*
X144999500Y-65767315D01*
X144999500Y-65837572D01*
X144999503Y-65837586D01*
X144999504Y-65837589D01*
X145014229Y-65892531D01*
X145017511Y-65904777D01*
X145017511Y-65904784D01*
X145017513Y-65904784D01*
X145040424Y-65990288D01*
X145040435Y-65990314D01*
X145079074Y-66057231D01*
X145079076Y-66057233D01*
X145105451Y-66102916D01*
X145119481Y-66127218D01*
X145119496Y-66127237D01*
X145166739Y-66174476D01*
X145166753Y-66174489D01*
X145166764Y-66174500D01*
X145231284Y-66239020D01*
X145236626Y-66244362D01*
X145236685Y-66244415D01*
X145858968Y-66866632D01*
X146880177Y-67887735D01*
X146913665Y-67949056D01*
X146916500Y-67975420D01*
X146916500Y-68933520D01*
X146916484Y-69015641D01*
X146916500Y-69015700D01*
X146916500Y-69015757D01*
X146935491Y-69086634D01*
X146935975Y-69088439D01*
X146935978Y-69088461D01*
X146935981Y-69088461D01*
X146935981Y-69088462D01*
X146952819Y-69151350D01*
X146957381Y-69168386D01*
X146957418Y-69168476D01*
X146997073Y-69237162D01*
X146997074Y-69237162D01*
X146997105Y-69237216D01*
X147036409Y-69305322D01*
X147036448Y-69305361D01*
X147036480Y-69305416D01*
X147094972Y-69363908D01*
X147094989Y-69363925D01*
X147659281Y-69928437D01*
X147692754Y-69989767D01*
X147687756Y-70059457D01*
X147645874Y-70115383D01*
X147636682Y-70121638D01*
X147601965Y-70143052D01*
X147601961Y-70143055D01*
X147480055Y-70264961D01*
X147480052Y-70264965D01*
X147389551Y-70411688D01*
X147389546Y-70411699D01*
X147335319Y-70575347D01*
X147325000Y-70676345D01*
X147325000Y-70713000D01*
X148188500Y-70713000D01*
X148255539Y-70732685D01*
X148301294Y-70785489D01*
X148312500Y-70837000D01*
X148312500Y-70963000D01*
X148438500Y-70963000D01*
X148505539Y-70982685D01*
X148551294Y-71035489D01*
X148562500Y-71087000D01*
X148562500Y-71937999D01*
X148611640Y-71937999D01*
X148611654Y-71937998D01*
X148712652Y-71927680D01*
X148876300Y-71873453D01*
X148876311Y-71873448D01*
X149023033Y-71782948D01*
X149136964Y-71669017D01*
X149198287Y-71635532D01*
X149267979Y-71640516D01*
X149312327Y-71669017D01*
X149426650Y-71783340D01*
X149573484Y-71873908D01*
X149737247Y-71928174D01*
X149838323Y-71938500D01*
X150212856Y-71938499D01*
X150279895Y-71958183D01*
X150300541Y-71974821D01*
X150875071Y-72549395D01*
X150976472Y-72650803D01*
X150976480Y-72650816D01*
X151048521Y-72722857D01*
X151048522Y-72722859D01*
X151088258Y-72762598D01*
X151088262Y-72762601D01*
X151088266Y-72762605D01*
X151088273Y-72762609D01*
X151088284Y-72762620D01*
X151164196Y-72806447D01*
X151164195Y-72806447D01*
X151164198Y-72806448D01*
X151213250Y-72834771D01*
X151261463Y-72885340D01*
X151274683Y-72953948D01*
X151248712Y-73018811D01*
X151238930Y-73029833D01*
X151219471Y-73049293D01*
X151219377Y-73049416D01*
X151214988Y-73055109D01*
X151214909Y-73055274D01*
X151214549Y-73055747D01*
X151213100Y-73054644D01*
X151195051Y-73071376D01*
X151170380Y-73094913D01*
X151169475Y-73095087D01*
X151168800Y-73095714D01*
X151135212Y-73101699D01*
X151101776Y-73108153D01*
X151100921Y-73107811D01*
X151100015Y-73107973D01*
X151068544Y-73094858D01*
X151036905Y-73082202D01*
X151036110Y-73081343D01*
X151035521Y-73081098D01*
X151034454Y-73079554D01*
X151010429Y-73053601D01*
X150989790Y-73022712D01*
X150989786Y-73022707D01*
X150878292Y-72911213D01*
X150878288Y-72911210D01*
X150747185Y-72823609D01*
X150747172Y-72823602D01*
X150601501Y-72763264D01*
X150601489Y-72763261D01*
X150446845Y-72732500D01*
X150446842Y-72732500D01*
X150289158Y-72732500D01*
X150289155Y-72732500D01*
X150134510Y-72763261D01*
X150134498Y-72763264D01*
X149988827Y-72823602D01*
X149988814Y-72823609D01*
X149857711Y-72911210D01*
X149857707Y-72911213D01*
X149746213Y-73022707D01*
X149746210Y-73022711D01*
X149658609Y-73153814D01*
X149658602Y-73153827D01*
X149598264Y-73299498D01*
X149598261Y-73299510D01*
X149567500Y-73454153D01*
X149567500Y-73611846D01*
X149598261Y-73766489D01*
X149598264Y-73766501D01*
X149633982Y-73852732D01*
X149641451Y-73922201D01*
X149610176Y-73984680D01*
X149554016Y-74019260D01*
X149442604Y-74051628D01*
X149442601Y-74051629D01*
X149300049Y-74135934D01*
X149300040Y-74135941D01*
X149182941Y-74253040D01*
X149182935Y-74253048D01*
X149173880Y-74268359D01*
X149122809Y-74316041D01*
X149054067Y-74328542D01*
X148989478Y-74301894D01*
X148961612Y-74270331D01*
X148937947Y-74231965D01*
X148937944Y-74231961D01*
X148816038Y-74110055D01*
X148816034Y-74110052D01*
X148669311Y-74019551D01*
X148669300Y-74019546D01*
X148505652Y-73965319D01*
X148404654Y-73955000D01*
X148355500Y-73955000D01*
X148355500Y-74806000D01*
X148335815Y-74873039D01*
X148283011Y-74918794D01*
X148231500Y-74930000D01*
X147979500Y-74930000D01*
X147912461Y-74910315D01*
X147866706Y-74857511D01*
X147855500Y-74806000D01*
X147855500Y-73955000D01*
X147855499Y-73954999D01*
X147806361Y-73955000D01*
X147806343Y-73955001D01*
X147705347Y-73965319D01*
X147541699Y-74019546D01*
X147541688Y-74019551D01*
X147394965Y-74110052D01*
X147281034Y-74223983D01*
X147219711Y-74257467D01*
X147150019Y-74252483D01*
X147105672Y-74223982D01*
X146991351Y-74109661D01*
X146991350Y-74109660D01*
X146853806Y-74024822D01*
X146844518Y-74019093D01*
X146844513Y-74019091D01*
X146830444Y-74014429D01*
X146680753Y-73964826D01*
X146680751Y-73964825D01*
X146579678Y-73954500D01*
X145981330Y-73954500D01*
X145981312Y-73954501D01*
X145880247Y-73964825D01*
X145716484Y-74019092D01*
X145716474Y-74019097D01*
X145707192Y-74024822D01*
X145639799Y-74043259D01*
X145573136Y-74022333D01*
X145528370Y-73968688D01*
X145518811Y-73932533D01*
X145518497Y-73929616D01*
X145512091Y-73870017D01*
X145503078Y-73845853D01*
X145461797Y-73735171D01*
X145461793Y-73735164D01*
X145375547Y-73619955D01*
X145375544Y-73619952D01*
X145260335Y-73533706D01*
X145260328Y-73533702D01*
X145232459Y-73523308D01*
X145176525Y-73481437D01*
X145152108Y-73415973D01*
X145166960Y-73347700D01*
X145175460Y-73334260D01*
X145308217Y-73151538D01*
X145412048Y-72947758D01*
X145471994Y-72763263D01*
X145482721Y-72730249D01*
X145482721Y-72730248D01*
X145482722Y-72730245D01*
X145518500Y-72504354D01*
X145518500Y-72275646D01*
X145482722Y-72049755D01*
X145482721Y-72049751D01*
X145482721Y-72049750D01*
X145412049Y-71832244D01*
X145386929Y-71782944D01*
X145308217Y-71628462D01*
X145173786Y-71443434D01*
X145012066Y-71281714D01*
X144984871Y-71261955D01*
X144967940Y-71249654D01*
X147325001Y-71249654D01*
X147335319Y-71350652D01*
X147389546Y-71514300D01*
X147389551Y-71514311D01*
X147480052Y-71661034D01*
X147480055Y-71661038D01*
X147601961Y-71782944D01*
X147601965Y-71782947D01*
X147748688Y-71873448D01*
X147748699Y-71873453D01*
X147912347Y-71927680D01*
X148013351Y-71937999D01*
X148062499Y-71937998D01*
X148062500Y-71937998D01*
X148062500Y-71213000D01*
X147325001Y-71213000D01*
X147325001Y-71249654D01*
X144967940Y-71249654D01*
X144927562Y-71220318D01*
X144884896Y-71164988D01*
X144878917Y-71095375D01*
X144911523Y-71033580D01*
X144927556Y-71019685D01*
X145012066Y-70958286D01*
X145173786Y-70796566D01*
X145308217Y-70611538D01*
X145412048Y-70407758D01*
X145441177Y-70318109D01*
X145482721Y-70190249D01*
X145482721Y-70190248D01*
X145482722Y-70190245D01*
X145518500Y-69964354D01*
X145518500Y-69735646D01*
X145482722Y-69509755D01*
X145482721Y-69509751D01*
X145482721Y-69509750D01*
X145412049Y-69292244D01*
X145373458Y-69216505D01*
X145308217Y-69088462D01*
X145173786Y-68903434D01*
X145012066Y-68741714D01*
X144827038Y-68607283D01*
X144623255Y-68503450D01*
X144405748Y-68432778D01*
X144236326Y-68405944D01*
X144179854Y-68397000D01*
X143856146Y-68397000D01*
X143780849Y-68408926D01*
X143630253Y-68432778D01*
X143630250Y-68432778D01*
X143412744Y-68503450D01*
X143208961Y-68607283D01*
X143130233Y-68664483D01*
X143023934Y-68741714D01*
X143023932Y-68741716D01*
X143023931Y-68741716D01*
X142862216Y-68903431D01*
X142862216Y-68903432D01*
X142862214Y-68903434D01*
X142825296Y-68954247D01*
X142727783Y-69088461D01*
X142623950Y-69292244D01*
X142553278Y-69509750D01*
X142553278Y-69509753D01*
X142534068Y-69631041D01*
X142517500Y-69735646D01*
X142517500Y-69964354D01*
X142531397Y-70052093D01*
X142553278Y-70190246D01*
X142553278Y-70190249D01*
X142623950Y-70407755D01*
X142685719Y-70528983D01*
X142727783Y-70611538D01*
X142862214Y-70796566D01*
X143023934Y-70958286D01*
X143057983Y-70983024D01*
X143108438Y-71019682D01*
X143151103Y-71075013D01*
X143157082Y-71144626D01*
X143124476Y-71206421D01*
X143108438Y-71220318D01*
X143023932Y-71281715D01*
X142862216Y-71443431D01*
X142862216Y-71443432D01*
X142862214Y-71443434D01*
X142856540Y-71451244D01*
X142727783Y-71628461D01*
X142623950Y-71832244D01*
X142553278Y-72049750D01*
X142553278Y-72049753D01*
X142545398Y-72099505D01*
X142517500Y-72275646D01*
X142517500Y-72504354D01*
X142527384Y-72566758D01*
X142553278Y-72730246D01*
X142553278Y-72730249D01*
X142623950Y-72947755D01*
X142705677Y-73108153D01*
X142727783Y-73151538D01*
X142860525Y-73334242D01*
X142884005Y-73400046D01*
X142868180Y-73468100D01*
X142818074Y-73516795D01*
X142803541Y-73523308D01*
X142775670Y-73533703D01*
X142775664Y-73533706D01*
X142660455Y-73619952D01*
X142660452Y-73619955D01*
X142574206Y-73735164D01*
X142574202Y-73735171D01*
X142523908Y-73870017D01*
X142517501Y-73929616D01*
X142517500Y-73929629D01*
X142517500Y-75930370D01*
X142517501Y-75930376D01*
X142523908Y-75989983D01*
X142574202Y-76124828D01*
X142574206Y-76124835D01*
X142660452Y-76240044D01*
X142660455Y-76240047D01*
X142775664Y-76326293D01*
X142775671Y-76326297D01*
X142910517Y-76376591D01*
X142910516Y-76376591D01*
X142917444Y-76377335D01*
X142970127Y-76383000D01*
X145065872Y-76382999D01*
X145125483Y-76376591D01*
X145260331Y-76326296D01*
X145375546Y-76240046D01*
X145461796Y-76124831D01*
X145512091Y-75989983D01*
X145518500Y-75930373D01*
X145518499Y-75930357D01*
X145518811Y-75927465D01*
X145545549Y-75862914D01*
X145602941Y-75823065D01*
X145672766Y-75820570D01*
X145707197Y-75835180D01*
X145716477Y-75840904D01*
X145716478Y-75840904D01*
X145716484Y-75840908D01*
X145880247Y-75895174D01*
X145981323Y-75905500D01*
X146355079Y-75905499D01*
X146422118Y-75925183D01*
X146442747Y-75941804D01*
X148477539Y-77975979D01*
X148511033Y-78037298D01*
X148506059Y-78106990D01*
X148464196Y-78162930D01*
X148398736Y-78187357D01*
X148370473Y-78186147D01*
X148223884Y-78162930D01*
X148183287Y-78156500D01*
X147970713Y-78156500D01*
X147930116Y-78162930D01*
X147760760Y-78189753D01*
X147558585Y-78255444D01*
X147369179Y-78351951D01*
X147197213Y-78476890D01*
X147046890Y-78627213D01*
X146921949Y-78799182D01*
X146917484Y-78807946D01*
X146869509Y-78858742D01*
X146801688Y-78875536D01*
X146735553Y-78852998D01*
X146696516Y-78807946D01*
X146692050Y-78799182D01*
X146567109Y-78627213D01*
X146416786Y-78476890D01*
X146244820Y-78351951D01*
X146055414Y-78255444D01*
X146055413Y-78255443D01*
X146055412Y-78255443D01*
X145853243Y-78189754D01*
X145853241Y-78189753D01*
X145853240Y-78189753D01*
X145683884Y-78162930D01*
X145643287Y-78156500D01*
X145430713Y-78156500D01*
X145390116Y-78162930D01*
X145220760Y-78189753D01*
X145018585Y-78255444D01*
X144829179Y-78351951D01*
X144657213Y-78476890D01*
X144506890Y-78627213D01*
X144381951Y-78799179D01*
X144285444Y-78988585D01*
X144219753Y-79190760D01*
X144218291Y-79199993D01*
X144186500Y-79400713D01*
X144186500Y-79613287D01*
X144196534Y-79676644D01*
X144209466Y-79758292D01*
X144219754Y-79823243D01*
X144282949Y-80017737D01*
X144285444Y-80025414D01*
X144381951Y-80214820D01*
X144506890Y-80386786D01*
X144620430Y-80500326D01*
X144653915Y-80561649D01*
X144648931Y-80631341D01*
X144607059Y-80687274D01*
X144576083Y-80704189D01*
X144444669Y-80753203D01*
X144444664Y-80753206D01*
X144329455Y-80839452D01*
X144329452Y-80839455D01*
X144243206Y-80954664D01*
X144243202Y-80954671D01*
X144192908Y-81089517D01*
X144186501Y-81149116D01*
X144186500Y-81149135D01*
X144186500Y-82944870D01*
X144186501Y-82944876D01*
X144192908Y-83004483D01*
X144243202Y-83139328D01*
X144243206Y-83139335D01*
X144329452Y-83254544D01*
X144329455Y-83254547D01*
X144444664Y-83340793D01*
X144444671Y-83340797D01*
X144579517Y-83391091D01*
X144579516Y-83391091D01*
X144586444Y-83391835D01*
X144639127Y-83397500D01*
X146434872Y-83397499D01*
X146494483Y-83391091D01*
X146629331Y-83340796D01*
X146744546Y-83254546D01*
X146830796Y-83139331D01*
X146879810Y-83007916D01*
X146921681Y-82951984D01*
X146987145Y-82927566D01*
X147055418Y-82942417D01*
X147083673Y-82963569D01*
X147197213Y-83077109D01*
X147369179Y-83202048D01*
X147369181Y-83202049D01*
X147369184Y-83202051D01*
X147558588Y-83298557D01*
X147760757Y-83364246D01*
X147970713Y-83397500D01*
X147970714Y-83397500D01*
X148183286Y-83397500D01*
X148183287Y-83397500D01*
X148393243Y-83364246D01*
X148595412Y-83298557D01*
X148784816Y-83202051D01*
X148871138Y-83139335D01*
X148956786Y-83077109D01*
X148956788Y-83077106D01*
X148956792Y-83077104D01*
X149107104Y-82926792D01*
X149107106Y-82926788D01*
X149107109Y-82926786D01*
X149232048Y-82754820D01*
X149232051Y-82754816D01*
X149236793Y-82745508D01*
X149284763Y-82694711D01*
X149352583Y-82677911D01*
X149418719Y-82700445D01*
X149457763Y-82745500D01*
X149462377Y-82754555D01*
X149587272Y-82926459D01*
X149587276Y-82926464D01*
X149737535Y-83076723D01*
X149737540Y-83076727D01*
X149909442Y-83201620D01*
X150098782Y-83298095D01*
X150300871Y-83363757D01*
X150367000Y-83374231D01*
X150367000Y-82480012D01*
X150424007Y-82512925D01*
X150551174Y-82547000D01*
X150682826Y-82547000D01*
X150809993Y-82512925D01*
X150867000Y-82480012D01*
X150867000Y-83374230D01*
X150933126Y-83363757D01*
X150933129Y-83363757D01*
X151135217Y-83298095D01*
X151324557Y-83201620D01*
X151496459Y-83076727D01*
X151496464Y-83076723D01*
X151646723Y-82926464D01*
X151646727Y-82926459D01*
X151771620Y-82754558D01*
X151776232Y-82745507D01*
X151824205Y-82694709D01*
X151892025Y-82677912D01*
X151958161Y-82700447D01*
X151997204Y-82745504D01*
X152001949Y-82754817D01*
X152126890Y-82926786D01*
X152277213Y-83077109D01*
X152449179Y-83202048D01*
X152449181Y-83202049D01*
X152449184Y-83202051D01*
X152638588Y-83298557D01*
X152840757Y-83364246D01*
X153050713Y-83397500D01*
X153050714Y-83397500D01*
X153263286Y-83397500D01*
X153263287Y-83397500D01*
X153473243Y-83364246D01*
X153675412Y-83298557D01*
X153864816Y-83202051D01*
X153951138Y-83139335D01*
X154036786Y-83077109D01*
X154036788Y-83077106D01*
X154036792Y-83077104D01*
X154187104Y-82926792D01*
X154187106Y-82926788D01*
X154187109Y-82926786D01*
X154312048Y-82754820D01*
X154312047Y-82754820D01*
X154312051Y-82754816D01*
X154316514Y-82746054D01*
X154364488Y-82695259D01*
X154432308Y-82678463D01*
X154498444Y-82700999D01*
X154537486Y-82746056D01*
X154541951Y-82754820D01*
X154666890Y-82926786D01*
X154817213Y-83077109D01*
X154989179Y-83202048D01*
X154989181Y-83202049D01*
X154989184Y-83202051D01*
X155178588Y-83298557D01*
X155380757Y-83364246D01*
X155590713Y-83397500D01*
X155590714Y-83397500D01*
X155803286Y-83397500D01*
X155803287Y-83397500D01*
X156013243Y-83364246D01*
X156215412Y-83298557D01*
X156404816Y-83202051D01*
X156491138Y-83139335D01*
X156576786Y-83077109D01*
X156576788Y-83077106D01*
X156576792Y-83077104D01*
X156727104Y-82926792D01*
X156727106Y-82926788D01*
X156727109Y-82926786D01*
X156852048Y-82754820D01*
X156852047Y-82754820D01*
X156852051Y-82754816D01*
X156856514Y-82746054D01*
X156904488Y-82695259D01*
X156972308Y-82678463D01*
X157038444Y-82700999D01*
X157077486Y-82746056D01*
X157081951Y-82754820D01*
X157206890Y-82926786D01*
X157357213Y-83077109D01*
X157529179Y-83202048D01*
X157529181Y-83202049D01*
X157529184Y-83202051D01*
X157718588Y-83298557D01*
X157920757Y-83364246D01*
X158130713Y-83397500D01*
X158130714Y-83397500D01*
X158343286Y-83397500D01*
X158343287Y-83397500D01*
X158553243Y-83364246D01*
X158755412Y-83298557D01*
X158944816Y-83202051D01*
X159031138Y-83139335D01*
X159116786Y-83077109D01*
X159116788Y-83077106D01*
X159116792Y-83077104D01*
X159267104Y-82926792D01*
X159267106Y-82926788D01*
X159267109Y-82926786D01*
X159392048Y-82754820D01*
X159392047Y-82754820D01*
X159392051Y-82754816D01*
X159396514Y-82746054D01*
X159444488Y-82695259D01*
X159512308Y-82678463D01*
X159578444Y-82700999D01*
X159617486Y-82746056D01*
X159621951Y-82754820D01*
X159746890Y-82926786D01*
X159897213Y-83077109D01*
X160069179Y-83202048D01*
X160069181Y-83202049D01*
X160069184Y-83202051D01*
X160258588Y-83298557D01*
X160460757Y-83364246D01*
X160670713Y-83397500D01*
X160670714Y-83397500D01*
X160883286Y-83397500D01*
X160883287Y-83397500D01*
X161093243Y-83364246D01*
X161295412Y-83298557D01*
X161484816Y-83202051D01*
X161571138Y-83139335D01*
X161656786Y-83077109D01*
X161656788Y-83077106D01*
X161656792Y-83077104D01*
X161807104Y-82926792D01*
X161807106Y-82926788D01*
X161807109Y-82926786D01*
X161932048Y-82754820D01*
X161932047Y-82754820D01*
X161932051Y-82754816D01*
X162028557Y-82565412D01*
X162094246Y-82363243D01*
X162127500Y-82153287D01*
X162127500Y-81940713D01*
X162094246Y-81730757D01*
X162028557Y-81528588D01*
X161932051Y-81339184D01*
X161932049Y-81339181D01*
X161932048Y-81339179D01*
X161807109Y-81167213D01*
X161656786Y-81016890D01*
X161484820Y-80891951D01*
X161484115Y-80891591D01*
X161476054Y-80887485D01*
X161425259Y-80839512D01*
X161408463Y-80771692D01*
X161430999Y-80705556D01*
X161476054Y-80666515D01*
X161484816Y-80662051D01*
X161574554Y-80596853D01*
X161656786Y-80537109D01*
X161656788Y-80537106D01*
X161656792Y-80537104D01*
X161807104Y-80386792D01*
X161807106Y-80386788D01*
X161807109Y-80386786D01*
X161932048Y-80214820D01*
X161932049Y-80214819D01*
X161932051Y-80214816D01*
X162028557Y-80025412D01*
X162094246Y-79823243D01*
X162127500Y-79613287D01*
X162127500Y-79400713D01*
X162094246Y-79190757D01*
X162028557Y-78988588D01*
X161932051Y-78799184D01*
X161932049Y-78799181D01*
X161932048Y-78799179D01*
X161807109Y-78627213D01*
X161656786Y-78476890D01*
X161484820Y-78351951D01*
X161295414Y-78255444D01*
X161295413Y-78255443D01*
X161295412Y-78255443D01*
X161093243Y-78189754D01*
X161093241Y-78189753D01*
X161093240Y-78189753D01*
X160923884Y-78162930D01*
X160883287Y-78156500D01*
X160670713Y-78156500D01*
X160630116Y-78162930D01*
X160460760Y-78189753D01*
X160258585Y-78255444D01*
X160069179Y-78351951D01*
X159897213Y-78476890D01*
X159746890Y-78627213D01*
X159621949Y-78799182D01*
X159617484Y-78807946D01*
X159569509Y-78858742D01*
X159501688Y-78875536D01*
X159435553Y-78852998D01*
X159396516Y-78807946D01*
X159392050Y-78799182D01*
X159267109Y-78627213D01*
X159116786Y-78476890D01*
X158944820Y-78351951D01*
X158755414Y-78255444D01*
X158755413Y-78255443D01*
X158755412Y-78255443D01*
X158553243Y-78189754D01*
X158553241Y-78189753D01*
X158553240Y-78189753D01*
X158383884Y-78162930D01*
X158343287Y-78156500D01*
X158130713Y-78156500D01*
X158090116Y-78162930D01*
X157920760Y-78189753D01*
X157718585Y-78255444D01*
X157529180Y-78351951D01*
X157357208Y-78476895D01*
X157355470Y-78478380D01*
X157354674Y-78478736D01*
X157353267Y-78479759D01*
X157353052Y-78479463D01*
X157291707Y-78506946D01*
X157222622Y-78496504D01*
X157187228Y-78471730D01*
X156872253Y-78156500D01*
X156708361Y-77992474D01*
X156702581Y-77986689D01*
X156702520Y-77986584D01*
X156646364Y-77930428D01*
X156646362Y-77930426D01*
X156646361Y-77930424D01*
X156590914Y-77874933D01*
X156590913Y-77874932D01*
X156590911Y-77874930D01*
X156590907Y-77874927D01*
X156590713Y-77874778D01*
X156522181Y-77835212D01*
X156522129Y-77835182D01*
X156454011Y-77795817D01*
X156453891Y-77795784D01*
X156453784Y-77795723D01*
X156453639Y-77795684D01*
X156377889Y-77775387D01*
X156377841Y-77775374D01*
X156301295Y-77754830D01*
X156301069Y-77754800D01*
X156301057Y-77754800D01*
X156223461Y-77754800D01*
X156223294Y-77754799D01*
X156143186Y-77754767D01*
X156143185Y-77754767D01*
X156135361Y-77754764D01*
X156134813Y-77754800D01*
X156044056Y-77754800D01*
X155977017Y-77735115D01*
X155956383Y-77718490D01*
X154480292Y-76242690D01*
X154446801Y-76181370D01*
X154451779Y-76111678D01*
X154493645Y-76055740D01*
X154559107Y-76031317D01*
X154567965Y-76031000D01*
X154949008Y-76031000D01*
X154977657Y-76039412D01*
X155006923Y-76045356D01*
X155012890Y-76049758D01*
X155016047Y-76050685D01*
X155035467Y-76066114D01*
X155036090Y-76066720D01*
X155082403Y-76113010D01*
X155082428Y-76113024D01*
X155082453Y-76113049D01*
X155085565Y-76114844D01*
X155085566Y-76114845D01*
X155097485Y-76121720D01*
X155153298Y-76153917D01*
X155153309Y-76153929D01*
X155153311Y-76153925D01*
X155219354Y-76192034D01*
X155219363Y-76192036D01*
X155219402Y-76192052D01*
X155219412Y-76192058D01*
X155295233Y-76212346D01*
X155370675Y-76232541D01*
X155371951Y-76232903D01*
X155372086Y-76232918D01*
X155372091Y-76232920D01*
X155372095Y-76232919D01*
X155372144Y-76232925D01*
X155372153Y-76232928D01*
X155372165Y-76232927D01*
X155372346Y-76232949D01*
X155373715Y-76232927D01*
X155451361Y-76232900D01*
X155530206Y-76232881D01*
X155530217Y-76232877D01*
X155530253Y-76232873D01*
X155530268Y-76232873D01*
X155607459Y-76212160D01*
X155682923Y-76191919D01*
X155682931Y-76191914D01*
X155682970Y-76191897D01*
X155682981Y-76191895D01*
X155720053Y-76170473D01*
X155730677Y-76164335D01*
X155792715Y-76147700D01*
X155814844Y-76147700D01*
X155814845Y-76147699D01*
X155969497Y-76116937D01*
X156115179Y-76056594D01*
X156246289Y-75968989D01*
X156357789Y-75857489D01*
X156445394Y-75726379D01*
X156505737Y-75580697D01*
X156536500Y-75426042D01*
X156536500Y-75268358D01*
X156536500Y-75268355D01*
X156536499Y-75268353D01*
X156505737Y-75113703D01*
X156486271Y-75066708D01*
X156445397Y-74968027D01*
X156445390Y-74968014D01*
X156357789Y-74836911D01*
X156357786Y-74836907D01*
X156246292Y-74725413D01*
X156246288Y-74725410D01*
X156115185Y-74637809D01*
X156115172Y-74637802D01*
X155969501Y-74577464D01*
X155969489Y-74577461D01*
X155814845Y-74546700D01*
X155814842Y-74546700D01*
X155657158Y-74546700D01*
X155657155Y-74546700D01*
X155502510Y-74577461D01*
X155502498Y-74577464D01*
X155356827Y-74637802D01*
X155356814Y-74637809D01*
X155228726Y-74723395D01*
X155228721Y-74723399D01*
X155225711Y-74725411D01*
X155195802Y-74755319D01*
X155195737Y-74755383D01*
X155194440Y-74756681D01*
X155133117Y-74790166D01*
X155106759Y-74793000D01*
X154348500Y-74793000D01*
X154281461Y-74773315D01*
X154235706Y-74720511D01*
X154224500Y-74669000D01*
X154224500Y-74667000D01*
X154244185Y-74599961D01*
X154296989Y-74554206D01*
X154348500Y-74543000D01*
X155058512Y-74543000D01*
X155058613Y-74542901D01*
X155047521Y-74458653D01*
X155045418Y-74450803D01*
X155048669Y-74449931D01*
X155042866Y-74395995D01*
X155045991Y-74385350D01*
X155045418Y-74385197D01*
X155047521Y-74377346D01*
X155058626Y-74293000D01*
X155028971Y-74293000D01*
X155015341Y-74288997D01*
X155001160Y-74289841D01*
X154982482Y-74279349D01*
X154961932Y-74273315D01*
X154952630Y-74262580D01*
X154940243Y-74255622D01*
X154930202Y-74236697D01*
X154916177Y-74220511D01*
X154914155Y-74206450D01*
X154907497Y-74193901D01*
X154909281Y-74172555D01*
X154906233Y-74151353D01*
X154912247Y-74137074D01*
X154913318Y-74124274D01*
X154930603Y-74093503D01*
X154932138Y-74091503D01*
X154988571Y-74050306D01*
X155030506Y-74043000D01*
X155058626Y-74043000D01*
X155047521Y-73958659D01*
X155045418Y-73950807D01*
X155049041Y-73949835D01*
X155042919Y-73897884D01*
X155046495Y-73885484D01*
X155045905Y-73885326D01*
X155048008Y-73877475D01*
X155048008Y-73877474D01*
X155048009Y-73877472D01*
X155062500Y-73767401D01*
X155062499Y-73568600D01*
X155057906Y-73533706D01*
X155054210Y-73505630D01*
X155064976Y-73436594D01*
X155089465Y-73401768D01*
X157474520Y-71016716D01*
X157553577Y-70879784D01*
X157594501Y-70727057D01*
X157594501Y-70568942D01*
X157594501Y-70561347D01*
X157594500Y-70561329D01*
X157594500Y-70440998D01*
X157614185Y-70373959D01*
X157666989Y-70328204D01*
X157713388Y-70318109D01*
X157714500Y-70316998D01*
X157714500Y-69466000D01*
X157734185Y-69398961D01*
X157786989Y-69353206D01*
X157838500Y-69342000D01*
X158090500Y-69342000D01*
X158157539Y-69361685D01*
X158203294Y-69414489D01*
X158214500Y-69466000D01*
X158214500Y-70316999D01*
X158263640Y-70316999D01*
X158263654Y-70316998D01*
X158364652Y-70306680D01*
X158528300Y-70252453D01*
X158528311Y-70252448D01*
X158675033Y-70161948D01*
X158788964Y-70048017D01*
X158850287Y-70014532D01*
X158919979Y-70019516D01*
X158964327Y-70048017D01*
X159078650Y-70162340D01*
X159225484Y-70252908D01*
X159389247Y-70307174D01*
X159490323Y-70317500D01*
X160088676Y-70317499D01*
X160088684Y-70317498D01*
X160088687Y-70317498D01*
X160144030Y-70311844D01*
X160189753Y-70307174D01*
X160353516Y-70252908D01*
X160433405Y-70203631D01*
X160500796Y-70185192D01*
X160567460Y-70206114D01*
X160612230Y-70259756D01*
X160622501Y-70309171D01*
X160622501Y-70469376D01*
X160628908Y-70528983D01*
X160679202Y-70663828D01*
X160679206Y-70663835D01*
X160765452Y-70779044D01*
X160765455Y-70779047D01*
X160880664Y-70865293D01*
X160880669Y-70865296D01*
X160908539Y-70875690D01*
X160964473Y-70917561D01*
X160988891Y-70983024D01*
X160974040Y-71051298D01*
X160965526Y-71064756D01*
X160963829Y-71067093D01*
X160832783Y-71247461D01*
X160728950Y-71451244D01*
X160658278Y-71668750D01*
X160658278Y-71668753D01*
X160622500Y-71894646D01*
X160622500Y-72123353D01*
X160658278Y-72349246D01*
X160658278Y-72349249D01*
X160728950Y-72566755D01*
X160808487Y-72722855D01*
X160832783Y-72770538D01*
X160967214Y-72955566D01*
X161128934Y-73117286D01*
X161179220Y-73153821D01*
X161213438Y-73178682D01*
X161256103Y-73234013D01*
X161262082Y-73303626D01*
X161229476Y-73365421D01*
X161213438Y-73379318D01*
X161128932Y-73440715D01*
X160967216Y-73602431D01*
X160967216Y-73602432D01*
X160967214Y-73602434D01*
X160909480Y-73681896D01*
X160832783Y-73787461D01*
X160728950Y-73991244D01*
X160658278Y-74208750D01*
X160658278Y-74208753D01*
X160631555Y-74377475D01*
X160622500Y-74434646D01*
X160622500Y-74663354D01*
X160623394Y-74669000D01*
X160658278Y-74889246D01*
X160658278Y-74889249D01*
X160728950Y-75106755D01*
X160811289Y-75268353D01*
X160832783Y-75310538D01*
X160967214Y-75495566D01*
X161128934Y-75657286D01*
X161313962Y-75791717D01*
X161467260Y-75869826D01*
X161517744Y-75895549D01*
X161735251Y-75966221D01*
X161735252Y-75966221D01*
X161735255Y-75966222D01*
X161961146Y-76002000D01*
X161961147Y-76002000D01*
X162284853Y-76002000D01*
X162284854Y-76002000D01*
X162510745Y-75966222D01*
X162510748Y-75966221D01*
X162510749Y-75966221D01*
X162728255Y-75895549D01*
X162728255Y-75895548D01*
X162728258Y-75895548D01*
X162932038Y-75791717D01*
X163117066Y-75657286D01*
X163278786Y-75495566D01*
X163413217Y-75310538D01*
X163503015Y-75134298D01*
X163550989Y-75083503D01*
X163618810Y-75066708D01*
X163684945Y-75089245D01*
X163728397Y-75143960D01*
X163737500Y-75190594D01*
X163737500Y-78668234D01*
X163717815Y-78735273D01*
X163716602Y-78737125D01*
X163628609Y-78868814D01*
X163628602Y-78868827D01*
X163568264Y-79014498D01*
X163568261Y-79014510D01*
X163537500Y-79169153D01*
X163537500Y-79326846D01*
X163568261Y-79481489D01*
X163568264Y-79481501D01*
X163628602Y-79627172D01*
X163628609Y-79627185D01*
X163716210Y-79758288D01*
X163716213Y-79758292D01*
X163827707Y-79869786D01*
X163827711Y-79869789D01*
X163958814Y-79957390D01*
X163958827Y-79957397D01*
X164078581Y-80007000D01*
X164104503Y-80017737D01*
X164259153Y-80048499D01*
X164259156Y-80048500D01*
X164259158Y-80048500D01*
X164416844Y-80048500D01*
X164416845Y-80048499D01*
X164571497Y-80017737D01*
X164717179Y-79957394D01*
X164848289Y-79869789D01*
X164959789Y-79758289D01*
X165047394Y-79627179D01*
X165107737Y-79481497D01*
X165138500Y-79326842D01*
X165138500Y-79169158D01*
X165138500Y-79169155D01*
X165138499Y-79169153D01*
X165126116Y-79106901D01*
X165107737Y-79014503D01*
X165097003Y-78988588D01*
X165047397Y-78868827D01*
X165047390Y-78868814D01*
X164959398Y-78737125D01*
X164938520Y-78670447D01*
X164938500Y-78668234D01*
X164938500Y-74313059D01*
X164938501Y-74313046D01*
X164938501Y-74144945D01*
X164938501Y-74144943D01*
X164897577Y-73992215D01*
X164897576Y-73992214D01*
X164897576Y-73992212D01*
X164897574Y-73992209D01*
X164861443Y-73929629D01*
X164861441Y-73929627D01*
X164818520Y-73855284D01*
X164706716Y-73743480D01*
X164706715Y-73743479D01*
X164702385Y-73739149D01*
X164702374Y-73739139D01*
X163573953Y-72610718D01*
X163540468Y-72549395D01*
X163543703Y-72484719D01*
X163587722Y-72349245D01*
X163623500Y-72123354D01*
X163623500Y-71894646D01*
X163587722Y-71668755D01*
X163587721Y-71668751D01*
X163587721Y-71668750D01*
X163517049Y-71451244D01*
X163465795Y-71350652D01*
X163413217Y-71247462D01*
X163280472Y-71064755D01*
X163256994Y-70998953D01*
X163272819Y-70930899D01*
X163322925Y-70882204D01*
X163337455Y-70875692D01*
X163365331Y-70865296D01*
X163480546Y-70779046D01*
X163566796Y-70663831D01*
X163617091Y-70528983D01*
X163623500Y-70469373D01*
X163623499Y-68468628D01*
X163617091Y-68409017D01*
X163605084Y-68376825D01*
X163566797Y-68274171D01*
X163566793Y-68274164D01*
X163480547Y-68158955D01*
X163480544Y-68158952D01*
X163365335Y-68072706D01*
X163365328Y-68072702D01*
X163230482Y-68022408D01*
X163230483Y-68022408D01*
X163170883Y-68016001D01*
X163170881Y-68016000D01*
X163170873Y-68016000D01*
X163170864Y-68016000D01*
X161075129Y-68016000D01*
X161075123Y-68016001D01*
X161015516Y-68022408D01*
X160880671Y-68072702D01*
X160880664Y-68072706D01*
X160765455Y-68158952D01*
X160765452Y-68158955D01*
X160679206Y-68274164D01*
X160679202Y-68274171D01*
X160628908Y-68409018D01*
X160628840Y-68409307D01*
X160628725Y-68409507D01*
X160626198Y-68416285D01*
X160625099Y-68415875D01*
X160594266Y-68470022D01*
X160532354Y-68502407D01*
X160462763Y-68496178D01*
X160443070Y-68486329D01*
X160383586Y-68449639D01*
X160353518Y-68431093D01*
X160353513Y-68431091D01*
X160352069Y-68430612D01*
X160189753Y-68376826D01*
X160189751Y-68376825D01*
X160088678Y-68366500D01*
X159490330Y-68366500D01*
X159490312Y-68366501D01*
X159389247Y-68376825D01*
X159225484Y-68431092D01*
X159225481Y-68431093D01*
X159078651Y-68521659D01*
X158964327Y-68635983D01*
X158903004Y-68669467D01*
X158833312Y-68664483D01*
X158788965Y-68635982D01*
X158675038Y-68522055D01*
X158675034Y-68522052D01*
X158528311Y-68431551D01*
X158528298Y-68431545D01*
X158483460Y-68416688D01*
X158426015Y-68376916D01*
X158399191Y-68312400D01*
X158411506Y-68243624D01*
X158434775Y-68211308D01*
X161453456Y-65192480D01*
X161520866Y-65125069D01*
X161523183Y-65123171D01*
X161528102Y-65117924D01*
X161529458Y-65116522D01*
X161529518Y-65116417D01*
X161529520Y-65116416D01*
X161529525Y-65116406D01*
X161529528Y-65116404D01*
X161554875Y-65072500D01*
X161608577Y-64979484D01*
X161608579Y-64979475D01*
X161608582Y-64979471D01*
X161627573Y-64908589D01*
X161649500Y-64826757D01*
X161649500Y-64826750D01*
X161649502Y-64826743D01*
X161649500Y-64729762D01*
X161649500Y-64475601D01*
X161669185Y-64408562D01*
X161717206Y-64365116D01*
X161730610Y-64358287D01*
X161896219Y-64237966D01*
X162040966Y-64093219D01*
X162040968Y-64093215D01*
X162040971Y-64093213D01*
X162112481Y-63994786D01*
X162161287Y-63927610D01*
X162254220Y-63745219D01*
X162317477Y-63550534D01*
X162349500Y-63348352D01*
X162349500Y-63143648D01*
X162331195Y-63028076D01*
X162317477Y-62941465D01*
X162255242Y-62749926D01*
X162254220Y-62746781D01*
X162254218Y-62746778D01*
X162254218Y-62746776D01*
X162217403Y-62674523D01*
X162161287Y-62564390D01*
X162150283Y-62549244D01*
X162040971Y-62398786D01*
X161896213Y-62254028D01*
X161730613Y-62133715D01*
X161730612Y-62133714D01*
X161730610Y-62133713D01*
X161673653Y-62104691D01*
X161548223Y-62040781D01*
X161353534Y-61977522D01*
X161178995Y-61949878D01*
X161151352Y-61945500D01*
X160946648Y-61945500D01*
X160922329Y-61949351D01*
X160744465Y-61977522D01*
X160549776Y-62040781D01*
X160367386Y-62133715D01*
X160201786Y-62254028D01*
X160057028Y-62398786D01*
X159936715Y-62564386D01*
X159843781Y-62746776D01*
X159780522Y-62941465D01*
X159748500Y-63143648D01*
X159748500Y-63348351D01*
X159780522Y-63550534D01*
X159843781Y-63745223D01*
X159875086Y-63806661D01*
X159936585Y-63927359D01*
X159936715Y-63927613D01*
X160057028Y-64093213D01*
X160057034Y-64093219D01*
X160201781Y-64237966D01*
X160367390Y-64358287D01*
X160367401Y-64358293D01*
X160370794Y-64360372D01*
X160417672Y-64412181D01*
X160429099Y-64481110D01*
X160401445Y-64545274D01*
X160393693Y-64553782D01*
X158290901Y-66656679D01*
X158229579Y-66690166D01*
X158203218Y-66693000D01*
X157512410Y-66693000D01*
X157562037Y-66607044D01*
X157591000Y-66498952D01*
X157591000Y-66387048D01*
X157562037Y-66278956D01*
X157512410Y-66193000D01*
X158265427Y-66193000D01*
X158263299Y-66179566D01*
X158263296Y-66179553D01*
X158208580Y-66011152D01*
X158208578Y-66011149D01*
X158128186Y-65853370D01*
X158024100Y-65710110D01*
X157898889Y-65584899D01*
X157755629Y-65480813D01*
X157597850Y-65400421D01*
X157597847Y-65400419D01*
X157429439Y-65345701D01*
X157254544Y-65318000D01*
X157166000Y-65318000D01*
X157166000Y-66018000D01*
X156666000Y-66018000D01*
X156666000Y-65318000D01*
X156577456Y-65318000D01*
X156402562Y-65345700D01*
X156353316Y-65361701D01*
X156283475Y-65363695D01*
X156223643Y-65327613D01*
X156192816Y-65264912D01*
X156191000Y-65243769D01*
X156191000Y-64925172D01*
X156190999Y-64925155D01*
X156184598Y-64865627D01*
X156184596Y-64865620D01*
X156134354Y-64730913D01*
X156134350Y-64730906D01*
X156048190Y-64615812D01*
X156048187Y-64615809D01*
X155946565Y-64539734D01*
X155823807Y-64488887D01*
X155798380Y-64479403D01*
X155798372Y-64479401D01*
X155738844Y-64473000D01*
X155691000Y-64473000D01*
X155691000Y-64474372D01*
X155687206Y-64487291D01*
X155688168Y-64500723D01*
X155677554Y-64520163D01*
X155671315Y-64541411D01*
X155661139Y-64550228D01*
X155654686Y-64562048D01*
X155635247Y-64572664D01*
X155618511Y-64587166D01*
X155605184Y-64589082D01*
X155593365Y-64595537D01*
X155571273Y-64593958D01*
X155549353Y-64597110D01*
X155535584Y-64591407D01*
X155523673Y-64590556D01*
X155492695Y-64573643D01*
X155490695Y-64572146D01*
X155448821Y-64516215D01*
X155441027Y-64473027D01*
X155441000Y-64473000D01*
X155393166Y-64473000D01*
X155331595Y-64479619D01*
X155305088Y-64479619D01*
X155293279Y-64478349D01*
X155238873Y-64472500D01*
X155238867Y-64472500D01*
X154941841Y-64472500D01*
X154874802Y-64452815D01*
X154829047Y-64400011D01*
X154819103Y-64330853D01*
X154821970Y-64316876D01*
X154822000Y-64316656D01*
X154822000Y-63825765D01*
X154841685Y-63758726D01*
X154842898Y-63756874D01*
X154930890Y-63625185D01*
X154930890Y-63625184D01*
X154930894Y-63625179D01*
X154991237Y-63479497D01*
X155022000Y-63324842D01*
X155022000Y-63167158D01*
X155022000Y-63167155D01*
X155021999Y-63167153D01*
X155017330Y-63143682D01*
X155013216Y-63123000D01*
X155421138Y-63123000D01*
X156224012Y-63123000D01*
X156206795Y-63132940D01*
X156150940Y-63188795D01*
X156111444Y-63257204D01*
X156091000Y-63333504D01*
X156091000Y-63412496D01*
X156111444Y-63488796D01*
X156150940Y-63557205D01*
X156206795Y-63613060D01*
X156224012Y-63623000D01*
X155421138Y-63623000D01*
X155429430Y-63664690D01*
X155429430Y-63664692D01*
X155504807Y-63846671D01*
X155504814Y-63846684D01*
X155614248Y-64010462D01*
X155614251Y-64010466D01*
X155753533Y-64149748D01*
X155753537Y-64149751D01*
X155917315Y-64259185D01*
X155917327Y-64259191D01*
X156055859Y-64316573D01*
X156099306Y-64334569D01*
X156099318Y-64334572D01*
X156292504Y-64372999D01*
X156292508Y-64373000D01*
X156341000Y-64373000D01*
X156341000Y-63670185D01*
X156351504Y-63673000D01*
X156830496Y-63673000D01*
X156841000Y-63670185D01*
X156841000Y-64373000D01*
X156889492Y-64373000D01*
X156889495Y-64372999D01*
X157082681Y-64334572D01*
X157082693Y-64334569D01*
X157264671Y-64259192D01*
X157264684Y-64259185D01*
X157428462Y-64149751D01*
X157428466Y-64149748D01*
X157567748Y-64010466D01*
X157567751Y-64010462D01*
X157677185Y-63846684D01*
X157677192Y-63846671D01*
X157752569Y-63664692D01*
X157752569Y-63664690D01*
X157760862Y-63623000D01*
X156957988Y-63623000D01*
X156975205Y-63613060D01*
X157031060Y-63557205D01*
X157070556Y-63488796D01*
X157091000Y-63412496D01*
X157091000Y-63333504D01*
X157070556Y-63257204D01*
X157031060Y-63188795D01*
X156975205Y-63132940D01*
X156957988Y-63123000D01*
X157760862Y-63123000D01*
X157752569Y-63081309D01*
X157752569Y-63081307D01*
X157677192Y-62899328D01*
X157677185Y-62899315D01*
X157567751Y-62735537D01*
X157567748Y-62735533D01*
X157428466Y-62596251D01*
X157428462Y-62596248D01*
X157264684Y-62486814D01*
X157264671Y-62486807D01*
X157082693Y-62411430D01*
X157082681Y-62411427D01*
X156889495Y-62373000D01*
X156841000Y-62373000D01*
X156841000Y-63075814D01*
X156830496Y-63073000D01*
X156351504Y-63073000D01*
X156341000Y-63075814D01*
X156341000Y-62373000D01*
X156292504Y-62373000D01*
X156099318Y-62411427D01*
X156099307Y-62411430D01*
X156055858Y-62429426D01*
X156055859Y-62429426D01*
X155917335Y-62486803D01*
X155917315Y-62486814D01*
X155753537Y-62596248D01*
X155753533Y-62596251D01*
X155614251Y-62735533D01*
X155614248Y-62735537D01*
X155504814Y-62899315D01*
X155504807Y-62899328D01*
X155429430Y-63081307D01*
X155429430Y-63081309D01*
X155421138Y-63123000D01*
X155013216Y-63123000D01*
X154991237Y-63012503D01*
X154961813Y-62941466D01*
X154930897Y-62866827D01*
X154930890Y-62866814D01*
X154843289Y-62735711D01*
X154843286Y-62735707D01*
X154812764Y-62705185D01*
X154791293Y-62676342D01*
X154784420Y-62663592D01*
X154781077Y-62651115D01*
X154731006Y-62564390D01*
X154702020Y-62514184D01*
X154697074Y-62507739D01*
X154698335Y-62506771D01*
X154688115Y-62488055D01*
X154671523Y-62462237D01*
X154670631Y-62456036D01*
X154669334Y-62453660D01*
X154666500Y-62427302D01*
X154666500Y-62392663D01*
X154686185Y-62325624D01*
X154738989Y-62279869D01*
X154777242Y-62269374D01*
X154798483Y-62267091D01*
X154798485Y-62267089D01*
X154802746Y-62266632D01*
X154829254Y-62266632D01*
X154833514Y-62267089D01*
X154833517Y-62267091D01*
X154893127Y-62273500D01*
X155238872Y-62273499D01*
X155298483Y-62267091D01*
X155298483Y-62267090D01*
X155305096Y-62266380D01*
X155331607Y-62266381D01*
X155393157Y-62272999D01*
X155393172Y-62273000D01*
X155441000Y-62273000D01*
X155441051Y-62272948D01*
X155442287Y-62268737D01*
X155441316Y-62264270D01*
X155452042Y-62235515D01*
X155460685Y-62206084D01*
X155464584Y-62201895D01*
X155465737Y-62198807D01*
X155490689Y-62173857D01*
X155492697Y-62172353D01*
X155558161Y-62147941D01*
X155626433Y-62162797D01*
X155675836Y-62212205D01*
X155691000Y-62271626D01*
X155691000Y-62273000D01*
X155738828Y-62273000D01*
X155738844Y-62272999D01*
X155798372Y-62266598D01*
X155798377Y-62266597D01*
X155823809Y-62257111D01*
X155946562Y-62206265D01*
X156048191Y-62130186D01*
X156134350Y-62015093D01*
X156134354Y-62015086D01*
X156184596Y-61880379D01*
X156184598Y-61880372D01*
X156190999Y-61820844D01*
X156191000Y-61820827D01*
X156191000Y-61502230D01*
X156210685Y-61435191D01*
X156263489Y-61389436D01*
X156332647Y-61379492D01*
X156353318Y-61384299D01*
X156402560Y-61400298D01*
X156577456Y-61428000D01*
X156666000Y-61428000D01*
X156666000Y-60728000D01*
X157166000Y-60728000D01*
X157166000Y-61428000D01*
X157254544Y-61428000D01*
X157429439Y-61400298D01*
X157597847Y-61345580D01*
X157597850Y-61345578D01*
X157755629Y-61265186D01*
X157898889Y-61161100D01*
X158024100Y-61035889D01*
X158128186Y-60892629D01*
X158208578Y-60734850D01*
X158208580Y-60734847D01*
X158263296Y-60566446D01*
X158263299Y-60566433D01*
X158265427Y-60553000D01*
X157512410Y-60553000D01*
X157562037Y-60467044D01*
X157591000Y-60358952D01*
X157591000Y-60247048D01*
X157562037Y-60138956D01*
X157512410Y-60053000D01*
X158265428Y-60053000D01*
X158274541Y-60042328D01*
X158278643Y-60010601D01*
X158323641Y-59957151D01*
X158390393Y-59936513D01*
X158392160Y-59936500D01*
X169028500Y-59936500D01*
X169095539Y-59956185D01*
X169141294Y-60008989D01*
X169152500Y-60060500D01*
X169152500Y-61904516D01*
X169132815Y-61971555D01*
X169080011Y-62017310D01*
X169010853Y-62027254D01*
X168990182Y-62022447D01*
X168853419Y-61978010D01*
X168651317Y-61946000D01*
X168446683Y-61946000D01*
X168244582Y-61978009D01*
X168049968Y-62041244D01*
X167867644Y-62134143D01*
X167823077Y-62166523D01*
X167823077Y-62166524D01*
X168502553Y-62846000D01*
X168496339Y-62846000D01*
X168394606Y-62873259D01*
X168303394Y-62925920D01*
X168228920Y-63000394D01*
X168176259Y-63091606D01*
X168149000Y-63193339D01*
X168149000Y-63199553D01*
X167469524Y-62520077D01*
X167469523Y-62520077D01*
X167437143Y-62564644D01*
X167344244Y-62746968D01*
X167281009Y-62941582D01*
X167249000Y-63143682D01*
X167249000Y-63348317D01*
X167281009Y-63550417D01*
X167344244Y-63745031D01*
X167437141Y-63927350D01*
X167437147Y-63927359D01*
X167469523Y-63971921D01*
X167469524Y-63971922D01*
X168149000Y-63292446D01*
X168149000Y-63298661D01*
X168176259Y-63400394D01*
X168228920Y-63491606D01*
X168303394Y-63566080D01*
X168394606Y-63618741D01*
X168496339Y-63646000D01*
X168502552Y-63646000D01*
X167823076Y-64325474D01*
X167867650Y-64357859D01*
X168049968Y-64450755D01*
X168244582Y-64513990D01*
X168446683Y-64546000D01*
X168651317Y-64546000D01*
X168853417Y-64513990D01*
X168990181Y-64469552D01*
X169060022Y-64467557D01*
X169119855Y-64503637D01*
X169150684Y-64566337D01*
X169152500Y-64587483D01*
X169152500Y-83811500D01*
X169132815Y-83878539D01*
X169080011Y-83924294D01*
X169028500Y-83935500D01*
X137657500Y-83935500D01*
X137590461Y-83915815D01*
X137544706Y-83863011D01*
X137533500Y-83811500D01*
X137533500Y-65107505D01*
X137553185Y-65040466D01*
X137605989Y-64994711D01*
X137675147Y-64984767D01*
X137695819Y-64989574D01*
X137795582Y-65021990D01*
X137997683Y-65054000D01*
X138202317Y-65054000D01*
X138404417Y-65021990D01*
X138599031Y-64958755D01*
X138781349Y-64865859D01*
X138825921Y-64833474D01*
X138146447Y-64154000D01*
X138152661Y-64154000D01*
X138254394Y-64126741D01*
X138345606Y-64074080D01*
X138420080Y-63999606D01*
X138472741Y-63908394D01*
X138500000Y-63806661D01*
X138500000Y-63800447D01*
X139179474Y-64479921D01*
X139211859Y-64435349D01*
X139304755Y-64253031D01*
X139367990Y-64058417D01*
X139400000Y-63856317D01*
X139400000Y-63651682D01*
X139367990Y-63449582D01*
X139304755Y-63254968D01*
X139211859Y-63072650D01*
X139179474Y-63028077D01*
X139179474Y-63028076D01*
X138500000Y-63707551D01*
X138500000Y-63701339D01*
X138472741Y-63599606D01*
X138420080Y-63508394D01*
X138345606Y-63433920D01*
X138254394Y-63381259D01*
X138152661Y-63354000D01*
X138146446Y-63354000D01*
X138825922Y-62674524D01*
X138825921Y-62674523D01*
X138781359Y-62642147D01*
X138781350Y-62642141D01*
X138599031Y-62549244D01*
X138404417Y-62486009D01*
X138202317Y-62454000D01*
X137997683Y-62454000D01*
X137795581Y-62486010D01*
X137795578Y-62486010D01*
X137695818Y-62518425D01*
X137625977Y-62520420D01*
X137566144Y-62484340D01*
X137535316Y-62421639D01*
X137533500Y-62400494D01*
X137533500Y-60060500D01*
X137553185Y-59993461D01*
X137605989Y-59947706D01*
X137657500Y-59936500D01*
X147239840Y-59936500D01*
X147306879Y-59956185D01*
G37*
%TD.AperFunction*%
%TA.AperFunction,Conductor*%
G36*
X150867000Y-81613988D02*
G01*
X150809993Y-81581075D01*
X150682826Y-81547000D01*
X150551174Y-81547000D01*
X150424007Y-81581075D01*
X150367000Y-81613988D01*
X150367000Y-79940012D01*
X150424007Y-79972925D01*
X150551174Y-80007000D01*
X150682826Y-80007000D01*
X150809993Y-79972925D01*
X150867000Y-79940012D01*
X150867000Y-81613988D01*
G37*
%TD.AperFunction*%
%TA.AperFunction,Conductor*%
G36*
X148973573Y-75694921D02*
G01*
X149017922Y-75723422D01*
X149050000Y-75755500D01*
X149736000Y-75755500D01*
X149803039Y-75775185D01*
X149848794Y-75827989D01*
X149860000Y-75879500D01*
X149860000Y-76005500D01*
X149986000Y-76005500D01*
X150053039Y-76025185D01*
X150098794Y-76077989D01*
X150110000Y-76129500D01*
X150110000Y-76894144D01*
X150114539Y-76901733D01*
X150118500Y-76932822D01*
X150118500Y-77121668D01*
X150118501Y-77121687D01*
X150128825Y-77222752D01*
X150165109Y-77332249D01*
X150183092Y-77386516D01*
X150214480Y-77437404D01*
X150232920Y-77504795D01*
X150211998Y-77571459D01*
X150158356Y-77616229D01*
X150108941Y-77626500D01*
X149878034Y-77626500D01*
X149810995Y-77606815D01*
X149790366Y-77590195D01*
X148491610Y-76291833D01*
X148483932Y-76284157D01*
X149050000Y-76284157D01*
X149052921Y-76321277D01*
X149052922Y-76321283D01*
X149099091Y-76480194D01*
X149099092Y-76480197D01*
X149183333Y-76622642D01*
X149183339Y-76622650D01*
X149300349Y-76739660D01*
X149300357Y-76739666D01*
X149442802Y-76823907D01*
X149442805Y-76823909D01*
X149601717Y-76870077D01*
X149601724Y-76870079D01*
X149609998Y-76870729D01*
X149610000Y-76870728D01*
X149610000Y-76255500D01*
X149050000Y-76255500D01*
X149050000Y-76284157D01*
X148483932Y-76284157D01*
X148316418Y-76116694D01*
X148282924Y-76055375D01*
X148287898Y-75985683D01*
X148329761Y-75929743D01*
X148395221Y-75905316D01*
X148404086Y-75904999D01*
X148404640Y-75904999D01*
X148404654Y-75904998D01*
X148505652Y-75894680D01*
X148669300Y-75840453D01*
X148669311Y-75840448D01*
X148816033Y-75749948D01*
X148842558Y-75723423D01*
X148903881Y-75689937D01*
X148973573Y-75694921D01*
G37*
%TD.AperFunction*%
%TA.AperFunction,Conductor*%
G36*
X152994514Y-73727501D02*
G01*
X152994674Y-73726905D01*
X153002524Y-73729008D01*
X153002526Y-73729008D01*
X153002528Y-73729009D01*
X153112599Y-73743500D01*
X153274607Y-73743499D01*
X153306095Y-73752744D01*
X153337894Y-73760865D01*
X153339451Y-73762538D01*
X153341647Y-73763183D01*
X153363141Y-73787988D01*
X153385498Y-73812007D01*
X153386343Y-73814765D01*
X153387402Y-73815987D01*
X153396640Y-73845497D01*
X153397165Y-73848410D01*
X153400991Y-73877472D01*
X153403494Y-73883517D01*
X153405863Y-73896651D01*
X153403490Y-73918690D01*
X153405849Y-73940737D01*
X153403014Y-73950653D01*
X153403582Y-73950806D01*
X153401478Y-73958658D01*
X153390373Y-74043000D01*
X153418494Y-74043000D01*
X153422145Y-74044072D01*
X153425854Y-74043219D01*
X153455403Y-74053837D01*
X153485533Y-74062685D01*
X153489066Y-74065934D01*
X153491607Y-74066848D01*
X153516862Y-74091503D01*
X153518397Y-74093503D01*
X153543598Y-74158669D01*
X153529567Y-74227116D01*
X153480759Y-74277111D01*
X153420029Y-74293000D01*
X153390374Y-74293000D01*
X153401478Y-74377340D01*
X153403582Y-74385193D01*
X153400372Y-74386053D01*
X153406183Y-74439733D01*
X153397193Y-74490233D01*
X153382825Y-74519103D01*
X153369783Y-74548584D01*
X153367357Y-74550183D01*
X153366063Y-74552785D01*
X153338373Y-74569300D01*
X153311458Y-74587054D01*
X153307654Y-74587623D01*
X153306057Y-74588577D01*
X153302162Y-74588446D01*
X153275113Y-74592500D01*
X153112596Y-74592500D01*
X153002531Y-74606989D01*
X152994678Y-74609094D01*
X152993802Y-74605824D01*
X152939853Y-74611567D01*
X152929477Y-74608518D01*
X152929323Y-74609095D01*
X152921470Y-74606990D01*
X152811402Y-74592500D01*
X152649391Y-74592500D01*
X152617741Y-74583206D01*
X152585794Y-74574949D01*
X152584366Y-74573406D01*
X152582352Y-74572815D01*
X152560761Y-74547898D01*
X152538339Y-74523668D01*
X152537564Y-74521127D01*
X152536597Y-74520011D01*
X152527295Y-74490146D01*
X152526814Y-74487434D01*
X152523009Y-74458528D01*
X152520702Y-74452959D01*
X152518342Y-74439646D01*
X152520751Y-74417862D01*
X152518392Y-74396075D01*
X152521501Y-74385485D01*
X152520905Y-74385326D01*
X152523008Y-74377475D01*
X152523008Y-74377474D01*
X152523009Y-74377472D01*
X152537500Y-74267401D01*
X152537499Y-74068600D01*
X152537268Y-74066848D01*
X152530982Y-74019092D01*
X152523009Y-73958528D01*
X152523008Y-73958525D01*
X152520905Y-73950674D01*
X152524189Y-73949793D01*
X152518342Y-73896354D01*
X152520702Y-73883040D01*
X152523009Y-73877472D01*
X152526815Y-73848555D01*
X152527295Y-73845853D01*
X152541659Y-73816937D01*
X152554717Y-73787419D01*
X152557106Y-73785842D01*
X152558380Y-73783279D01*
X152586096Y-73766720D01*
X152613041Y-73748947D01*
X152616785Y-73748385D01*
X152618360Y-73747445D01*
X152622221Y-73747571D01*
X152649385Y-73743499D01*
X152811400Y-73743499D01*
X152811402Y-73743499D01*
X152844520Y-73739139D01*
X152921472Y-73729009D01*
X152921475Y-73729007D01*
X152929326Y-73726905D01*
X152930210Y-73730207D01*
X152983925Y-73724392D01*
X152994514Y-73727501D01*
G37*
%TD.AperFunction*%
%TA.AperFunction,Conductor*%
G36*
X153889001Y-69073185D02*
G01*
X153909631Y-69089806D01*
X153945825Y-69125989D01*
X154044323Y-69224459D01*
X154103284Y-69283420D01*
X154103324Y-69283443D01*
X154103353Y-69283472D01*
X154170588Y-69322277D01*
X154232540Y-69358045D01*
X154240240Y-69362491D01*
X154240982Y-69362797D01*
X154247979Y-69365733D01*
X154302180Y-69409824D01*
X154323940Y-69476219D01*
X154324000Y-69480075D01*
X154324000Y-69854000D01*
X155362500Y-69854000D01*
X155429539Y-69873685D01*
X155475294Y-69926489D01*
X155486500Y-69978000D01*
X155486500Y-70230000D01*
X155466815Y-70297039D01*
X155414011Y-70342794D01*
X155362500Y-70354000D01*
X154324001Y-70354000D01*
X154324001Y-70803986D01*
X154332584Y-70888000D01*
X154363500Y-70888000D01*
X154430539Y-70907685D01*
X154476294Y-70960489D01*
X154487500Y-71012000D01*
X154487500Y-71704000D01*
X154467815Y-71771039D01*
X154415011Y-71816794D01*
X154363500Y-71828000D01*
X154111500Y-71828000D01*
X154044461Y-71808315D01*
X153998706Y-71755511D01*
X153987500Y-71704000D01*
X153987500Y-71018000D01*
X153958842Y-71018000D01*
X153921722Y-71020921D01*
X153921716Y-71020922D01*
X153762804Y-71067091D01*
X153762800Y-71067093D01*
X153733609Y-71084356D01*
X153721535Y-71087418D01*
X153711416Y-71094673D01*
X153688311Y-71095846D01*
X153665884Y-71101536D01*
X153652385Y-71097671D01*
X153641637Y-71098218D01*
X153611020Y-71085831D01*
X153608829Y-71085204D01*
X153608104Y-71084788D01*
X153577400Y-71066630D01*
X153575416Y-71066053D01*
X153567372Y-71061443D01*
X153547800Y-71041046D01*
X153526072Y-71022963D01*
X153523929Y-71016169D01*
X153518997Y-71011029D01*
X153513558Y-70983284D01*
X153505058Y-70956328D01*
X153506459Y-70947061D01*
X153505558Y-70942464D01*
X153508137Y-70935962D01*
X153511328Y-70914857D01*
X153513999Y-70906797D01*
X153524500Y-70804009D01*
X153524499Y-69403992D01*
X153518166Y-69342000D01*
X153513999Y-69301203D01*
X153508652Y-69285066D01*
X153485931Y-69216502D01*
X153484952Y-69188039D01*
X153480900Y-69159853D01*
X153483767Y-69153574D01*
X153483530Y-69146677D01*
X153498093Y-69122203D01*
X153509925Y-69096297D01*
X153515731Y-69092565D01*
X153519261Y-69086634D01*
X153544747Y-69073917D01*
X153568703Y-69058523D01*
X153578397Y-69057129D01*
X153581781Y-69055441D01*
X153603638Y-69053500D01*
X153821962Y-69053500D01*
X153889001Y-69073185D01*
G37*
%TD.AperFunction*%
%TA.AperFunction,Conductor*%
G36*
X155626433Y-66762797D02*
G01*
X155675836Y-66812205D01*
X155691000Y-66871626D01*
X155691000Y-66964300D01*
X155683160Y-66992097D01*
X155703809Y-67032622D01*
X155807900Y-67175889D01*
X155807900Y-67175890D01*
X155933110Y-67301100D01*
X156076370Y-67405186D01*
X156234149Y-67485578D01*
X156234152Y-67485580D01*
X156402560Y-67540298D01*
X156577456Y-67568000D01*
X156666000Y-67568000D01*
X156666000Y-66868000D01*
X157166000Y-66868000D01*
X157166000Y-67568000D01*
X157185135Y-67587135D01*
X157218620Y-67648458D01*
X157213636Y-67718150D01*
X157185138Y-67762495D01*
X156781576Y-68166079D01*
X156720253Y-68199565D01*
X156693892Y-68202400D01*
X154772038Y-68202400D01*
X154742609Y-68193758D01*
X154712627Y-68187241D01*
X154707599Y-68183478D01*
X154704999Y-68182715D01*
X154684383Y-68166104D01*
X154684369Y-68166094D01*
X154549676Y-68031440D01*
X154549673Y-68031435D01*
X154549663Y-68031427D01*
X154490717Y-67972481D01*
X154490652Y-67972431D01*
X154423411Y-67933622D01*
X154423413Y-67933617D01*
X154423395Y-67933613D01*
X154406838Y-67924054D01*
X154353784Y-67893423D01*
X154353783Y-67893422D01*
X154353782Y-67893422D01*
X154353704Y-67893389D01*
X154273785Y-67871987D01*
X154273785Y-67871986D01*
X154269828Y-67870926D01*
X154201057Y-67852500D01*
X154201017Y-67852500D01*
X154200972Y-67852488D01*
X154200946Y-67852488D01*
X154118477Y-67852500D01*
X153784608Y-67852500D01*
X153763346Y-67846256D01*
X153741247Y-67844671D01*
X153730477Y-67836605D01*
X153717569Y-67832815D01*
X153703060Y-67816071D01*
X153685323Y-67802787D01*
X153680623Y-67790177D01*
X153671814Y-67780011D01*
X153668660Y-67758080D01*
X153660922Y-67737317D01*
X153663784Y-67724171D01*
X153661870Y-67710853D01*
X153671075Y-67690696D01*
X153675790Y-67669047D01*
X153689042Y-67651352D01*
X153690895Y-67647297D01*
X153696948Y-67640798D01*
X153727434Y-67610327D01*
X153727435Y-67610324D01*
X153727444Y-67610316D01*
X153727510Y-67610229D01*
X153727514Y-67610221D01*
X153727520Y-67610216D01*
X153767769Y-67540500D01*
X153806523Y-67473414D01*
X153806523Y-67473411D01*
X153806528Y-67473404D01*
X153806573Y-67473294D01*
X153806574Y-67473288D01*
X153806577Y-67473284D01*
X153826960Y-67397210D01*
X153827353Y-67395743D01*
X153859440Y-67340134D01*
X153986393Y-67213142D01*
X154046520Y-67153016D01*
X154046522Y-67153012D01*
X154046575Y-67152941D01*
X154046577Y-67152940D01*
X154046578Y-67152936D01*
X154046584Y-67152930D01*
X154046667Y-67152782D01*
X154084495Y-67087240D01*
X154125577Y-67016084D01*
X154125579Y-67016076D01*
X154125582Y-67016071D01*
X154125611Y-67016001D01*
X154125611Y-67015999D01*
X154125613Y-67015997D01*
X154139554Y-66963938D01*
X154175910Y-66904272D01*
X154238752Y-66873734D01*
X154246065Y-66872725D01*
X154298483Y-66867091D01*
X154298486Y-66867089D01*
X154302744Y-66866632D01*
X154329254Y-66866632D01*
X154333514Y-66867089D01*
X154333517Y-66867091D01*
X154393127Y-66873500D01*
X154738872Y-66873499D01*
X154798483Y-66867091D01*
X154798486Y-66867089D01*
X154802744Y-66866632D01*
X154829254Y-66866632D01*
X154833514Y-66867089D01*
X154833517Y-66867091D01*
X154893127Y-66873500D01*
X155238872Y-66873499D01*
X155298483Y-66867091D01*
X155298483Y-66867090D01*
X155305096Y-66866380D01*
X155331607Y-66866381D01*
X155393157Y-66872999D01*
X155393172Y-66873000D01*
X155441000Y-66873000D01*
X155441051Y-66872948D01*
X155442287Y-66868737D01*
X155441316Y-66864270D01*
X155452042Y-66835515D01*
X155460685Y-66806084D01*
X155464584Y-66801895D01*
X155465737Y-66798807D01*
X155490689Y-66773857D01*
X155492697Y-66772353D01*
X155558161Y-66747941D01*
X155626433Y-66762797D01*
G37*
%TD.AperFunction*%
%TD*%
M02*
