%TF.GenerationSoftware,KiCad,Pcbnew,9.0.0-250-g02b756189b*%
%TF.CreationDate,2025-03-17T22:21:07-05:00*%
%TF.ProjectId,USB-Breakout,5553422d-4272-4656-916b-6f75742e6b69,rev?*%
%TF.SameCoordinates,Original*%
%TF.FileFunction,Legend,Top*%
%TF.FilePolarity,Positive*%
%FSLAX46Y46*%
G04 Gerber Fmt 4.6, Leading zero omitted, Abs format (unit mm)*
G04 Created by KiCad (PCBNEW 9.0.0-250-g02b756189b) date 2025-03-17 22:21:07*
%MOMM*%
%LPD*%
G01*
G04 APERTURE LIST*
%ADD10C,0.150000*%
%ADD11C,0.120000*%
%ADD12C,0.127000*%
%ADD13C,0.200000*%
G04 APERTURE END LIST*
D10*
X164632333Y-59155580D02*
X164584714Y-59203200D01*
X164584714Y-59203200D02*
X164441857Y-59250819D01*
X164441857Y-59250819D02*
X164346619Y-59250819D01*
X164346619Y-59250819D02*
X164203762Y-59203200D01*
X164203762Y-59203200D02*
X164108524Y-59107961D01*
X164108524Y-59107961D02*
X164060905Y-59012723D01*
X164060905Y-59012723D02*
X164013286Y-58822247D01*
X164013286Y-58822247D02*
X164013286Y-58679390D01*
X164013286Y-58679390D02*
X164060905Y-58488914D01*
X164060905Y-58488914D02*
X164108524Y-58393676D01*
X164108524Y-58393676D02*
X164203762Y-58298438D01*
X164203762Y-58298438D02*
X164346619Y-58250819D01*
X164346619Y-58250819D02*
X164441857Y-58250819D01*
X164441857Y-58250819D02*
X164584714Y-58298438D01*
X164584714Y-58298438D02*
X164632333Y-58346057D01*
X165537095Y-58250819D02*
X165060905Y-58250819D01*
X165060905Y-58250819D02*
X165013286Y-58727009D01*
X165013286Y-58727009D02*
X165060905Y-58679390D01*
X165060905Y-58679390D02*
X165156143Y-58631771D01*
X165156143Y-58631771D02*
X165394238Y-58631771D01*
X165394238Y-58631771D02*
X165489476Y-58679390D01*
X165489476Y-58679390D02*
X165537095Y-58727009D01*
X165537095Y-58727009D02*
X165584714Y-58822247D01*
X165584714Y-58822247D02*
X165584714Y-59060342D01*
X165584714Y-59060342D02*
X165537095Y-59155580D01*
X165537095Y-59155580D02*
X165489476Y-59203200D01*
X165489476Y-59203200D02*
X165394238Y-59250819D01*
X165394238Y-59250819D02*
X165156143Y-59250819D01*
X165156143Y-59250819D02*
X165060905Y-59203200D01*
X165060905Y-59203200D02*
X165013286Y-59155580D01*
X141683333Y-68563580D02*
X141635714Y-68611200D01*
X141635714Y-68611200D02*
X141492857Y-68658819D01*
X141492857Y-68658819D02*
X141397619Y-68658819D01*
X141397619Y-68658819D02*
X141254762Y-68611200D01*
X141254762Y-68611200D02*
X141159524Y-68515961D01*
X141159524Y-68515961D02*
X141111905Y-68420723D01*
X141111905Y-68420723D02*
X141064286Y-68230247D01*
X141064286Y-68230247D02*
X141064286Y-68087390D01*
X141064286Y-68087390D02*
X141111905Y-67896914D01*
X141111905Y-67896914D02*
X141159524Y-67801676D01*
X141159524Y-67801676D02*
X141254762Y-67706438D01*
X141254762Y-67706438D02*
X141397619Y-67658819D01*
X141397619Y-67658819D02*
X141492857Y-67658819D01*
X141492857Y-67658819D02*
X141635714Y-67706438D01*
X141635714Y-67706438D02*
X141683333Y-67754057D01*
X142064286Y-67754057D02*
X142111905Y-67706438D01*
X142111905Y-67706438D02*
X142207143Y-67658819D01*
X142207143Y-67658819D02*
X142445238Y-67658819D01*
X142445238Y-67658819D02*
X142540476Y-67706438D01*
X142540476Y-67706438D02*
X142588095Y-67754057D01*
X142588095Y-67754057D02*
X142635714Y-67849295D01*
X142635714Y-67849295D02*
X142635714Y-67944533D01*
X142635714Y-67944533D02*
X142588095Y-68087390D01*
X142588095Y-68087390D02*
X142016667Y-68658819D01*
X142016667Y-68658819D02*
X142635714Y-68658819D01*
X149058333Y-70337819D02*
X148725000Y-69861628D01*
X148486905Y-70337819D02*
X148486905Y-69337819D01*
X148486905Y-69337819D02*
X148867857Y-69337819D01*
X148867857Y-69337819D02*
X148963095Y-69385438D01*
X148963095Y-69385438D02*
X149010714Y-69433057D01*
X149010714Y-69433057D02*
X149058333Y-69528295D01*
X149058333Y-69528295D02*
X149058333Y-69671152D01*
X149058333Y-69671152D02*
X149010714Y-69766390D01*
X149010714Y-69766390D02*
X148963095Y-69814009D01*
X148963095Y-69814009D02*
X148867857Y-69861628D01*
X148867857Y-69861628D02*
X148486905Y-69861628D01*
X149963095Y-69337819D02*
X149486905Y-69337819D01*
X149486905Y-69337819D02*
X149439286Y-69814009D01*
X149439286Y-69814009D02*
X149486905Y-69766390D01*
X149486905Y-69766390D02*
X149582143Y-69718771D01*
X149582143Y-69718771D02*
X149820238Y-69718771D01*
X149820238Y-69718771D02*
X149915476Y-69766390D01*
X149915476Y-69766390D02*
X149963095Y-69814009D01*
X149963095Y-69814009D02*
X150010714Y-69909247D01*
X150010714Y-69909247D02*
X150010714Y-70147342D01*
X150010714Y-70147342D02*
X149963095Y-70242580D01*
X149963095Y-70242580D02*
X149915476Y-70290200D01*
X149915476Y-70290200D02*
X149820238Y-70337819D01*
X149820238Y-70337819D02*
X149582143Y-70337819D01*
X149582143Y-70337819D02*
X149486905Y-70290200D01*
X149486905Y-70290200D02*
X149439286Y-70242580D01*
X158710333Y-71226819D02*
X158377000Y-70750628D01*
X158138905Y-71226819D02*
X158138905Y-70226819D01*
X158138905Y-70226819D02*
X158519857Y-70226819D01*
X158519857Y-70226819D02*
X158615095Y-70274438D01*
X158615095Y-70274438D02*
X158662714Y-70322057D01*
X158662714Y-70322057D02*
X158710333Y-70417295D01*
X158710333Y-70417295D02*
X158710333Y-70560152D01*
X158710333Y-70560152D02*
X158662714Y-70655390D01*
X158662714Y-70655390D02*
X158615095Y-70703009D01*
X158615095Y-70703009D02*
X158519857Y-70750628D01*
X158519857Y-70750628D02*
X158138905Y-70750628D01*
X159091286Y-70322057D02*
X159138905Y-70274438D01*
X159138905Y-70274438D02*
X159234143Y-70226819D01*
X159234143Y-70226819D02*
X159472238Y-70226819D01*
X159472238Y-70226819D02*
X159567476Y-70274438D01*
X159567476Y-70274438D02*
X159615095Y-70322057D01*
X159615095Y-70322057D02*
X159662714Y-70417295D01*
X159662714Y-70417295D02*
X159662714Y-70512533D01*
X159662714Y-70512533D02*
X159615095Y-70655390D01*
X159615095Y-70655390D02*
X159043667Y-71226819D01*
X159043667Y-71226819D02*
X159662714Y-71226819D01*
X153503333Y-71027580D02*
X153455714Y-71075200D01*
X153455714Y-71075200D02*
X153312857Y-71122819D01*
X153312857Y-71122819D02*
X153217619Y-71122819D01*
X153217619Y-71122819D02*
X153074762Y-71075200D01*
X153074762Y-71075200D02*
X152979524Y-70979961D01*
X152979524Y-70979961D02*
X152931905Y-70884723D01*
X152931905Y-70884723D02*
X152884286Y-70694247D01*
X152884286Y-70694247D02*
X152884286Y-70551390D01*
X152884286Y-70551390D02*
X152931905Y-70360914D01*
X152931905Y-70360914D02*
X152979524Y-70265676D01*
X152979524Y-70265676D02*
X153074762Y-70170438D01*
X153074762Y-70170438D02*
X153217619Y-70122819D01*
X153217619Y-70122819D02*
X153312857Y-70122819D01*
X153312857Y-70122819D02*
X153455714Y-70170438D01*
X153455714Y-70170438D02*
X153503333Y-70218057D01*
X153836667Y-70122819D02*
X154455714Y-70122819D01*
X154455714Y-70122819D02*
X154122381Y-70503771D01*
X154122381Y-70503771D02*
X154265238Y-70503771D01*
X154265238Y-70503771D02*
X154360476Y-70551390D01*
X154360476Y-70551390D02*
X154408095Y-70599009D01*
X154408095Y-70599009D02*
X154455714Y-70694247D01*
X154455714Y-70694247D02*
X154455714Y-70932342D01*
X154455714Y-70932342D02*
X154408095Y-71027580D01*
X154408095Y-71027580D02*
X154360476Y-71075200D01*
X154360476Y-71075200D02*
X154265238Y-71122819D01*
X154265238Y-71122819D02*
X153979524Y-71122819D01*
X153979524Y-71122819D02*
X153884286Y-71075200D01*
X153884286Y-71075200D02*
X153836667Y-71027580D01*
X149058333Y-72847819D02*
X148725000Y-72371628D01*
X148486905Y-72847819D02*
X148486905Y-71847819D01*
X148486905Y-71847819D02*
X148867857Y-71847819D01*
X148867857Y-71847819D02*
X148963095Y-71895438D01*
X148963095Y-71895438D02*
X149010714Y-71943057D01*
X149010714Y-71943057D02*
X149058333Y-72038295D01*
X149058333Y-72038295D02*
X149058333Y-72181152D01*
X149058333Y-72181152D02*
X149010714Y-72276390D01*
X149010714Y-72276390D02*
X148963095Y-72324009D01*
X148963095Y-72324009D02*
X148867857Y-72371628D01*
X148867857Y-72371628D02*
X148486905Y-72371628D01*
X149915476Y-72181152D02*
X149915476Y-72847819D01*
X149677381Y-71800200D02*
X149439286Y-72514485D01*
X149439286Y-72514485D02*
X150058333Y-72514485D01*
X151212666Y-57747819D02*
X151212666Y-58462104D01*
X151212666Y-58462104D02*
X151165047Y-58604961D01*
X151165047Y-58604961D02*
X151069809Y-58700200D01*
X151069809Y-58700200D02*
X150926952Y-58747819D01*
X150926952Y-58747819D02*
X150831714Y-58747819D01*
X151641238Y-57843057D02*
X151688857Y-57795438D01*
X151688857Y-57795438D02*
X151784095Y-57747819D01*
X151784095Y-57747819D02*
X152022190Y-57747819D01*
X152022190Y-57747819D02*
X152117428Y-57795438D01*
X152117428Y-57795438D02*
X152165047Y-57843057D01*
X152165047Y-57843057D02*
X152212666Y-57938295D01*
X152212666Y-57938295D02*
X152212666Y-58033533D01*
X152212666Y-58033533D02*
X152165047Y-58176390D01*
X152165047Y-58176390D02*
X151593619Y-58747819D01*
X151593619Y-58747819D02*
X152212666Y-58747819D01*
X153757333Y-68613580D02*
X153709714Y-68661200D01*
X153709714Y-68661200D02*
X153566857Y-68708819D01*
X153566857Y-68708819D02*
X153471619Y-68708819D01*
X153471619Y-68708819D02*
X153328762Y-68661200D01*
X153328762Y-68661200D02*
X153233524Y-68565961D01*
X153233524Y-68565961D02*
X153185905Y-68470723D01*
X153185905Y-68470723D02*
X153138286Y-68280247D01*
X153138286Y-68280247D02*
X153138286Y-68137390D01*
X153138286Y-68137390D02*
X153185905Y-67946914D01*
X153185905Y-67946914D02*
X153233524Y-67851676D01*
X153233524Y-67851676D02*
X153328762Y-67756438D01*
X153328762Y-67756438D02*
X153471619Y-67708819D01*
X153471619Y-67708819D02*
X153566857Y-67708819D01*
X153566857Y-67708819D02*
X153709714Y-67756438D01*
X153709714Y-67756438D02*
X153757333Y-67804057D01*
X154709714Y-68708819D02*
X154138286Y-68708819D01*
X154424000Y-68708819D02*
X154424000Y-67708819D01*
X154424000Y-67708819D02*
X154328762Y-67851676D01*
X154328762Y-67851676D02*
X154233524Y-67946914D01*
X154233524Y-67946914D02*
X154138286Y-67994533D01*
X142661819Y-81110333D02*
X143376104Y-81110333D01*
X143376104Y-81110333D02*
X143518961Y-81157952D01*
X143518961Y-81157952D02*
X143614200Y-81253190D01*
X143614200Y-81253190D02*
X143661819Y-81396047D01*
X143661819Y-81396047D02*
X143661819Y-81491285D01*
X143661819Y-80110333D02*
X143661819Y-80681761D01*
X143661819Y-80396047D02*
X142661819Y-80396047D01*
X142661819Y-80396047D02*
X142804676Y-80491285D01*
X142804676Y-80491285D02*
X142899914Y-80586523D01*
X142899914Y-80586523D02*
X142947533Y-80681761D01*
X152158580Y-75223666D02*
X152206200Y-75271285D01*
X152206200Y-75271285D02*
X152253819Y-75414142D01*
X152253819Y-75414142D02*
X152253819Y-75509380D01*
X152253819Y-75509380D02*
X152206200Y-75652237D01*
X152206200Y-75652237D02*
X152110961Y-75747475D01*
X152110961Y-75747475D02*
X152015723Y-75795094D01*
X152015723Y-75795094D02*
X151825247Y-75842713D01*
X151825247Y-75842713D02*
X151682390Y-75842713D01*
X151682390Y-75842713D02*
X151491914Y-75795094D01*
X151491914Y-75795094D02*
X151396676Y-75747475D01*
X151396676Y-75747475D02*
X151301438Y-75652237D01*
X151301438Y-75652237D02*
X151253819Y-75509380D01*
X151253819Y-75509380D02*
X151253819Y-75414142D01*
X151253819Y-75414142D02*
X151301438Y-75271285D01*
X151301438Y-75271285D02*
X151349057Y-75223666D01*
X151587152Y-74366523D02*
X152253819Y-74366523D01*
X151206200Y-74604618D02*
X151920485Y-74842713D01*
X151920485Y-74842713D02*
X151920485Y-74223666D01*
X147026333Y-73954819D02*
X146693000Y-73478628D01*
X146454905Y-73954819D02*
X146454905Y-72954819D01*
X146454905Y-72954819D02*
X146835857Y-72954819D01*
X146835857Y-72954819D02*
X146931095Y-73002438D01*
X146931095Y-73002438D02*
X146978714Y-73050057D01*
X146978714Y-73050057D02*
X147026333Y-73145295D01*
X147026333Y-73145295D02*
X147026333Y-73288152D01*
X147026333Y-73288152D02*
X146978714Y-73383390D01*
X146978714Y-73383390D02*
X146931095Y-73431009D01*
X146931095Y-73431009D02*
X146835857Y-73478628D01*
X146835857Y-73478628D02*
X146454905Y-73478628D01*
X147978714Y-73954819D02*
X147407286Y-73954819D01*
X147693000Y-73954819D02*
X147693000Y-72954819D01*
X147693000Y-72954819D02*
X147597762Y-73097676D01*
X147597762Y-73097676D02*
X147502524Y-73192914D01*
X147502524Y-73192914D02*
X147407286Y-73240533D01*
X166943057Y-72104238D02*
X166895438Y-72199476D01*
X166895438Y-72199476D02*
X166800200Y-72294714D01*
X166800200Y-72294714D02*
X166657342Y-72437571D01*
X166657342Y-72437571D02*
X166609723Y-72532809D01*
X166609723Y-72532809D02*
X166609723Y-72628047D01*
X166847819Y-72580428D02*
X166800200Y-72675666D01*
X166800200Y-72675666D02*
X166704961Y-72770904D01*
X166704961Y-72770904D02*
X166514485Y-72818523D01*
X166514485Y-72818523D02*
X166181152Y-72818523D01*
X166181152Y-72818523D02*
X165990676Y-72770904D01*
X165990676Y-72770904D02*
X165895438Y-72675666D01*
X165895438Y-72675666D02*
X165847819Y-72580428D01*
X165847819Y-72580428D02*
X165847819Y-72389952D01*
X165847819Y-72389952D02*
X165895438Y-72294714D01*
X165895438Y-72294714D02*
X165990676Y-72199476D01*
X165990676Y-72199476D02*
X166181152Y-72151857D01*
X166181152Y-72151857D02*
X166514485Y-72151857D01*
X166514485Y-72151857D02*
X166704961Y-72199476D01*
X166704961Y-72199476D02*
X166800200Y-72294714D01*
X166800200Y-72294714D02*
X166847819Y-72389952D01*
X166847819Y-72389952D02*
X166847819Y-72580428D01*
X165943057Y-71770904D02*
X165895438Y-71723285D01*
X165895438Y-71723285D02*
X165847819Y-71628047D01*
X165847819Y-71628047D02*
X165847819Y-71389952D01*
X165847819Y-71389952D02*
X165895438Y-71294714D01*
X165895438Y-71294714D02*
X165943057Y-71247095D01*
X165943057Y-71247095D02*
X166038295Y-71199476D01*
X166038295Y-71199476D02*
X166133533Y-71199476D01*
X166133533Y-71199476D02*
X166276390Y-71247095D01*
X166276390Y-71247095D02*
X166847819Y-71818523D01*
X166847819Y-71818523D02*
X166847819Y-71199476D01*
X151852333Y-78719819D02*
X151519000Y-78243628D01*
X151280905Y-78719819D02*
X151280905Y-77719819D01*
X151280905Y-77719819D02*
X151661857Y-77719819D01*
X151661857Y-77719819D02*
X151757095Y-77767438D01*
X151757095Y-77767438D02*
X151804714Y-77815057D01*
X151804714Y-77815057D02*
X151852333Y-77910295D01*
X151852333Y-77910295D02*
X151852333Y-78053152D01*
X151852333Y-78053152D02*
X151804714Y-78148390D01*
X151804714Y-78148390D02*
X151757095Y-78196009D01*
X151757095Y-78196009D02*
X151661857Y-78243628D01*
X151661857Y-78243628D02*
X151280905Y-78243628D01*
X152185667Y-77719819D02*
X152804714Y-77719819D01*
X152804714Y-77719819D02*
X152471381Y-78100771D01*
X152471381Y-78100771D02*
X152614238Y-78100771D01*
X152614238Y-78100771D02*
X152709476Y-78148390D01*
X152709476Y-78148390D02*
X152757095Y-78196009D01*
X152757095Y-78196009D02*
X152804714Y-78291247D01*
X152804714Y-78291247D02*
X152804714Y-78529342D01*
X152804714Y-78529342D02*
X152757095Y-78624580D01*
X152757095Y-78624580D02*
X152709476Y-78672200D01*
X152709476Y-78672200D02*
X152614238Y-78719819D01*
X152614238Y-78719819D02*
X152328524Y-78719819D01*
X152328524Y-78719819D02*
X152233286Y-78672200D01*
X152233286Y-78672200D02*
X152185667Y-78624580D01*
X151379580Y-75604666D02*
X151427200Y-75652285D01*
X151427200Y-75652285D02*
X151474819Y-75795142D01*
X151474819Y-75795142D02*
X151474819Y-75890380D01*
X151474819Y-75890380D02*
X151427200Y-76033237D01*
X151427200Y-76033237D02*
X151331961Y-76128475D01*
X151331961Y-76128475D02*
X151236723Y-76176094D01*
X151236723Y-76176094D02*
X151046247Y-76223713D01*
X151046247Y-76223713D02*
X150903390Y-76223713D01*
X150903390Y-76223713D02*
X150712914Y-76176094D01*
X150712914Y-76176094D02*
X150617676Y-76128475D01*
X150617676Y-76128475D02*
X150522438Y-76033237D01*
X150522438Y-76033237D02*
X150474819Y-75890380D01*
X150474819Y-75890380D02*
X150474819Y-75795142D01*
X150474819Y-75795142D02*
X150522438Y-75652285D01*
X150522438Y-75652285D02*
X150570057Y-75604666D01*
X150474819Y-74747523D02*
X150474819Y-74937999D01*
X150474819Y-74937999D02*
X150522438Y-75033237D01*
X150522438Y-75033237D02*
X150570057Y-75080856D01*
X150570057Y-75080856D02*
X150712914Y-75176094D01*
X150712914Y-75176094D02*
X150903390Y-75223713D01*
X150903390Y-75223713D02*
X151284342Y-75223713D01*
X151284342Y-75223713D02*
X151379580Y-75176094D01*
X151379580Y-75176094D02*
X151427200Y-75128475D01*
X151427200Y-75128475D02*
X151474819Y-75033237D01*
X151474819Y-75033237D02*
X151474819Y-74842761D01*
X151474819Y-74842761D02*
X151427200Y-74747523D01*
X151427200Y-74747523D02*
X151379580Y-74699904D01*
X151379580Y-74699904D02*
X151284342Y-74652285D01*
X151284342Y-74652285D02*
X151046247Y-74652285D01*
X151046247Y-74652285D02*
X150951009Y-74699904D01*
X150951009Y-74699904D02*
X150903390Y-74747523D01*
X150903390Y-74747523D02*
X150855771Y-74842761D01*
X150855771Y-74842761D02*
X150855771Y-75033237D01*
X150855771Y-75033237D02*
X150903390Y-75128475D01*
X150903390Y-75128475D02*
X150951009Y-75176094D01*
X150951009Y-75176094D02*
X151046247Y-75223713D01*
X140298057Y-72485238D02*
X140250438Y-72580476D01*
X140250438Y-72580476D02*
X140155200Y-72675714D01*
X140155200Y-72675714D02*
X140012342Y-72818571D01*
X140012342Y-72818571D02*
X139964723Y-72913809D01*
X139964723Y-72913809D02*
X139964723Y-73009047D01*
X140202819Y-72961428D02*
X140155200Y-73056666D01*
X140155200Y-73056666D02*
X140059961Y-73151904D01*
X140059961Y-73151904D02*
X139869485Y-73199523D01*
X139869485Y-73199523D02*
X139536152Y-73199523D01*
X139536152Y-73199523D02*
X139345676Y-73151904D01*
X139345676Y-73151904D02*
X139250438Y-73056666D01*
X139250438Y-73056666D02*
X139202819Y-72961428D01*
X139202819Y-72961428D02*
X139202819Y-72770952D01*
X139202819Y-72770952D02*
X139250438Y-72675714D01*
X139250438Y-72675714D02*
X139345676Y-72580476D01*
X139345676Y-72580476D02*
X139536152Y-72532857D01*
X139536152Y-72532857D02*
X139869485Y-72532857D01*
X139869485Y-72532857D02*
X140059961Y-72580476D01*
X140059961Y-72580476D02*
X140155200Y-72675714D01*
X140155200Y-72675714D02*
X140202819Y-72770952D01*
X140202819Y-72770952D02*
X140202819Y-72961428D01*
X140202819Y-71580476D02*
X140202819Y-72151904D01*
X140202819Y-71866190D02*
X139202819Y-71866190D01*
X139202819Y-71866190D02*
X139345676Y-71961428D01*
X139345676Y-71961428D02*
X139440914Y-72056666D01*
X139440914Y-72056666D02*
X139488533Y-72151904D01*
X152200095Y-71072819D02*
X152200095Y-71882342D01*
X152200095Y-71882342D02*
X152247714Y-71977580D01*
X152247714Y-71977580D02*
X152295333Y-72025200D01*
X152295333Y-72025200D02*
X152390571Y-72072819D01*
X152390571Y-72072819D02*
X152581047Y-72072819D01*
X152581047Y-72072819D02*
X152676285Y-72025200D01*
X152676285Y-72025200D02*
X152723904Y-71977580D01*
X152723904Y-71977580D02*
X152771523Y-71882342D01*
X152771523Y-71882342D02*
X152771523Y-71072819D01*
X153771523Y-72072819D02*
X153200095Y-72072819D01*
X153485809Y-72072819D02*
X153485809Y-71072819D01*
X153485809Y-71072819D02*
X153390571Y-71215676D01*
X153390571Y-71215676D02*
X153295333Y-71310914D01*
X153295333Y-71310914D02*
X153200095Y-71358533D01*
D11*
%TO.C,C5*%
X160179000Y-59926000D02*
X160179000Y-62581000D01*
X160179000Y-59926000D02*
X169419000Y-59926000D01*
X160179000Y-63911000D02*
X160179000Y-66566000D01*
X160179000Y-66566000D02*
X169419000Y-66566000D01*
X169419000Y-59926000D02*
X169419000Y-62581000D01*
X169419000Y-63911000D02*
X169419000Y-66566000D01*
%TO.C,C2*%
X146470000Y-67074000D02*
X146470000Y-64419000D01*
X146470000Y-67074000D02*
X137230000Y-67074000D01*
X146470000Y-63089000D02*
X146470000Y-60434000D01*
X146470000Y-60434000D02*
X137230000Y-60434000D01*
X137230000Y-67074000D02*
X137230000Y-64419000D01*
X137230000Y-63089000D02*
X137230000Y-60434000D01*
%TO.C,R5*%
X149479724Y-67930500D02*
X148970276Y-67930500D01*
X149479724Y-68975500D02*
X148970276Y-68975500D01*
%TO.C,R2*%
X159131724Y-68819500D02*
X158622276Y-68819500D01*
X159131724Y-69864500D02*
X158622276Y-69864500D01*
%TO.C,C3*%
X153554165Y-71468000D02*
X153785835Y-71468000D01*
X153554165Y-72188000D02*
X153785835Y-72188000D01*
%TO.C,R4*%
X149479724Y-70440500D02*
X148970276Y-70440500D01*
X149479724Y-71485500D02*
X148970276Y-71485500D01*
D12*
%TO.C,J2*%
X148241000Y-62559500D02*
X148241000Y-61241500D01*
X148241000Y-64186500D02*
X148241000Y-65504500D01*
X157391000Y-62559500D02*
X157391000Y-61241500D01*
X157391000Y-64186500D02*
X157391000Y-65504500D01*
D13*
X150166000Y-59123000D02*
G75*
G02*
X149966000Y-59123000I-100000J0D01*
G01*
X149966000Y-59123000D02*
G75*
G02*
X150166000Y-59123000I100000J0D01*
G01*
D11*
%TO.C,C1*%
X153212748Y-69194000D02*
X154635252Y-69194000D01*
X153212748Y-71014000D02*
X154635252Y-71014000D01*
%TO.C,J1*%
X144207000Y-78177000D02*
X162107000Y-78177000D01*
X144207000Y-80777000D02*
X144207000Y-78177000D01*
X144207000Y-83377000D02*
X144207000Y-82047000D01*
X145537000Y-83377000D02*
X144207000Y-83377000D01*
X146807000Y-80777000D02*
X144207000Y-80777000D01*
X146807000Y-83377000D02*
X146807000Y-80777000D01*
X146807000Y-83377000D02*
X162107000Y-83377000D01*
X162107000Y-83377000D02*
X162107000Y-78177000D01*
%TO.C,R1*%
X146938276Y-74407500D02*
X147447724Y-74407500D01*
X146938276Y-75452500D02*
X147447724Y-75452500D01*
%TO.C,Q2*%
X160752000Y-66889000D02*
X160752000Y-77129000D01*
X163883000Y-66889000D02*
X163883000Y-77129000D01*
X165393000Y-66889000D02*
X160752000Y-66889000D01*
X165393000Y-66889000D02*
X165393000Y-77129000D01*
X165393000Y-70159000D02*
X163883000Y-70159000D01*
X165393000Y-73860000D02*
X163883000Y-73860000D01*
X165393000Y-77129000D02*
X160752000Y-77129000D01*
%TO.C,R3*%
X152273724Y-76312500D02*
X151764276Y-76312500D01*
X152273724Y-77357500D02*
X151764276Y-77357500D01*
%TO.C,C6*%
X149500000Y-75322165D02*
X149500000Y-75553835D01*
X150220000Y-75322165D02*
X150220000Y-75553835D01*
%TO.C,Q1*%
X140748000Y-67270000D02*
X145389000Y-67270000D01*
X140748000Y-70539000D02*
X142258000Y-70539000D01*
X140748000Y-74240000D02*
X142258000Y-74240000D01*
X140748000Y-77510000D02*
X140748000Y-67270000D01*
X140748000Y-77510000D02*
X145389000Y-77510000D01*
X142258000Y-77510000D02*
X142258000Y-67270000D01*
X145389000Y-77510000D02*
X145389000Y-67270000D01*
%TO.C,U1*%
X151582000Y-73283000D02*
X151582000Y-73048000D01*
X151602000Y-75528000D02*
X151602000Y-75053000D01*
X151827000Y-75528000D02*
X151602000Y-75528000D01*
X154097000Y-72808000D02*
X154322000Y-72808000D01*
X154097000Y-75528000D02*
X154322000Y-75528000D01*
X154322000Y-72808000D02*
X154322000Y-73283000D01*
X154322000Y-75528000D02*
X154322000Y-75053000D01*
X151582000Y-72808000D02*
X151342000Y-72478000D01*
X151822000Y-72478000D01*
X151582000Y-72808000D01*
G36*
X151582000Y-72808000D02*
G01*
X151342000Y-72478000D01*
X151822000Y-72478000D01*
X151582000Y-72808000D01*
G37*
%TD*%
M02*
